%TF.GenerationSoftware,KiCad,Pcbnew,(5.1.9)-1*%
%TF.CreationDate,2021-11-17T20:07:43-06:00*%
%TF.ProjectId,GAL_Programmer,47414c5f-5072-46f6-9772-616d6d65722e,rev?*%
%TF.SameCoordinates,Original*%
%TF.FileFunction,Legend,Top*%
%TF.FilePolarity,Positive*%
%FSLAX45Y45*%
G04 Gerber Fmt 4.5, Leading zero omitted, Abs format (unit mm)*
G04 Created by KiCad (PCBNEW (5.1.9)-1) date 2021-11-17 20:07:43*
%MOMM*%
%LPD*%
G01*
G04 APERTURE LIST*
%ADD10C,0.100000*%
%ADD11C,0.150000*%
%ADD12C,0.300000*%
%ADD13C,0.120000*%
G04 APERTURE END LIST*
D10*
G36*
X17224800Y-10711500D02*
G01*
X17074800Y-10636500D01*
X17224800Y-10561500D01*
X17224800Y-10711500D01*
G37*
X17224800Y-10711500D02*
X17074800Y-10636500D01*
X17224800Y-10561500D01*
X17224800Y-10711500D01*
G36*
X16724800Y-8486500D02*
G01*
X16574800Y-8411500D01*
X16724800Y-8336500D01*
X16724800Y-8486500D01*
G37*
X16724800Y-8486500D02*
X16574800Y-8411500D01*
X16724800Y-8336500D01*
X16724800Y-8486500D01*
D11*
X16574800Y-8411500D02*
X16724800Y-8336500D01*
X16724800Y-8486500D02*
X16574800Y-8411500D01*
X16724800Y-8336500D02*
X16724800Y-8486500D01*
D12*
X10394743Y-7535257D02*
X10394743Y-7385257D01*
X10451886Y-7385257D01*
X10466171Y-7392400D01*
X10473314Y-7399543D01*
X10480457Y-7413828D01*
X10480457Y-7435257D01*
X10473314Y-7449543D01*
X10466171Y-7456686D01*
X10451886Y-7463828D01*
X10394743Y-7463828D01*
X10544743Y-7535257D02*
X10544743Y-7435257D01*
X10544743Y-7463828D02*
X10551886Y-7449543D01*
X10559029Y-7442400D01*
X10573314Y-7435257D01*
X10587600Y-7435257D01*
X10659029Y-7535257D02*
X10644743Y-7528114D01*
X10637600Y-7520971D01*
X10630457Y-7506686D01*
X10630457Y-7463828D01*
X10637600Y-7449543D01*
X10644743Y-7442400D01*
X10659029Y-7435257D01*
X10680457Y-7435257D01*
X10694743Y-7442400D01*
X10701886Y-7449543D01*
X10709029Y-7463828D01*
X10709029Y-7506686D01*
X10701886Y-7520971D01*
X10694743Y-7528114D01*
X10680457Y-7535257D01*
X10659029Y-7535257D01*
X10837600Y-7435257D02*
X10837600Y-7556686D01*
X10830457Y-7570971D01*
X10823314Y-7578114D01*
X10809029Y-7585257D01*
X10787600Y-7585257D01*
X10773314Y-7578114D01*
X10837600Y-7528114D02*
X10823314Y-7535257D01*
X10794743Y-7535257D01*
X10780457Y-7528114D01*
X10773314Y-7520971D01*
X10766171Y-7506686D01*
X10766171Y-7463828D01*
X10773314Y-7449543D01*
X10780457Y-7442400D01*
X10794743Y-7435257D01*
X10823314Y-7435257D01*
X10837600Y-7442400D01*
X10909029Y-7535257D02*
X10909029Y-7435257D01*
X10909029Y-7463828D02*
X10916171Y-7449543D01*
X10923314Y-7442400D01*
X10937600Y-7435257D01*
X10951886Y-7435257D01*
X11066171Y-7535257D02*
X11066171Y-7456686D01*
X11059029Y-7442400D01*
X11044743Y-7435257D01*
X11016171Y-7435257D01*
X11001886Y-7442400D01*
X11066171Y-7528114D02*
X11051886Y-7535257D01*
X11016171Y-7535257D01*
X11001886Y-7528114D01*
X10994743Y-7513828D01*
X10994743Y-7499543D01*
X11001886Y-7485257D01*
X11016171Y-7478114D01*
X11051886Y-7478114D01*
X11066171Y-7470971D01*
X11137600Y-7535257D02*
X11137600Y-7435257D01*
X11137600Y-7449543D02*
X11144743Y-7442400D01*
X11159029Y-7435257D01*
X11180457Y-7435257D01*
X11194743Y-7442400D01*
X11201886Y-7456686D01*
X11201886Y-7535257D01*
X11201886Y-7456686D02*
X11209028Y-7442400D01*
X11223314Y-7435257D01*
X11244743Y-7435257D01*
X11259028Y-7442400D01*
X11266171Y-7456686D01*
X11266171Y-7535257D01*
X11401886Y-7535257D02*
X11401886Y-7456686D01*
X11394743Y-7442400D01*
X11380457Y-7435257D01*
X11351886Y-7435257D01*
X11337600Y-7442400D01*
X11401886Y-7528114D02*
X11387600Y-7535257D01*
X11351886Y-7535257D01*
X11337600Y-7528114D01*
X11330457Y-7513828D01*
X11330457Y-7499543D01*
X11337600Y-7485257D01*
X11351886Y-7478114D01*
X11387600Y-7478114D01*
X11401886Y-7470971D01*
X11537600Y-7535257D02*
X11537600Y-7385257D01*
X11537600Y-7528114D02*
X11523314Y-7535257D01*
X11494743Y-7535257D01*
X11480457Y-7528114D01*
X11473314Y-7520971D01*
X11466171Y-7506686D01*
X11466171Y-7463828D01*
X11473314Y-7449543D01*
X11480457Y-7442400D01*
X11494743Y-7435257D01*
X11523314Y-7435257D01*
X11537600Y-7442400D01*
X11630457Y-7535257D02*
X11616171Y-7528114D01*
X11609028Y-7520971D01*
X11601886Y-7506686D01*
X11601886Y-7463828D01*
X11609028Y-7449543D01*
X11616171Y-7442400D01*
X11630457Y-7435257D01*
X11651886Y-7435257D01*
X11666171Y-7442400D01*
X11673314Y-7449543D01*
X11680457Y-7463828D01*
X11680457Y-7506686D01*
X11673314Y-7520971D01*
X11666171Y-7528114D01*
X11651886Y-7535257D01*
X11630457Y-7535257D01*
X11744743Y-7535257D02*
X11744743Y-7435257D01*
X11744743Y-7463828D02*
X11751886Y-7449543D01*
X11759028Y-7442400D01*
X11773314Y-7435257D01*
X11787600Y-7435257D01*
X12030457Y-7392400D02*
X12016171Y-7385257D01*
X11994743Y-7385257D01*
X11973314Y-7392400D01*
X11959028Y-7406686D01*
X11951886Y-7420971D01*
X11944743Y-7449543D01*
X11944743Y-7470971D01*
X11951886Y-7499543D01*
X11959028Y-7513828D01*
X11973314Y-7528114D01*
X11994743Y-7535257D01*
X12009028Y-7535257D01*
X12030457Y-7528114D01*
X12037600Y-7520971D01*
X12037600Y-7470971D01*
X12009028Y-7470971D01*
X12094743Y-7492400D02*
X12166171Y-7492400D01*
X12080457Y-7535257D02*
X12130457Y-7385257D01*
X12180457Y-7535257D01*
X12301886Y-7535257D02*
X12230457Y-7535257D01*
X12230457Y-7385257D01*
X11016171Y-7690257D02*
X11051886Y-7790257D01*
X11087600Y-7690257D01*
X11223314Y-7790257D02*
X11137600Y-7790257D01*
X11180457Y-7790257D02*
X11180457Y-7640257D01*
X11166171Y-7661686D01*
X11151886Y-7675971D01*
X11137600Y-7683114D01*
X11287600Y-7775971D02*
X11294743Y-7783114D01*
X11287600Y-7790257D01*
X11280457Y-7783114D01*
X11287600Y-7775971D01*
X11287600Y-7790257D01*
X11387600Y-7640257D02*
X11401886Y-7640257D01*
X11416171Y-7647400D01*
X11423314Y-7654543D01*
X11430457Y-7668828D01*
X11437600Y-7697400D01*
X11437600Y-7733114D01*
X11430457Y-7761686D01*
X11423314Y-7775971D01*
X11416171Y-7783114D01*
X11401886Y-7790257D01*
X11387600Y-7790257D01*
X11373314Y-7783114D01*
X11366171Y-7775971D01*
X11359028Y-7761686D01*
X11351886Y-7733114D01*
X11351886Y-7697400D01*
X11359028Y-7668828D01*
X11366171Y-7654543D01*
X11373314Y-7647400D01*
X11387600Y-7640257D01*
X11501886Y-7775971D02*
X11509028Y-7783114D01*
X11501886Y-7790257D01*
X11494743Y-7783114D01*
X11501886Y-7775971D01*
X11501886Y-7790257D01*
X11601886Y-7640257D02*
X11616171Y-7640257D01*
X11630457Y-7647400D01*
X11637600Y-7654543D01*
X11644743Y-7668828D01*
X11651886Y-7697400D01*
X11651886Y-7733114D01*
X11644743Y-7761686D01*
X11637600Y-7775971D01*
X11630457Y-7783114D01*
X11616171Y-7790257D01*
X11601886Y-7790257D01*
X11587600Y-7783114D01*
X11580457Y-7775971D01*
X11573314Y-7761686D01*
X11566171Y-7733114D01*
X11566171Y-7697400D01*
X11573314Y-7668828D01*
X11580457Y-7654543D01*
X11587600Y-7647400D01*
X11601886Y-7640257D01*
D13*
%TO.C,C3*%
X12336800Y-7986500D02*
G75*
G03*
X12336800Y-7986500I-262000J0D01*
G01*
D11*
%TO.C,U3*%
X11974800Y-9536500D02*
X11674800Y-9536500D01*
X11974800Y-9886500D02*
X11674800Y-9886500D01*
X11674800Y-9886500D02*
X11824800Y-9536500D01*
X11824800Y-9536500D02*
X11974800Y-9886500D01*
X10424800Y-8636500D02*
X10424800Y-11736500D01*
X12124800Y-11736500D02*
X12124800Y-8636500D01*
X10674800Y-11986500D02*
X11874800Y-11986500D01*
X11874800Y-8386500D02*
X10674800Y-8386500D01*
X12124800Y-8636500D02*
G75*
G03*
X11874800Y-8386500I-250000J0D01*
G01*
X11874800Y-11986500D02*
G75*
G03*
X12124800Y-11736500I0J250000D01*
G01*
X10424800Y-11736500D02*
G75*
G03*
X10674800Y-11986500I250000J0D01*
G01*
X10674800Y-8386500D02*
G75*
G03*
X10424800Y-8636500I0J-250000D01*
G01*
%TO.C,P1*%
X14020800Y-12509500D02*
X15798800Y-12509500D01*
X15798800Y-12509500D02*
X15798800Y-12255500D01*
X15798800Y-12255500D02*
X14020800Y-12255500D01*
X13738800Y-12537500D02*
X13893800Y-12537500D01*
X14020800Y-12509500D02*
X14020800Y-12255500D01*
X13893800Y-12227500D02*
X13738800Y-12227500D01*
X13738800Y-12227500D02*
X13738800Y-12537500D01*
%TO.C,P2*%
X16306800Y-12509500D02*
X17576800Y-12509500D01*
X17576800Y-12509500D02*
X17576800Y-12255500D01*
X17576800Y-12255500D02*
X16306800Y-12255500D01*
X16024800Y-12537500D02*
X16179800Y-12537500D01*
X16306800Y-12509500D02*
X16306800Y-12255500D01*
X16179800Y-12227500D02*
X16024800Y-12227500D01*
X16024800Y-12227500D02*
X16024800Y-12537500D01*
%TO.C,P3*%
X13106400Y-7683500D02*
X15392400Y-7683500D01*
X15392400Y-7683500D02*
X15392400Y-7429500D01*
X15392400Y-7429500D02*
X13106400Y-7429500D01*
X12824400Y-7711500D02*
X12979400Y-7711500D01*
X13106400Y-7683500D02*
X13106400Y-7429500D01*
X12979400Y-7401500D02*
X12824400Y-7401500D01*
X12824400Y-7401500D02*
X12824400Y-7711500D01*
%TO.C,P4*%
X15798800Y-7683500D02*
X17576800Y-7683500D01*
X17576800Y-7683500D02*
X17576800Y-7429500D01*
X17576800Y-7429500D02*
X15798800Y-7429500D01*
X15516800Y-7711500D02*
X15671800Y-7711500D01*
X15798800Y-7683500D02*
X15798800Y-7429500D01*
X15671800Y-7401500D02*
X15516800Y-7401500D01*
X15516800Y-7401500D02*
X15516800Y-7711500D01*
%TO.C,P5*%
X12725400Y-12382500D02*
G75*
G03*
X12725400Y-12382500I-228600J0D01*
G01*
%TO.C,P6*%
X17932400Y-11874500D02*
G75*
G03*
X17932400Y-11874500I-228600J0D01*
G01*
%TO.C,P7*%
X12852400Y-7556500D02*
G75*
G03*
X12852400Y-7556500I-228600J0D01*
G01*
%TO.C,P8*%
X17932400Y-9080500D02*
G75*
G03*
X17932400Y-9080500I-228600J0D01*
G01*
D13*
%TO.C,R1*%
X12428800Y-11574500D02*
X12428800Y-11607500D01*
X13082800Y-11574500D02*
X12428800Y-11574500D01*
X13082800Y-11607500D02*
X13082800Y-11574500D01*
X12428800Y-11848500D02*
X12428800Y-11815500D01*
X13082800Y-11848500D02*
X12428800Y-11848500D01*
X13082800Y-11815500D02*
X13082800Y-11848500D01*
%TO.C,R2*%
X13082800Y-11515500D02*
X13082800Y-11548500D01*
X13082800Y-11548500D02*
X12428800Y-11548500D01*
X12428800Y-11548500D02*
X12428800Y-11515500D01*
X13082800Y-11307500D02*
X13082800Y-11274500D01*
X13082800Y-11274500D02*
X12428800Y-11274500D01*
X12428800Y-11274500D02*
X12428800Y-11307500D01*
%TO.C,R3*%
X12428800Y-10974500D02*
X12428800Y-11007500D01*
X13082800Y-10974500D02*
X12428800Y-10974500D01*
X13082800Y-11007500D02*
X13082800Y-10974500D01*
X12428800Y-11248500D02*
X12428800Y-11215500D01*
X13082800Y-11248500D02*
X12428800Y-11248500D01*
X13082800Y-11215500D02*
X13082800Y-11248500D01*
%TO.C,R4*%
X13082800Y-10915500D02*
X13082800Y-10948500D01*
X13082800Y-10948500D02*
X12428800Y-10948500D01*
X12428800Y-10948500D02*
X12428800Y-10915500D01*
X13082800Y-10707500D02*
X13082800Y-10674500D01*
X13082800Y-10674500D02*
X12428800Y-10674500D01*
X12428800Y-10674500D02*
X12428800Y-10707500D01*
%TO.C,R5*%
X12428800Y-10374500D02*
X12428800Y-10407500D01*
X13082800Y-10374500D02*
X12428800Y-10374500D01*
X13082800Y-10407500D02*
X13082800Y-10374500D01*
X12428800Y-10648500D02*
X12428800Y-10615500D01*
X13082800Y-10648500D02*
X12428800Y-10648500D01*
X13082800Y-10615500D02*
X13082800Y-10648500D01*
%TO.C,R6*%
X13082800Y-10315500D02*
X13082800Y-10348500D01*
X13082800Y-10348500D02*
X12428800Y-10348500D01*
X12428800Y-10348500D02*
X12428800Y-10315500D01*
X13082800Y-10107500D02*
X13082800Y-10074500D01*
X13082800Y-10074500D02*
X12428800Y-10074500D01*
X12428800Y-10074500D02*
X12428800Y-10107500D01*
%TO.C,R7*%
X12428800Y-9774500D02*
X12428800Y-9807500D01*
X13082800Y-9774500D02*
X12428800Y-9774500D01*
X13082800Y-9807500D02*
X13082800Y-9774500D01*
X12428800Y-10048500D02*
X12428800Y-10015500D01*
X13082800Y-10048500D02*
X12428800Y-10048500D01*
X13082800Y-10015500D02*
X13082800Y-10048500D01*
%TO.C,R8*%
X13082800Y-9715500D02*
X13082800Y-9748500D01*
X13082800Y-9748500D02*
X12428800Y-9748500D01*
X12428800Y-9748500D02*
X12428800Y-9715500D01*
X13082800Y-9507500D02*
X13082800Y-9474500D01*
X13082800Y-9474500D02*
X12428800Y-9474500D01*
X12428800Y-9474500D02*
X12428800Y-9507500D01*
%TO.C,R9*%
X12428800Y-9174500D02*
X12428800Y-9207500D01*
X13082800Y-9174500D02*
X12428800Y-9174500D01*
X13082800Y-9207500D02*
X13082800Y-9174500D01*
X12428800Y-9448500D02*
X12428800Y-9415500D01*
X13082800Y-9448500D02*
X12428800Y-9448500D01*
X13082800Y-9415500D02*
X13082800Y-9448500D01*
%TO.C,R10*%
X12428800Y-8907500D02*
X12428800Y-8874500D01*
X12428800Y-8874500D02*
X13082800Y-8874500D01*
X13082800Y-8874500D02*
X13082800Y-8907500D01*
X12428800Y-9115500D02*
X12428800Y-9148500D01*
X12428800Y-9148500D02*
X13082800Y-9148500D01*
X13082800Y-9148500D02*
X13082800Y-9115500D01*
%TO.C,U1*%
X16507800Y-8717500D02*
X16507800Y-8592500D01*
X16507800Y-8592500D02*
X13955800Y-8592500D01*
X13955800Y-8592500D02*
X13955800Y-9042500D01*
X13955800Y-9042500D02*
X16507800Y-9042500D01*
X16507800Y-9042500D02*
X16507800Y-8917500D01*
X16513800Y-8292500D02*
X13949800Y-8292500D01*
X13949800Y-8292500D02*
X13949800Y-9342500D01*
X13949800Y-9342500D02*
X16513800Y-9342500D01*
X16513800Y-9342500D02*
X16513800Y-8292500D01*
X16507800Y-8917500D02*
G75*
G02*
X16507800Y-8717500I0J100000D01*
G01*
%TO.C,U2*%
X17007800Y-10917500D02*
X17007800Y-10792500D01*
X17007800Y-10792500D02*
X13947800Y-10792500D01*
X13947800Y-10792500D02*
X13947800Y-11242500D01*
X13947800Y-11242500D02*
X17007800Y-11242500D01*
X17007800Y-11242500D02*
X17007800Y-11117500D01*
X17013800Y-10492500D02*
X13941800Y-10492500D01*
X13941800Y-10492500D02*
X13941800Y-11542500D01*
X13941800Y-11542500D02*
X17013800Y-11542500D01*
X17013800Y-11542500D02*
X17013800Y-10492500D01*
X17007800Y-11117500D02*
G75*
G02*
X17007800Y-10917500I0J100000D01*
G01*
%TO.C,C1*%
X17362800Y-11273500D02*
X17362800Y-10749500D01*
X17636800Y-11273500D02*
X17636800Y-10749500D01*
X17362800Y-11273500D02*
X17636800Y-11273500D01*
X17362800Y-10749500D02*
X17636800Y-10749500D01*
%TO.C,C2*%
X16887800Y-8724500D02*
X17161800Y-8724500D01*
X16887800Y-9248500D02*
X17161800Y-9248500D01*
X17161800Y-9248500D02*
X17161800Y-8724500D01*
X16887800Y-9248500D02*
X16887800Y-8724500D01*
%TO.C,J1*%
X12441800Y-8303500D02*
X12441800Y-8569500D01*
X12701800Y-8303500D02*
X12441800Y-8303500D01*
X12701800Y-8569500D02*
X12441800Y-8569500D01*
X12701800Y-8303500D02*
X12701800Y-8569500D01*
X12828800Y-8303500D02*
X12961800Y-8303500D01*
X12961800Y-8303500D02*
X12961800Y-8436500D01*
%TO.C,U4*%
X17264800Y-8116500D02*
G75*
G03*
X17264800Y-8116500I-255000J0D01*
G01*
X17099800Y-8116500D02*
G75*
G03*
X17099800Y-8116500I-90000J0D01*
G01*
X16764800Y-8047500D02*
X13380800Y-8047500D01*
X13380800Y-8047500D02*
X13380800Y-9587500D01*
X13380800Y-9587500D02*
X17440800Y-9587500D01*
X17440800Y-9587500D02*
X17440800Y-8047500D01*
X17440800Y-8047500D02*
X17254800Y-8047500D01*
X17440800Y-8271500D02*
X17214800Y-8271500D01*
X16247800Y-7941500D02*
X16501800Y-7941500D01*
%TO.C,U5*%
X17764800Y-9916500D02*
G75*
G03*
X17764800Y-9916500I-255000J0D01*
G01*
X17599800Y-9916500D02*
G75*
G03*
X17599800Y-9916500I-90000J0D01*
G01*
X17264800Y-9843500D02*
X13390800Y-9843500D01*
X13390800Y-9843500D02*
X13390800Y-12153500D01*
X13390800Y-12153500D02*
X17940800Y-12153500D01*
X17940800Y-12153500D02*
X17940800Y-9843500D01*
X17940800Y-9843500D02*
X17754800Y-9843500D01*
X17940800Y-10071500D02*
X17714800Y-10071500D01*
X16747800Y-9741500D02*
X17001800Y-9741500D01*
%TO.C,C3*%
D11*
X11960514Y-8003167D02*
X11965276Y-8007928D01*
X11970038Y-8022214D01*
X11970038Y-8031738D01*
X11965276Y-8046024D01*
X11955752Y-8055548D01*
X11946228Y-8060309D01*
X11927181Y-8065071D01*
X11912895Y-8065071D01*
X11893848Y-8060309D01*
X11884324Y-8055548D01*
X11874800Y-8046024D01*
X11870038Y-8031738D01*
X11870038Y-8022214D01*
X11874800Y-8007928D01*
X11879562Y-8003167D01*
X11870038Y-7969833D02*
X11870038Y-7907928D01*
X11908133Y-7941262D01*
X11908133Y-7926976D01*
X11912895Y-7917452D01*
X11917657Y-7912690D01*
X11927181Y-7907928D01*
X11950990Y-7907928D01*
X11960514Y-7912690D01*
X11965276Y-7917452D01*
X11970038Y-7926976D01*
X11970038Y-7955548D01*
X11965276Y-7965071D01*
X11960514Y-7969833D01*
%TO.C,U3*%
X10620038Y-10437690D02*
X10700990Y-10437690D01*
X10710514Y-10432929D01*
X10715276Y-10428167D01*
X10720038Y-10418643D01*
X10720038Y-10399595D01*
X10715276Y-10390071D01*
X10710514Y-10385310D01*
X10700990Y-10380548D01*
X10620038Y-10380548D01*
X10620038Y-10342452D02*
X10620038Y-10280548D01*
X10658133Y-10313881D01*
X10658133Y-10299595D01*
X10662895Y-10290071D01*
X10667657Y-10285310D01*
X10677181Y-10280548D01*
X10700990Y-10280548D01*
X10710514Y-10285310D01*
X10715276Y-10290071D01*
X10720038Y-10299595D01*
X10720038Y-10328167D01*
X10715276Y-10337690D01*
X10710514Y-10342452D01*
X10570038Y-8974595D02*
X10670038Y-8941262D01*
X10570038Y-8907929D01*
X10570038Y-8855548D02*
X10570038Y-8836500D01*
X10574800Y-8826976D01*
X10584324Y-8817452D01*
X10603371Y-8812690D01*
X10636705Y-8812690D01*
X10655752Y-8817452D01*
X10665276Y-8826976D01*
X10670038Y-8836500D01*
X10670038Y-8855548D01*
X10665276Y-8865071D01*
X10655752Y-8874595D01*
X10636705Y-8879357D01*
X10603371Y-8879357D01*
X10584324Y-8874595D01*
X10574800Y-8865071D01*
X10570038Y-8855548D01*
X10570038Y-8769833D02*
X10650990Y-8769833D01*
X10660514Y-8765071D01*
X10665276Y-8760310D01*
X10670038Y-8750786D01*
X10670038Y-8731738D01*
X10665276Y-8722214D01*
X10660514Y-8717452D01*
X10650990Y-8712690D01*
X10570038Y-8712690D01*
X10570038Y-8679357D02*
X10570038Y-8622214D01*
X10670038Y-8650786D02*
X10570038Y-8650786D01*
X10631943Y-8588881D02*
X10631943Y-8512690D01*
X11870038Y-11907928D02*
X11970038Y-11874595D01*
X11870038Y-11841262D01*
X11970038Y-11807928D02*
X11870038Y-11807928D01*
X11970038Y-11760309D02*
X11870038Y-11760309D01*
X11970038Y-11703167D01*
X11870038Y-11703167D01*
X11931943Y-11655548D02*
X11931943Y-11579357D01*
X11970038Y-11617452D02*
X11893848Y-11617452D01*
X10570038Y-11907928D02*
X10670038Y-11874595D01*
X10570038Y-11841262D01*
X10670038Y-11807928D02*
X10570038Y-11807928D01*
X10670038Y-11760309D02*
X10570038Y-11760309D01*
X10670038Y-11703167D01*
X10570038Y-11703167D01*
X10631943Y-11655548D02*
X10631943Y-11579357D01*
X11870038Y-8974595D02*
X11970038Y-8941262D01*
X11870038Y-8907929D01*
X11870038Y-8855548D02*
X11870038Y-8836500D01*
X11874800Y-8826976D01*
X11884324Y-8817452D01*
X11903371Y-8812690D01*
X11936705Y-8812690D01*
X11955752Y-8817452D01*
X11965276Y-8826976D01*
X11970038Y-8836500D01*
X11970038Y-8855548D01*
X11965276Y-8865071D01*
X11955752Y-8874595D01*
X11936705Y-8879357D01*
X11903371Y-8879357D01*
X11884324Y-8874595D01*
X11874800Y-8865071D01*
X11870038Y-8855548D01*
X11870038Y-8769833D02*
X11950990Y-8769833D01*
X11960514Y-8765071D01*
X11965276Y-8760310D01*
X11970038Y-8750786D01*
X11970038Y-8731738D01*
X11965276Y-8722214D01*
X11960514Y-8717452D01*
X11950990Y-8712690D01*
X11870038Y-8712690D01*
X11870038Y-8679357D02*
X11870038Y-8622214D01*
X11970038Y-8650786D02*
X11870038Y-8650786D01*
X11931943Y-8588881D02*
X11931943Y-8512690D01*
X11970038Y-8550786D02*
X11893848Y-8550786D01*
%TO.C,R1*%
X12739133Y-11756738D02*
X12705800Y-11709119D01*
X12681990Y-11756738D02*
X12681990Y-11656738D01*
X12720086Y-11656738D01*
X12729609Y-11661500D01*
X12734371Y-11666262D01*
X12739133Y-11675786D01*
X12739133Y-11690071D01*
X12734371Y-11699595D01*
X12729609Y-11704357D01*
X12720086Y-11709119D01*
X12681990Y-11709119D01*
X12834371Y-11756738D02*
X12777228Y-11756738D01*
X12805800Y-11756738D02*
X12805800Y-11656738D01*
X12796276Y-11671024D01*
X12786752Y-11680548D01*
X12777228Y-11685309D01*
%TO.C,R2*%
X12739133Y-11456738D02*
X12705800Y-11409119D01*
X12681990Y-11456738D02*
X12681990Y-11356738D01*
X12720086Y-11356738D01*
X12729609Y-11361500D01*
X12734371Y-11366262D01*
X12739133Y-11375786D01*
X12739133Y-11390071D01*
X12734371Y-11399595D01*
X12729609Y-11404357D01*
X12720086Y-11409119D01*
X12681990Y-11409119D01*
X12777228Y-11366262D02*
X12781990Y-11361500D01*
X12791514Y-11356738D01*
X12815324Y-11356738D01*
X12824848Y-11361500D01*
X12829609Y-11366262D01*
X12834371Y-11375786D01*
X12834371Y-11385309D01*
X12829609Y-11399595D01*
X12772467Y-11456738D01*
X12834371Y-11456738D01*
%TO.C,R3*%
X12739133Y-11156738D02*
X12705800Y-11109119D01*
X12681990Y-11156738D02*
X12681990Y-11056738D01*
X12720086Y-11056738D01*
X12729609Y-11061500D01*
X12734371Y-11066262D01*
X12739133Y-11075786D01*
X12739133Y-11090071D01*
X12734371Y-11099595D01*
X12729609Y-11104357D01*
X12720086Y-11109119D01*
X12681990Y-11109119D01*
X12772467Y-11056738D02*
X12834371Y-11056738D01*
X12801038Y-11094833D01*
X12815324Y-11094833D01*
X12824848Y-11099595D01*
X12829609Y-11104357D01*
X12834371Y-11113881D01*
X12834371Y-11137690D01*
X12829609Y-11147214D01*
X12824848Y-11151976D01*
X12815324Y-11156738D01*
X12786752Y-11156738D01*
X12777228Y-11151976D01*
X12772467Y-11147214D01*
%TO.C,R4*%
X12739133Y-10856738D02*
X12705800Y-10809119D01*
X12681990Y-10856738D02*
X12681990Y-10756738D01*
X12720086Y-10756738D01*
X12729609Y-10761500D01*
X12734371Y-10766262D01*
X12739133Y-10775786D01*
X12739133Y-10790071D01*
X12734371Y-10799595D01*
X12729609Y-10804357D01*
X12720086Y-10809119D01*
X12681990Y-10809119D01*
X12824848Y-10790071D02*
X12824848Y-10856738D01*
X12801038Y-10751976D02*
X12777228Y-10823405D01*
X12839133Y-10823405D01*
%TO.C,R5*%
X12739133Y-10556738D02*
X12705800Y-10509119D01*
X12681990Y-10556738D02*
X12681990Y-10456738D01*
X12720086Y-10456738D01*
X12729609Y-10461500D01*
X12734371Y-10466262D01*
X12739133Y-10475786D01*
X12739133Y-10490071D01*
X12734371Y-10499595D01*
X12729609Y-10504357D01*
X12720086Y-10509119D01*
X12681990Y-10509119D01*
X12829609Y-10456738D02*
X12781990Y-10456738D01*
X12777228Y-10504357D01*
X12781990Y-10499595D01*
X12791514Y-10494833D01*
X12815324Y-10494833D01*
X12824848Y-10499595D01*
X12829609Y-10504357D01*
X12834371Y-10513881D01*
X12834371Y-10537690D01*
X12829609Y-10547214D01*
X12824848Y-10551976D01*
X12815324Y-10556738D01*
X12791514Y-10556738D01*
X12781990Y-10551976D01*
X12777228Y-10547214D01*
%TO.C,R6*%
X12739133Y-10256738D02*
X12705800Y-10209119D01*
X12681990Y-10256738D02*
X12681990Y-10156738D01*
X12720086Y-10156738D01*
X12729609Y-10161500D01*
X12734371Y-10166262D01*
X12739133Y-10175786D01*
X12739133Y-10190071D01*
X12734371Y-10199595D01*
X12729609Y-10204357D01*
X12720086Y-10209119D01*
X12681990Y-10209119D01*
X12824848Y-10156738D02*
X12805800Y-10156738D01*
X12796276Y-10161500D01*
X12791514Y-10166262D01*
X12781990Y-10180548D01*
X12777228Y-10199595D01*
X12777228Y-10237690D01*
X12781990Y-10247214D01*
X12786752Y-10251976D01*
X12796276Y-10256738D01*
X12815324Y-10256738D01*
X12824848Y-10251976D01*
X12829609Y-10247214D01*
X12834371Y-10237690D01*
X12834371Y-10213881D01*
X12829609Y-10204357D01*
X12824848Y-10199595D01*
X12815324Y-10194833D01*
X12796276Y-10194833D01*
X12786752Y-10199595D01*
X12781990Y-10204357D01*
X12777228Y-10213881D01*
%TO.C,R7*%
X12739133Y-9956738D02*
X12705800Y-9909119D01*
X12681990Y-9956738D02*
X12681990Y-9856738D01*
X12720086Y-9856738D01*
X12729609Y-9861500D01*
X12734371Y-9866262D01*
X12739133Y-9875786D01*
X12739133Y-9890071D01*
X12734371Y-9899595D01*
X12729609Y-9904357D01*
X12720086Y-9909119D01*
X12681990Y-9909119D01*
X12772467Y-9856738D02*
X12839133Y-9856738D01*
X12796276Y-9956738D01*
%TO.C,R8*%
X12739133Y-9656738D02*
X12705800Y-9609119D01*
X12681990Y-9656738D02*
X12681990Y-9556738D01*
X12720086Y-9556738D01*
X12729609Y-9561500D01*
X12734371Y-9566262D01*
X12739133Y-9575786D01*
X12739133Y-9590071D01*
X12734371Y-9599595D01*
X12729609Y-9604357D01*
X12720086Y-9609119D01*
X12681990Y-9609119D01*
X12796276Y-9599595D02*
X12786752Y-9594833D01*
X12781990Y-9590071D01*
X12777228Y-9580548D01*
X12777228Y-9575786D01*
X12781990Y-9566262D01*
X12786752Y-9561500D01*
X12796276Y-9556738D01*
X12815324Y-9556738D01*
X12824848Y-9561500D01*
X12829609Y-9566262D01*
X12834371Y-9575786D01*
X12834371Y-9580548D01*
X12829609Y-9590071D01*
X12824848Y-9594833D01*
X12815324Y-9599595D01*
X12796276Y-9599595D01*
X12786752Y-9604357D01*
X12781990Y-9609119D01*
X12777228Y-9618643D01*
X12777228Y-9637690D01*
X12781990Y-9647214D01*
X12786752Y-9651976D01*
X12796276Y-9656738D01*
X12815324Y-9656738D01*
X12824848Y-9651976D01*
X12829609Y-9647214D01*
X12834371Y-9637690D01*
X12834371Y-9618643D01*
X12829609Y-9609119D01*
X12824848Y-9604357D01*
X12815324Y-9599595D01*
%TO.C,R9*%
X12739133Y-9356738D02*
X12705800Y-9309119D01*
X12681990Y-9356738D02*
X12681990Y-9256738D01*
X12720086Y-9256738D01*
X12729609Y-9261500D01*
X12734371Y-9266262D01*
X12739133Y-9275786D01*
X12739133Y-9290071D01*
X12734371Y-9299595D01*
X12729609Y-9304357D01*
X12720086Y-9309119D01*
X12681990Y-9309119D01*
X12786752Y-9356738D02*
X12805800Y-9356738D01*
X12815324Y-9351976D01*
X12820086Y-9347214D01*
X12829609Y-9332929D01*
X12834371Y-9313881D01*
X12834371Y-9275786D01*
X12829609Y-9266262D01*
X12824848Y-9261500D01*
X12815324Y-9256738D01*
X12796276Y-9256738D01*
X12786752Y-9261500D01*
X12781990Y-9266262D01*
X12777228Y-9275786D01*
X12777228Y-9299595D01*
X12781990Y-9309119D01*
X12786752Y-9313881D01*
X12796276Y-9318643D01*
X12815324Y-9318643D01*
X12824848Y-9313881D01*
X12829609Y-9309119D01*
X12834371Y-9299595D01*
%TO.C,R10*%
X12691514Y-9056738D02*
X12658181Y-9009119D01*
X12634371Y-9056738D02*
X12634371Y-8956738D01*
X12672467Y-8956738D01*
X12681990Y-8961500D01*
X12686752Y-8966262D01*
X12691514Y-8975786D01*
X12691514Y-8990071D01*
X12686752Y-8999595D01*
X12681990Y-9004357D01*
X12672467Y-9009119D01*
X12634371Y-9009119D01*
X12786752Y-9056738D02*
X12729609Y-9056738D01*
X12758181Y-9056738D02*
X12758181Y-8956738D01*
X12748657Y-8971024D01*
X12739133Y-8980548D01*
X12729609Y-8985310D01*
X12848657Y-8956738D02*
X12858181Y-8956738D01*
X12867705Y-8961500D01*
X12872467Y-8966262D01*
X12877228Y-8975786D01*
X12881990Y-8994833D01*
X12881990Y-9018643D01*
X12877228Y-9037690D01*
X12872467Y-9047214D01*
X12867705Y-9051976D01*
X12858181Y-9056738D01*
X12848657Y-9056738D01*
X12839133Y-9051976D01*
X12834371Y-9047214D01*
X12829609Y-9037690D01*
X12824848Y-9018643D01*
X12824848Y-8994833D01*
X12829609Y-8975786D01*
X12834371Y-8966262D01*
X12839133Y-8961500D01*
X12848657Y-8956738D01*
%TO.C,U1*%
X15098609Y-8831738D02*
X15098609Y-8912690D01*
X15103371Y-8922214D01*
X15108133Y-8926976D01*
X15117657Y-8931738D01*
X15136705Y-8931738D01*
X15146228Y-8926976D01*
X15150990Y-8922214D01*
X15155752Y-8912690D01*
X15155752Y-8831738D01*
X15255752Y-8931738D02*
X15198609Y-8931738D01*
X15227181Y-8931738D02*
X15227181Y-8831738D01*
X15217657Y-8846024D01*
X15208133Y-8855548D01*
X15198609Y-8860310D01*
%TO.C,U2*%
X15348609Y-10981738D02*
X15348609Y-11062690D01*
X15353371Y-11072214D01*
X15358133Y-11076976D01*
X15367657Y-11081738D01*
X15386705Y-11081738D01*
X15396228Y-11076976D01*
X15400990Y-11072214D01*
X15405752Y-11062690D01*
X15405752Y-10981738D01*
X15448609Y-10991262D02*
X15453371Y-10986500D01*
X15462895Y-10981738D01*
X15486705Y-10981738D01*
X15496228Y-10986500D01*
X15500990Y-10991262D01*
X15505752Y-11000786D01*
X15505752Y-11010310D01*
X15500990Y-11024595D01*
X15443848Y-11081738D01*
X15505752Y-11081738D01*
%TO.C,C1*%
X17785514Y-11053167D02*
X17790276Y-11057929D01*
X17795038Y-11072214D01*
X17795038Y-11081738D01*
X17790276Y-11096024D01*
X17780752Y-11105548D01*
X17771229Y-11110310D01*
X17752181Y-11115071D01*
X17737895Y-11115071D01*
X17718848Y-11110310D01*
X17709324Y-11105548D01*
X17699800Y-11096024D01*
X17695038Y-11081738D01*
X17695038Y-11072214D01*
X17699800Y-11057929D01*
X17704562Y-11053167D01*
X17795038Y-10957929D02*
X17795038Y-11015071D01*
X17795038Y-10986500D02*
X17695038Y-10986500D01*
X17709324Y-10996024D01*
X17718848Y-11005548D01*
X17723610Y-11015071D01*
%TO.C,C2*%
X17260514Y-9003167D02*
X17265276Y-9007929D01*
X17270038Y-9022214D01*
X17270038Y-9031738D01*
X17265276Y-9046024D01*
X17255752Y-9055548D01*
X17246229Y-9060310D01*
X17227181Y-9065071D01*
X17212895Y-9065071D01*
X17193848Y-9060310D01*
X17184324Y-9055548D01*
X17174800Y-9046024D01*
X17170038Y-9031738D01*
X17170038Y-9022214D01*
X17174800Y-9007929D01*
X17179562Y-9003167D01*
X17179562Y-8965071D02*
X17174800Y-8960310D01*
X17170038Y-8950786D01*
X17170038Y-8926976D01*
X17174800Y-8917452D01*
X17179562Y-8912690D01*
X17189086Y-8907929D01*
X17198610Y-8907929D01*
X17212895Y-8912690D01*
X17270038Y-8969833D01*
X17270038Y-8907929D01*
%TD*%
M02*
