M48
; DRILL file {KiCad (5.1.10)-1} date 11/16/21 12:00:20
; FORMAT={-:-/ absolute / metric / decimal}
; #@! TF.CreationDate,2021-11-16T12:00:20-06:00
; #@! TF.GenerationSoftware,Kicad,Pcbnew,(5.1.10)-1
; #@! TF.FileFunction,Plated,1,2,PTH
FMAT,2
METRIC
T1C0.400
T2C0.600
T3C0.762
T4C0.800
T5C1.000
T6C1.016
T7C1.250
T8C3.048
%
G90
G05
T1
X106.772Y-84.077
X106.772Y-85.601
X106.772Y-87.125
X106.772Y-88.649
X106.772Y-115.065
X106.772Y-116.589
X106.772Y-118.113
X106.772Y-119.637
X107.748Y-89.865
X107.748Y-113.865
X109.498Y-89.865
X109.498Y-113.865
X111.248Y-89.865
X111.248Y-113.865
X112.36Y-84.077
X112.36Y-85.601
X112.36Y-87.125
X112.36Y-88.649
X112.36Y-115.065
X112.36Y-116.589
X112.36Y-118.113
X112.36Y-119.637
X132.248Y-80.615
X135.248Y-82.615
X135.748Y-113.115
X136.498Y-118.115
X144.748Y-78.365
X157.748Y-81.365
X159.748Y-81.865
X163.248Y-81.615
X166.748Y-90.865
X166.998Y-85.615
X167.498Y-109.865
X172.498Y-119.865
X172.748Y-97.115
X174.998Y-80.365
X177.998Y-104.115
T2
X120.748Y-78.865
X120.748Y-80.865
T3
X105.548Y-110.965
T4
X123.748Y-90.115
X123.748Y-93.115
X123.748Y-96.115
X123.748Y-99.115
X123.748Y-102.115
X123.748Y-105.115
X123.748Y-108.115
X123.748Y-111.115
X123.748Y-114.115
X123.748Y-117.115
X131.368Y-90.115
X131.368Y-93.115
X131.368Y-96.115
X131.368Y-99.115
X131.368Y-102.115
X131.368Y-105.115
X131.368Y-108.115
X131.368Y-111.115
X131.368Y-114.115
X131.368Y-117.115
X140.808Y-106.365
X140.808Y-113.985
X140.888Y-84.365
X140.888Y-91.985
X143.348Y-106.365
X143.348Y-113.985
X143.428Y-84.365
X143.428Y-91.985
X145.888Y-106.365
X145.888Y-113.985
X145.968Y-84.365
X145.968Y-91.985
X148.428Y-106.365
X148.428Y-113.985
X148.508Y-84.365
X148.508Y-91.985
X150.968Y-106.365
X150.968Y-113.985
X151.048Y-84.365
X151.048Y-91.985
X153.508Y-106.365
X153.508Y-113.985
X153.588Y-84.365
X153.588Y-91.985
X156.048Y-106.365
X156.048Y-113.985
X156.128Y-84.365
X156.128Y-91.985
X158.588Y-106.365
X158.588Y-113.985
X158.668Y-84.365
X158.668Y-91.985
X161.128Y-106.365
X161.128Y-113.985
X161.208Y-84.365
X161.208Y-91.985
X163.668Y-106.365
X163.668Y-113.985
X163.748Y-84.365
X163.748Y-91.985
X166.208Y-106.365
X166.208Y-113.985
X168.748Y-106.365
X168.748Y-113.985
X170.248Y-88.615
X170.248Y-91.115
X174.998Y-108.865
X174.998Y-111.365
T5
X125.748Y-84.365
X128.288Y-84.365
X140.808Y-102.365
X140.808Y-117.605
X140.888Y-84.365
X140.888Y-91.985
X143.348Y-102.365
X143.348Y-117.605
X143.428Y-84.365
X143.428Y-91.985
X145.888Y-102.365
X145.888Y-117.605
X145.968Y-84.365
X145.968Y-91.985
X148.428Y-102.365
X148.428Y-117.605
X148.508Y-84.365
X148.508Y-91.985
X150.968Y-102.365
X150.968Y-117.605
X151.048Y-84.365
X151.048Y-91.985
X153.508Y-102.365
X153.508Y-117.605
X153.588Y-84.365
X153.588Y-91.985
X156.048Y-102.365
X156.048Y-117.605
X156.128Y-84.365
X156.128Y-91.985
X158.588Y-102.365
X158.588Y-117.605
X158.668Y-84.365
X158.668Y-91.985
X161.128Y-102.365
X161.128Y-117.605
X161.208Y-84.365
X161.208Y-91.985
X163.668Y-102.365
X163.668Y-117.605
X163.748Y-84.365
X163.748Y-91.985
X166.208Y-102.365
X166.208Y-117.605
X168.748Y-102.365
X168.748Y-117.605
T6
X129.794Y-75.565
X132.334Y-75.565
X134.874Y-75.565
X137.414Y-75.565
X138.938Y-123.825
X139.954Y-75.565
X141.478Y-123.825
X142.494Y-75.565
X144.018Y-123.825
X145.034Y-75.565
X146.558Y-123.825
X147.574Y-75.565
X149.098Y-123.825
X150.114Y-75.565
X151.638Y-123.825
X152.654Y-75.565
X154.178Y-123.825
X156.718Y-75.565
X156.718Y-123.825
X159.258Y-75.565
X161.798Y-75.565
X161.798Y-123.825
X164.338Y-75.565
X164.338Y-123.825
X166.878Y-75.565
X166.878Y-123.825
X169.418Y-75.565
X169.418Y-123.825
X171.958Y-75.565
X171.958Y-123.825
X174.498Y-75.565
X174.498Y-123.825
T7
X109.498Y-86.365
X109.498Y-117.365
X115.948Y-117.365
X115.998Y-86.365
T8
X124.968Y-123.825
X126.238Y-75.565
X177.038Y-90.805
X177.038Y-118.745
T0
M30
