%TF.GenerationSoftware,KiCad,Pcbnew,(5.1.10)-1*%
%TF.CreationDate,2021-11-16T12:00:15-06:00*%
%TF.ProjectId,GAL_Programmer,47414c5f-5072-46f6-9772-616d6d65722e,rev?*%
%TF.SameCoordinates,Original*%
%TF.FileFunction,Legend,Bot*%
%TF.FilePolarity,Positive*%
%FSLAX45Y45*%
G04 Gerber Fmt 4.5, Leading zero omitted, Abs format (unit mm)*
G04 Created by KiCad (PCBNEW (5.1.10)-1) date 2021-11-16 12:00:15*
%MOMM*%
%LPD*%
G01*
G04 APERTURE LIST*
%ADD10C,0.300000*%
%ADD11C,0.010000*%
G04 APERTURE END LIST*
D10*
X12130752Y-12551976D02*
X12130752Y-12351976D01*
X12016467Y-12551976D01*
X12016467Y-12351976D01*
X11892657Y-12551976D02*
X11911705Y-12542452D01*
X11921228Y-12532928D01*
X11930752Y-12513881D01*
X11930752Y-12456738D01*
X11921228Y-12437690D01*
X11911705Y-12428167D01*
X11892657Y-12418643D01*
X11864086Y-12418643D01*
X11845038Y-12428167D01*
X11835514Y-12437690D01*
X11825990Y-12456738D01*
X11825990Y-12513881D01*
X11835514Y-12532928D01*
X11845038Y-12542452D01*
X11864086Y-12551976D01*
X11892657Y-12551976D01*
X11759324Y-12418643D02*
X11711705Y-12551976D01*
X11664086Y-12418643D01*
X11445038Y-12371024D02*
X11435514Y-12361500D01*
X11416467Y-12351976D01*
X11368848Y-12351976D01*
X11349800Y-12361500D01*
X11340276Y-12371024D01*
X11330752Y-12390071D01*
X11330752Y-12409119D01*
X11340276Y-12437690D01*
X11454562Y-12551976D01*
X11330752Y-12551976D01*
X11206943Y-12351976D02*
X11187895Y-12351976D01*
X11168848Y-12361500D01*
X11159324Y-12371024D01*
X11149800Y-12390071D01*
X11140276Y-12428167D01*
X11140276Y-12475786D01*
X11149800Y-12513881D01*
X11159324Y-12532928D01*
X11168848Y-12542452D01*
X11187895Y-12551976D01*
X11206943Y-12551976D01*
X11225990Y-12542452D01*
X11235514Y-12532928D01*
X11245038Y-12513881D01*
X11254562Y-12475786D01*
X11254562Y-12428167D01*
X11245038Y-12390071D01*
X11235514Y-12371024D01*
X11225990Y-12361500D01*
X11206943Y-12351976D01*
X11064086Y-12371024D02*
X11054562Y-12361500D01*
X11035514Y-12351976D01*
X10987895Y-12351976D01*
X10968848Y-12361500D01*
X10959324Y-12371024D01*
X10949800Y-12390071D01*
X10949800Y-12409119D01*
X10959324Y-12437690D01*
X11073610Y-12551976D01*
X10949800Y-12551976D01*
X10759324Y-12551976D02*
X10873610Y-12551976D01*
X10816467Y-12551976D02*
X10816467Y-12351976D01*
X10835514Y-12380548D01*
X10854562Y-12399595D01*
X10873610Y-12409119D01*
D11*
%TO.C,G\u002A\u002A\u002A*%
G36*
X12687429Y-10020600D02*
G01*
X12689243Y-10022414D01*
X12691057Y-10020600D01*
X12689243Y-10018786D01*
X12687429Y-10020600D01*
G37*
X12687429Y-10020600D02*
X12689243Y-10022414D01*
X12691057Y-10020600D01*
X12689243Y-10018786D01*
X12687429Y-10020600D01*
G36*
X11306081Y-9193815D02*
G01*
X11306757Y-9195100D01*
X11310176Y-9198565D01*
X11310814Y-9198729D01*
X11311062Y-9196385D01*
X11310386Y-9195100D01*
X11306967Y-9191635D01*
X11306329Y-9191471D01*
X11306081Y-9193815D01*
G37*
X11306081Y-9193815D02*
X11306757Y-9195100D01*
X11310176Y-9198565D01*
X11310814Y-9198729D01*
X11311062Y-9196385D01*
X11310386Y-9195100D01*
X11306967Y-9191635D01*
X11306329Y-9191471D01*
X11306081Y-9193815D01*
G36*
X13121367Y-9344396D02*
G01*
X13125357Y-9346543D01*
X13131668Y-9347560D01*
X13136590Y-9347052D01*
X13137371Y-9346109D01*
X13134292Y-9344473D01*
X13128410Y-9343004D01*
X13122446Y-9342750D01*
X13121367Y-9344396D01*
G37*
X13121367Y-9344396D02*
X13125357Y-9346543D01*
X13131668Y-9347560D01*
X13136590Y-9347052D01*
X13137371Y-9346109D01*
X13134292Y-9344473D01*
X13128410Y-9343004D01*
X13122446Y-9342750D01*
X13121367Y-9344396D01*
G36*
X13264371Y-9363829D02*
G01*
X13260910Y-9367089D01*
X13260743Y-9367671D01*
X13263550Y-9369230D01*
X13264371Y-9369271D01*
X13267861Y-9366482D01*
X13268000Y-9365429D01*
X13265777Y-9363262D01*
X13264371Y-9363829D01*
G37*
X13264371Y-9363829D02*
X13260910Y-9367089D01*
X13260743Y-9367671D01*
X13263550Y-9369230D01*
X13264371Y-9369271D01*
X13267861Y-9366482D01*
X13268000Y-9365429D01*
X13265777Y-9363262D01*
X13264371Y-9363829D01*
G36*
X13281048Y-9369692D02*
G01*
X13280096Y-9370978D01*
X13286321Y-9373169D01*
X13290679Y-9374273D01*
X13298150Y-9374939D01*
X13300657Y-9372969D01*
X13297491Y-9370427D01*
X13289806Y-9369277D01*
X13289167Y-9369271D01*
X13281048Y-9369692D01*
G37*
X13281048Y-9369692D02*
X13280096Y-9370978D01*
X13286321Y-9373169D01*
X13290679Y-9374273D01*
X13298150Y-9374939D01*
X13300657Y-9372969D01*
X13297491Y-9370427D01*
X13289806Y-9369277D01*
X13289167Y-9369271D01*
X13281048Y-9369692D01*
G36*
X13322429Y-9378343D02*
G01*
X13324243Y-9380157D01*
X13326057Y-9378343D01*
X13324243Y-9376529D01*
X13322429Y-9378343D01*
G37*
X13322429Y-9378343D02*
X13324243Y-9380157D01*
X13326057Y-9378343D01*
X13324243Y-9376529D01*
X13322429Y-9378343D01*
G36*
X12249510Y-9386130D02*
G01*
X12250186Y-9387414D01*
X12253605Y-9390880D01*
X12254243Y-9391043D01*
X12254490Y-9388699D01*
X12253814Y-9387414D01*
X12250395Y-9383949D01*
X12249757Y-9383786D01*
X12249510Y-9386130D01*
G37*
X12249510Y-9386130D02*
X12250186Y-9387414D01*
X12253605Y-9390880D01*
X12254243Y-9391043D01*
X12254490Y-9388699D01*
X12253814Y-9387414D01*
X12250395Y-9383949D01*
X12249757Y-9383786D01*
X12249510Y-9386130D01*
G36*
X12274667Y-9414675D02*
G01*
X12278567Y-9421463D01*
X12279034Y-9422099D01*
X12282819Y-9426819D01*
X12283267Y-9425325D01*
X12282224Y-9420922D01*
X12279342Y-9413652D01*
X12276962Y-9410729D01*
X12274026Y-9410514D01*
X12274667Y-9414675D01*
G37*
X12274667Y-9414675D02*
X12278567Y-9421463D01*
X12279034Y-9422099D01*
X12282819Y-9426819D01*
X12283267Y-9425325D01*
X12282224Y-9420922D01*
X12279342Y-9413652D01*
X12276962Y-9410729D01*
X12274026Y-9410514D01*
X12274667Y-9414675D01*
G36*
X12670495Y-9439424D02*
G01*
X12670061Y-9443730D01*
X12670495Y-9444262D01*
X12672652Y-9443764D01*
X12672914Y-9441843D01*
X12671587Y-9438856D01*
X12670495Y-9439424D01*
G37*
X12670495Y-9439424D02*
X12670061Y-9443730D01*
X12670495Y-9444262D01*
X12672652Y-9443764D01*
X12672914Y-9441843D01*
X12671587Y-9438856D01*
X12670495Y-9439424D01*
G36*
X12296681Y-9451444D02*
G01*
X12297357Y-9452729D01*
X12300776Y-9456194D01*
X12301414Y-9456357D01*
X12301662Y-9454013D01*
X12300986Y-9452729D01*
X12297567Y-9449263D01*
X12296929Y-9449100D01*
X12296681Y-9451444D01*
G37*
X12296681Y-9451444D02*
X12297357Y-9452729D01*
X12300776Y-9456194D01*
X12301414Y-9456357D01*
X12301662Y-9454013D01*
X12300986Y-9452729D01*
X12297567Y-9449263D01*
X12296929Y-9449100D01*
X12296681Y-9451444D01*
G36*
X12674124Y-9450310D02*
G01*
X12673689Y-9454616D01*
X12674124Y-9455148D01*
X12676281Y-9454650D01*
X12676543Y-9452729D01*
X12675215Y-9449742D01*
X12674124Y-9450310D01*
G37*
X12674124Y-9450310D02*
X12673689Y-9454616D01*
X12674124Y-9455148D01*
X12676281Y-9454650D01*
X12676543Y-9452729D01*
X12675215Y-9449742D01*
X12674124Y-9450310D01*
G36*
X12676543Y-9465429D02*
G01*
X12678357Y-9467243D01*
X12680171Y-9465429D01*
X12678357Y-9463614D01*
X12676543Y-9465429D01*
G37*
X12676543Y-9465429D02*
X12678357Y-9467243D01*
X12680171Y-9465429D01*
X12678357Y-9463614D01*
X12676543Y-9465429D01*
G36*
X12308495Y-9459269D02*
G01*
X12308844Y-9464465D01*
X12311037Y-9471905D01*
X12314488Y-9479414D01*
X12317360Y-9483571D01*
X12323283Y-9492282D01*
X12326109Y-9498665D01*
X12329327Y-9505449D01*
X12333669Y-9510845D01*
X12337475Y-9513258D01*
X12339086Y-9511143D01*
X12337152Y-9506131D01*
X12332128Y-9497320D01*
X12326386Y-9488520D01*
X12319654Y-9477996D01*
X12315049Y-9469385D01*
X12313686Y-9465236D01*
X12311664Y-9459469D01*
X12310581Y-9458495D01*
X12308495Y-9459269D01*
G37*
X12308495Y-9459269D02*
X12308844Y-9464465D01*
X12311037Y-9471905D01*
X12314488Y-9479414D01*
X12317360Y-9483571D01*
X12323283Y-9492282D01*
X12326109Y-9498665D01*
X12329327Y-9505449D01*
X12333669Y-9510845D01*
X12337475Y-9513258D01*
X12339086Y-9511143D01*
X12337152Y-9506131D01*
X12332128Y-9497320D01*
X12326386Y-9488520D01*
X12319654Y-9477996D01*
X12315049Y-9469385D01*
X12313686Y-9465236D01*
X12311664Y-9459469D01*
X12310581Y-9458495D01*
X12308495Y-9459269D01*
G36*
X12353802Y-9538456D02*
G01*
X12354999Y-9541704D01*
X12360082Y-9547509D01*
X12360674Y-9548079D01*
X12369160Y-9556143D01*
X12362287Y-9546520D01*
X12357192Y-9540406D01*
X12353956Y-9538361D01*
X12353802Y-9538456D01*
G37*
X12353802Y-9538456D02*
X12354999Y-9541704D01*
X12360082Y-9547509D01*
X12360674Y-9548079D01*
X12369160Y-9556143D01*
X12362287Y-9546520D01*
X12357192Y-9540406D01*
X12353956Y-9538361D01*
X12353802Y-9538456D01*
G36*
X12121951Y-9531782D02*
G01*
X12121881Y-9536186D01*
X12123157Y-9546462D01*
X12125000Y-9552514D01*
X12127277Y-9557070D01*
X12128048Y-9555104D01*
X12128118Y-9550700D01*
X12126842Y-9540424D01*
X12125000Y-9534371D01*
X12122723Y-9529816D01*
X12121951Y-9531782D01*
G37*
X12121951Y-9531782D02*
X12121881Y-9536186D01*
X12123157Y-9546462D01*
X12125000Y-9552514D01*
X12127277Y-9557070D01*
X12128048Y-9555104D01*
X12128118Y-9550700D01*
X12126842Y-9540424D01*
X12125000Y-9534371D01*
X12122723Y-9529816D01*
X12121951Y-9531782D01*
G36*
X12121371Y-9643229D02*
G01*
X12123186Y-9645043D01*
X12125000Y-9643229D01*
X12123186Y-9641414D01*
X12121371Y-9643229D01*
G37*
X12121371Y-9643229D02*
X12123186Y-9645043D01*
X12125000Y-9643229D01*
X12123186Y-9641414D01*
X12121371Y-9643229D01*
G36*
X12135886Y-9744829D02*
G01*
X12137700Y-9746643D01*
X12139514Y-9744829D01*
X12137700Y-9743014D01*
X12135886Y-9744829D01*
G37*
X12135886Y-9744829D02*
X12137700Y-9746643D01*
X12139514Y-9744829D01*
X12137700Y-9743014D01*
X12135886Y-9744829D01*
G36*
X13220829Y-9792000D02*
G01*
X13222643Y-9793814D01*
X13224457Y-9792000D01*
X13222643Y-9790186D01*
X13220829Y-9792000D01*
G37*
X13220829Y-9792000D02*
X13222643Y-9793814D01*
X13224457Y-9792000D01*
X13222643Y-9790186D01*
X13220829Y-9792000D01*
G36*
X14056186Y-9744829D02*
G01*
X14053876Y-9749617D01*
X14050790Y-9758842D01*
X14047508Y-9770313D01*
X14044613Y-9781840D01*
X14042686Y-9791233D01*
X14042308Y-9796303D01*
X14042448Y-9796586D01*
X14044335Y-9794328D01*
X14047672Y-9787278D01*
X14049015Y-9783986D01*
X14052735Y-9773110D01*
X14055675Y-9762004D01*
X14057520Y-9752377D01*
X14057958Y-9745940D01*
X14056676Y-9744399D01*
X14056186Y-9744829D01*
G37*
X14056186Y-9744829D02*
X14053876Y-9749617D01*
X14050790Y-9758842D01*
X14047508Y-9770313D01*
X14044613Y-9781840D01*
X14042686Y-9791233D01*
X14042308Y-9796303D01*
X14042448Y-9796586D01*
X14044335Y-9794328D01*
X14047672Y-9787278D01*
X14049015Y-9783986D01*
X14052735Y-9773110D01*
X14055675Y-9762004D01*
X14057520Y-9752377D01*
X14057958Y-9745940D01*
X14056676Y-9744399D01*
X14056186Y-9744829D01*
G36*
X15020880Y-9799423D02*
G01*
X15020600Y-9800643D01*
X15023248Y-9805773D01*
X15024229Y-9806514D01*
X15027578Y-9806348D01*
X15027857Y-9805128D01*
X15025209Y-9799999D01*
X15024229Y-9799257D01*
X15020880Y-9799423D01*
G37*
X15020880Y-9799423D02*
X15020600Y-9800643D01*
X15023248Y-9805773D01*
X15024229Y-9806514D01*
X15027578Y-9806348D01*
X15027857Y-9805128D01*
X15025209Y-9799999D01*
X15024229Y-9799257D01*
X15020880Y-9799423D01*
G36*
X14038407Y-9804020D02*
G01*
X14037974Y-9809691D01*
X14038693Y-9810974D01*
X14040343Y-9809892D01*
X14040599Y-9806212D01*
X14039713Y-9802340D01*
X14038407Y-9804020D01*
G37*
X14038407Y-9804020D02*
X14037974Y-9809691D01*
X14038693Y-9810974D01*
X14040343Y-9809892D01*
X14040599Y-9806212D01*
X14039713Y-9802340D01*
X14038407Y-9804020D01*
G36*
X14023952Y-9853081D02*
G01*
X14023518Y-9857387D01*
X14023952Y-9857919D01*
X14026110Y-9857421D01*
X14026371Y-9855500D01*
X14025044Y-9852513D01*
X14023952Y-9853081D01*
G37*
X14023952Y-9853081D02*
X14023518Y-9857387D01*
X14023952Y-9857919D01*
X14026110Y-9857421D01*
X14026371Y-9855500D01*
X14025044Y-9852513D01*
X14023952Y-9853081D01*
G36*
X14441637Y-9850667D02*
G01*
X14442273Y-9853497D01*
X14445201Y-9858605D01*
X14447094Y-9857749D01*
X14447286Y-9855714D01*
X14444650Y-9850794D01*
X14443699Y-9850083D01*
X14441637Y-9850667D01*
G37*
X14441637Y-9850667D02*
X14442273Y-9853497D01*
X14445201Y-9858605D01*
X14447094Y-9857749D01*
X14447286Y-9855714D01*
X14444650Y-9850794D01*
X14443699Y-9850083D01*
X14441637Y-9850667D01*
G36*
X15448771Y-9987943D02*
G01*
X15450586Y-9989757D01*
X15452400Y-9987943D01*
X15450586Y-9986129D01*
X15448771Y-9987943D01*
G37*
X15448771Y-9987943D02*
X15450586Y-9989757D01*
X15452400Y-9987943D01*
X15450586Y-9986129D01*
X15448771Y-9987943D01*
G36*
X14018846Y-9872239D02*
G01*
X14015607Y-9880416D01*
X14011956Y-9891776D01*
X14007924Y-9906788D01*
X14003780Y-9924101D01*
X13999794Y-9942363D01*
X13996238Y-9960223D01*
X13993381Y-9976329D01*
X13991493Y-9989331D01*
X13990845Y-9997877D01*
X13991565Y-10000643D01*
X13993480Y-9997520D01*
X13996648Y-9989543D01*
X13998752Y-9983407D01*
X14001639Y-9972838D01*
X14005186Y-9957308D01*
X14008915Y-9939022D01*
X14011928Y-9922629D01*
X14015024Y-9904833D01*
X14017807Y-9888922D01*
X14019964Y-9876673D01*
X14021157Y-9870014D01*
X14020975Y-9868148D01*
X14018846Y-9872239D01*
G37*
X14018846Y-9872239D02*
X14015607Y-9880416D01*
X14011956Y-9891776D01*
X14007924Y-9906788D01*
X14003780Y-9924101D01*
X13999794Y-9942363D01*
X13996238Y-9960223D01*
X13993381Y-9976329D01*
X13991493Y-9989331D01*
X13990845Y-9997877D01*
X13991565Y-10000643D01*
X13993480Y-9997520D01*
X13996648Y-9989543D01*
X13998752Y-9983407D01*
X14001639Y-9972838D01*
X14005186Y-9957308D01*
X14008915Y-9939022D01*
X14011928Y-9922629D01*
X14015024Y-9904833D01*
X14017807Y-9888922D01*
X14019964Y-9876673D01*
X14021157Y-9870014D01*
X14020975Y-9868148D01*
X14018846Y-9872239D01*
G36*
X16912898Y-10003191D02*
G01*
X16915642Y-10008348D01*
X16920991Y-10015675D01*
X16927528Y-10023546D01*
X16933836Y-10030337D01*
X16938497Y-10034421D01*
X16940114Y-10034418D01*
X16937720Y-10030001D01*
X16930577Y-10020237D01*
X16918750Y-10005211D01*
X16917995Y-10004271D01*
X16913137Y-9998493D01*
X16911769Y-9998245D01*
X16912898Y-10003191D01*
G37*
X16912898Y-10003191D02*
X16915642Y-10008348D01*
X16920991Y-10015675D01*
X16927528Y-10023546D01*
X16933836Y-10030337D01*
X16938497Y-10034421D01*
X16940114Y-10034418D01*
X16937720Y-10030001D01*
X16930577Y-10020237D01*
X16918750Y-10005211D01*
X16917995Y-10004271D01*
X16913137Y-9998493D01*
X16911769Y-9998245D01*
X16912898Y-10003191D01*
G36*
X12156182Y-10035383D02*
G01*
X12155183Y-10043017D01*
X12154848Y-10051366D01*
X12155346Y-10057416D01*
X12156145Y-10058693D01*
X12158442Y-10056701D01*
X12158867Y-10056281D01*
X12160734Y-10051473D01*
X12161318Y-10043973D01*
X12160749Y-10036504D01*
X12159157Y-10031793D01*
X12157675Y-10031475D01*
X12156182Y-10035383D01*
G37*
X12156182Y-10035383D02*
X12155183Y-10043017D01*
X12154848Y-10051366D01*
X12155346Y-10057416D01*
X12156145Y-10058693D01*
X12158442Y-10056701D01*
X12158867Y-10056281D01*
X12160734Y-10051473D01*
X12161318Y-10043973D01*
X12160749Y-10036504D01*
X12159157Y-10031793D01*
X12157675Y-10031475D01*
X12156182Y-10035383D01*
G36*
X16301486Y-10100429D02*
G01*
X16303300Y-10102243D01*
X16305114Y-10100429D01*
X16303300Y-10098614D01*
X16301486Y-10100429D01*
G37*
X16301486Y-10100429D02*
X16303300Y-10102243D01*
X16305114Y-10100429D01*
X16303300Y-10098614D01*
X16301486Y-10100429D01*
G36*
X16941437Y-10046214D02*
G01*
X16942836Y-10047808D01*
X16946600Y-10055537D01*
X16947371Y-10060796D01*
X16949739Y-10069270D01*
X16952814Y-10073214D01*
X16957473Y-10080406D01*
X16958257Y-10084594D01*
X16959979Y-10093803D01*
X16961621Y-10097756D01*
X16965690Y-10106035D01*
X16967206Y-10109500D01*
X16971737Y-10119161D01*
X16976029Y-10126061D01*
X16979086Y-10128824D01*
X16979975Y-10127180D01*
X16977432Y-10119774D01*
X16975277Y-10117331D01*
X16971643Y-10111727D01*
X16967598Y-10101759D01*
X16965514Y-10094986D01*
X16961779Y-10083724D01*
X16957761Y-10075236D01*
X16955752Y-10072641D01*
X16951905Y-10066056D01*
X16951000Y-10060514D01*
X16948325Y-10051827D01*
X16944650Y-10047526D01*
X16940453Y-10044559D01*
X16941437Y-10046214D01*
G37*
X16941437Y-10046214D02*
X16942836Y-10047808D01*
X16946600Y-10055537D01*
X16947371Y-10060796D01*
X16949739Y-10069270D01*
X16952814Y-10073214D01*
X16957473Y-10080406D01*
X16958257Y-10084594D01*
X16959979Y-10093803D01*
X16961621Y-10097756D01*
X16965690Y-10106035D01*
X16967206Y-10109500D01*
X16971737Y-10119161D01*
X16976029Y-10126061D01*
X16979086Y-10128824D01*
X16979975Y-10127180D01*
X16977432Y-10119774D01*
X16975277Y-10117331D01*
X16971643Y-10111727D01*
X16967598Y-10101759D01*
X16965514Y-10094986D01*
X16961779Y-10083724D01*
X16957761Y-10075236D01*
X16955752Y-10072641D01*
X16951905Y-10066056D01*
X16951000Y-10060514D01*
X16948325Y-10051827D01*
X16944650Y-10047526D01*
X16940453Y-10044559D01*
X16941437Y-10046214D01*
G36*
X16980029Y-10136714D02*
G01*
X16981843Y-10138529D01*
X16983657Y-10136714D01*
X16981843Y-10134900D01*
X16980029Y-10136714D01*
G37*
X16980029Y-10136714D02*
X16981843Y-10138529D01*
X16983657Y-10136714D01*
X16981843Y-10134900D01*
X16980029Y-10136714D01*
G36*
X11261433Y-9037217D02*
G01*
X11263184Y-9040237D01*
X11269360Y-9044555D01*
X11279199Y-9049675D01*
X11291943Y-9055105D01*
X11306832Y-9060349D01*
X11312922Y-9062199D01*
X11324459Y-9066074D01*
X11332999Y-9069920D01*
X11336116Y-9072264D01*
X11336443Y-9074339D01*
X11333593Y-9075001D01*
X11326887Y-9074103D01*
X11315649Y-9071500D01*
X11299199Y-9067044D01*
X11276859Y-9060590D01*
X11263129Y-9056526D01*
X11208615Y-9040304D01*
X11199284Y-9049771D01*
X11192137Y-9060418D01*
X11188038Y-9073373D01*
X11187283Y-9086261D01*
X11190164Y-9096704D01*
X11193042Y-9100251D01*
X11200431Y-9106815D01*
X11209270Y-9115069D01*
X11210425Y-9116178D01*
X11218959Y-9122585D01*
X11232919Y-9131002D01*
X11250975Y-9140787D01*
X11271795Y-9151299D01*
X11294050Y-9161897D01*
X11316409Y-9171940D01*
X11337542Y-9180788D01*
X11356119Y-9187798D01*
X11365211Y-9190773D01*
X11385158Y-9196848D01*
X11407978Y-9203909D01*
X11432723Y-9211652D01*
X11458449Y-9219772D01*
X11484210Y-9227967D01*
X11509059Y-9235932D01*
X11532050Y-9243365D01*
X11552238Y-9249960D01*
X11568677Y-9255416D01*
X11580422Y-9259428D01*
X11586525Y-9261692D01*
X11587159Y-9262021D01*
X11588241Y-9264281D01*
X11585075Y-9264837D01*
X11577277Y-9263590D01*
X11564461Y-9260438D01*
X11546243Y-9255279D01*
X11522236Y-9248011D01*
X11492057Y-9238534D01*
X11464600Y-9229741D01*
X11434756Y-9220665D01*
X11406537Y-9213110D01*
X11380706Y-9207198D01*
X11358026Y-9203049D01*
X11339260Y-9200785D01*
X11325171Y-9200527D01*
X11316521Y-9202395D01*
X11314014Y-9205838D01*
X11317168Y-9208890D01*
X11325913Y-9214298D01*
X11339172Y-9221548D01*
X11355872Y-9230128D01*
X11374935Y-9239526D01*
X11395286Y-9249228D01*
X11415849Y-9258721D01*
X11435550Y-9267495D01*
X11453311Y-9275034D01*
X11468058Y-9280828D01*
X11478715Y-9284362D01*
X11478824Y-9284392D01*
X11492763Y-9288746D01*
X11506103Y-9293882D01*
X11511481Y-9296389D01*
X11523540Y-9302254D01*
X11537043Y-9308320D01*
X11539914Y-9309535D01*
X11550206Y-9314504D01*
X11557853Y-9319407D01*
X11559500Y-9320957D01*
X11561171Y-9326359D01*
X11562901Y-9338041D01*
X11564587Y-9355030D01*
X11566123Y-9376352D01*
X11566901Y-9390246D01*
X11568103Y-9413048D01*
X11569353Y-9435114D01*
X11570543Y-9454684D01*
X11571568Y-9469996D01*
X11572130Y-9477221D01*
X11573064Y-9489567D01*
X11572797Y-9496351D01*
X11570821Y-9499238D01*
X11566622Y-9499891D01*
X11565164Y-9499900D01*
X11556132Y-9498690D01*
X11544457Y-9495668D01*
X11540800Y-9494457D01*
X11527366Y-9491102D01*
X11512004Y-9489159D01*
X11506779Y-9488968D01*
X11496009Y-9487975D01*
X11481381Y-9485352D01*
X11464690Y-9481576D01*
X11447733Y-9477122D01*
X11432307Y-9472466D01*
X11420207Y-9468084D01*
X11413231Y-9464452D01*
X11412811Y-9464076D01*
X11411277Y-9460692D01*
X11416350Y-9460232D01*
X11427993Y-9462692D01*
X11443412Y-9467196D01*
X11456399Y-9470946D01*
X11467444Y-9473570D01*
X11473572Y-9474453D01*
X11478578Y-9474225D01*
X11477589Y-9472429D01*
X11473572Y-9469599D01*
X11470766Y-9467746D01*
X11467730Y-9466143D01*
X11463483Y-9464522D01*
X11457042Y-9462615D01*
X11447427Y-9460156D01*
X11433656Y-9456877D01*
X11414747Y-9452511D01*
X11390453Y-9446958D01*
X11366084Y-9441487D01*
X11347658Y-9437726D01*
X11334065Y-9435670D01*
X11324197Y-9435316D01*
X11316944Y-9436662D01*
X11311197Y-9439703D01*
X11305846Y-9444437D01*
X11303673Y-9446692D01*
X11290204Y-9461711D01*
X11279325Y-9475324D01*
X11271880Y-9486380D01*
X11268712Y-9493732D01*
X11268657Y-9494421D01*
X11272145Y-9514855D01*
X11282350Y-9535909D01*
X11295095Y-9552629D01*
X11304315Y-9563233D01*
X11309205Y-9569916D01*
X11310412Y-9574034D01*
X11308585Y-9576945D01*
X11307231Y-9578016D01*
X11303440Y-9581681D01*
X11304571Y-9584361D01*
X11311454Y-9586690D01*
X11321103Y-9588626D01*
X11335790Y-9592540D01*
X11349309Y-9598332D01*
X11360288Y-9605112D01*
X11367357Y-9611993D01*
X11369143Y-9618086D01*
X11368587Y-9619409D01*
X11367570Y-9624581D01*
X11370965Y-9630498D01*
X11379298Y-9637563D01*
X11393095Y-9646178D01*
X11412882Y-9656746D01*
X11425745Y-9663162D01*
X11456356Y-9677398D01*
X11483084Y-9688040D01*
X11507862Y-9695836D01*
X11515400Y-9697779D01*
X11545493Y-9705489D01*
X11568824Y-9712255D01*
X11585809Y-9718224D01*
X11596859Y-9723541D01*
X11602388Y-9728355D01*
X11602629Y-9728767D01*
X11604402Y-9735104D01*
X11606568Y-9747723D01*
X11609014Y-9765667D01*
X11611627Y-9787981D01*
X11614293Y-9813707D01*
X11616900Y-9841888D01*
X11619002Y-9867293D01*
X11620055Y-9882619D01*
X11620185Y-9892087D01*
X11619247Y-9897055D01*
X11617091Y-9898883D01*
X11615549Y-9899043D01*
X11610005Y-9897481D01*
X11607900Y-9896624D01*
X11427105Y-9896624D01*
X11426607Y-9898781D01*
X11424686Y-9899043D01*
X11421699Y-9897715D01*
X11422267Y-9896624D01*
X11426573Y-9896190D01*
X11427105Y-9896624D01*
X11607900Y-9896624D01*
X11602801Y-9894547D01*
X11404969Y-9894547D01*
X11401402Y-9895128D01*
X11396696Y-9894461D01*
X11396640Y-9893222D01*
X11401496Y-9892356D01*
X11403595Y-9892936D01*
X11404969Y-9894547D01*
X11602801Y-9894547D01*
X11599633Y-9893256D01*
X11586043Y-9887059D01*
X11574298Y-9881329D01*
X11560104Y-9874834D01*
X11540609Y-9866803D01*
X11517441Y-9857860D01*
X11492226Y-9848626D01*
X11466593Y-9839726D01*
X11459157Y-9837244D01*
X11430827Y-9827999D01*
X11407923Y-9820956D01*
X11389025Y-9815917D01*
X11372711Y-9812684D01*
X11357557Y-9811060D01*
X11342143Y-9810848D01*
X11325046Y-9811849D01*
X11304845Y-9813866D01*
X11297159Y-9814732D01*
X11279788Y-9816900D01*
X11268408Y-9818998D01*
X11261776Y-9821537D01*
X11258648Y-9825030D01*
X11257783Y-9829989D01*
X11257771Y-9830964D01*
X11256539Y-9839783D01*
X11253572Y-9850269D01*
X11253536Y-9850369D01*
X11251314Y-9858558D01*
X11252584Y-9864844D01*
X11258129Y-9872568D01*
X11258979Y-9873584D01*
X11266554Y-9884656D01*
X11268095Y-9893592D01*
X11263801Y-9901971D01*
X11262713Y-9903225D01*
X11258896Y-9909407D01*
X11260879Y-9914741D01*
X11261055Y-9914956D01*
X11263558Y-9922375D01*
X11263047Y-9929261D01*
X11262273Y-9935057D01*
X11264829Y-9938359D01*
X11272354Y-9940663D01*
X11276498Y-9941516D01*
X11287439Y-9944858D01*
X11292128Y-9949131D01*
X11292243Y-9949958D01*
X11289424Y-9953916D01*
X11284986Y-9954022D01*
X11267178Y-9951295D01*
X11255274Y-9950495D01*
X11248171Y-9951656D01*
X11244768Y-9954809D01*
X11244593Y-9955225D01*
X11245240Y-9962714D01*
X11249103Y-9968153D01*
X11256735Y-9973434D01*
X11270105Y-9980283D01*
X11287991Y-9988207D01*
X11309173Y-9996714D01*
X11332430Y-10005315D01*
X11356539Y-10013516D01*
X11379219Y-10020519D01*
X11403148Y-10027802D01*
X11426633Y-10035663D01*
X11450846Y-10044567D01*
X11476961Y-10054980D01*
X11506151Y-10067368D01*
X11539590Y-10082198D01*
X11573457Y-10097634D01*
X11603914Y-10111606D01*
X11628669Y-10122812D01*
X11648600Y-10131554D01*
X11664581Y-10138135D01*
X11677489Y-10142855D01*
X11688199Y-10146018D01*
X11697587Y-10147925D01*
X11706529Y-10148880D01*
X11715900Y-10149182D01*
X11722847Y-10149172D01*
X11739135Y-10148481D01*
X11754569Y-10146877D01*
X11766199Y-10144682D01*
X11767586Y-10144273D01*
X11784541Y-10137452D01*
X11799037Y-10129043D01*
X11809361Y-10120173D01*
X11813234Y-10114176D01*
X11814935Y-10106169D01*
X11816180Y-10093627D01*
X11816699Y-10079328D01*
X11817454Y-10061663D01*
X11819362Y-10040745D01*
X11822107Y-10018920D01*
X11825377Y-9998537D01*
X11828859Y-9981941D01*
X11830499Y-9976054D01*
X11831470Y-9968186D01*
X11831470Y-9962308D01*
X11606114Y-9962308D01*
X11605764Y-9965862D01*
X11603985Y-9967267D01*
X11599683Y-9966162D01*
X11591762Y-9962185D01*
X11579127Y-9954973D01*
X11572870Y-9951313D01*
X11556417Y-9941302D01*
X11545716Y-9933965D01*
X11541022Y-9929492D01*
X11542334Y-9928071D01*
X11546275Y-9929498D01*
X11555230Y-9933328D01*
X11567639Y-9938883D01*
X11575206Y-9942351D01*
X11591257Y-9950381D01*
X11601741Y-9956991D01*
X11606041Y-9961783D01*
X11606114Y-9962308D01*
X11831470Y-9962308D01*
X11831469Y-9954966D01*
X11830639Y-9937699D01*
X11829124Y-9917689D01*
X11827068Y-9896239D01*
X11824617Y-9874654D01*
X11821913Y-9854239D01*
X11819101Y-9836296D01*
X11816326Y-9822131D01*
X11813731Y-9813047D01*
X11812190Y-9810470D01*
X11808718Y-9805365D01*
X11810495Y-9800513D01*
X11812029Y-9793933D01*
X11808276Y-9785428D01*
X11807820Y-9784721D01*
X11803802Y-9776448D01*
X11805084Y-9771207D01*
X11805348Y-9770929D01*
X11808723Y-9765945D01*
X11808897Y-9762470D01*
X11805978Y-9762791D01*
X11802728Y-9761324D01*
X11799439Y-9754119D01*
X11796558Y-9742676D01*
X11794535Y-9728498D01*
X11794105Y-9723057D01*
X11793982Y-9711594D01*
X11795564Y-9706340D01*
X11797521Y-9705821D01*
X11801719Y-9705881D01*
X11802057Y-9705475D01*
X11801547Y-9701653D01*
X11800135Y-9691857D01*
X11797997Y-9677291D01*
X11795309Y-9659158D01*
X11793016Y-9643786D01*
X11789769Y-9621923D01*
X11785798Y-9594927D01*
X11782274Y-9570816D01*
X11547497Y-9570816D01*
X11546489Y-9572133D01*
X11546243Y-9572151D01*
X11541610Y-9571248D01*
X11531397Y-9568619D01*
X11516971Y-9564634D01*
X11499700Y-9559665D01*
X11493847Y-9557943D01*
X11472839Y-9551472D01*
X11456258Y-9545844D01*
X11444681Y-9541296D01*
X11438685Y-9538066D01*
X11438844Y-9536393D01*
X11441196Y-9536211D01*
X11449049Y-9537215D01*
X11460656Y-9539875D01*
X11474831Y-9543786D01*
X11490391Y-9548541D01*
X11506150Y-9553737D01*
X11520925Y-9558968D01*
X11533530Y-9563828D01*
X11542782Y-9567912D01*
X11547497Y-9570816D01*
X11782274Y-9570816D01*
X11781402Y-9564849D01*
X11781331Y-9564359D01*
X11566348Y-9564359D01*
X11566200Y-9564918D01*
X11562080Y-9563866D01*
X11553437Y-9560854D01*
X11546243Y-9558124D01*
X11537308Y-9554284D01*
X11532968Y-9551681D01*
X11533543Y-9550965D01*
X11538497Y-9552079D01*
X11546393Y-9554889D01*
X11555092Y-9558481D01*
X11562456Y-9561942D01*
X11566348Y-9564359D01*
X11781331Y-9564359D01*
X11776881Y-9533743D01*
X11772534Y-9503660D01*
X11771080Y-9493547D01*
X11767266Y-9467738D01*
X11763791Y-9445471D01*
X11606114Y-9445471D01*
X11604787Y-9448458D01*
X11603695Y-9447891D01*
X11603261Y-9443584D01*
X11603695Y-9443052D01*
X11605852Y-9443551D01*
X11606114Y-9445471D01*
X11763791Y-9445471D01*
X11763458Y-9443338D01*
X11762013Y-9434586D01*
X11606114Y-9434586D01*
X11604787Y-9437572D01*
X11603695Y-9437005D01*
X11603261Y-9432699D01*
X11603695Y-9432167D01*
X11605852Y-9432665D01*
X11606114Y-9434586D01*
X11762013Y-9434586D01*
X11759866Y-9421583D01*
X11756697Y-9403710D01*
X11756343Y-9401929D01*
X11602486Y-9401929D01*
X11601158Y-9404915D01*
X11600067Y-9404348D01*
X11599632Y-9400041D01*
X11600067Y-9399510D01*
X11602224Y-9400008D01*
X11602486Y-9401929D01*
X11756343Y-9401929D01*
X11754160Y-9390953D01*
X11752907Y-9385849D01*
X11749770Y-9371190D01*
X11748312Y-9358386D01*
X11744000Y-9358386D01*
X11742672Y-9361372D01*
X11741581Y-9360805D01*
X11741147Y-9356499D01*
X11741334Y-9356269D01*
X11598571Y-9356269D01*
X11597903Y-9360975D01*
X11596665Y-9361032D01*
X11595799Y-9356175D01*
X11596378Y-9354077D01*
X11597990Y-9352702D01*
X11598571Y-9356269D01*
X11741334Y-9356269D01*
X11741581Y-9355967D01*
X11743738Y-9356465D01*
X11744000Y-9358386D01*
X11748312Y-9358386D01*
X11747879Y-9354590D01*
X11747629Y-9347535D01*
X11746279Y-9330956D01*
X11741966Y-9320357D01*
X11734294Y-9314931D01*
X11731300Y-9314194D01*
X11726141Y-9311333D01*
X11723075Y-9303871D01*
X11721966Y-9297419D01*
X11721050Y-9287864D01*
X11722017Y-9283930D01*
X11725278Y-9284133D01*
X11725594Y-9284260D01*
X11732699Y-9286179D01*
X11743367Y-9288056D01*
X11746657Y-9288494D01*
X11757049Y-9289088D01*
X11762463Y-9287242D01*
X11764322Y-9284357D01*
X11769049Y-9280028D01*
X11774365Y-9280437D01*
X11779512Y-9281593D01*
X11778097Y-9280061D01*
X11775674Y-9278507D01*
X11771319Y-9273418D01*
X11773398Y-9269194D01*
X11780056Y-9267671D01*
X11787908Y-9265045D01*
X11791096Y-9262319D01*
X11793146Y-9257935D01*
X11789599Y-9254402D01*
X11786098Y-9252665D01*
X11779268Y-9248530D01*
X11776657Y-9245079D01*
X11778966Y-9237275D01*
X11784294Y-9230462D01*
X11789929Y-9227757D01*
X11794290Y-9226622D01*
X11792687Y-9223585D01*
X11785985Y-9219195D01*
X11775050Y-9214001D01*
X11760747Y-9208555D01*
X11758514Y-9207800D01*
X11741599Y-9201602D01*
X11730160Y-9196211D01*
X11724561Y-9191921D01*
X11725165Y-9189022D01*
X11732338Y-9187808D01*
X11733577Y-9187789D01*
X11741588Y-9187610D01*
X11742932Y-9186597D01*
X11738199Y-9183884D01*
X11736743Y-9183147D01*
X11730078Y-9178049D01*
X11727671Y-9173221D01*
X11730746Y-9168413D01*
X11739149Y-9166796D01*
X11751652Y-9168451D01*
X11760517Y-9171017D01*
X11770273Y-9174138D01*
X11775011Y-9174623D01*
X11776535Y-9172308D01*
X11776657Y-9169554D01*
X11773119Y-9162761D01*
X11762780Y-9155566D01*
X11761236Y-9154762D01*
X11750150Y-9148609D01*
X11738456Y-9141285D01*
X11727441Y-9133728D01*
X11718394Y-9126877D01*
X11712604Y-9121670D01*
X11711358Y-9119045D01*
X11711998Y-9118900D01*
X11718303Y-9120021D01*
X11728750Y-9122907D01*
X11737082Y-9125591D01*
X11755590Y-9131628D01*
X11767812Y-9134934D01*
X11774150Y-9135593D01*
X11775007Y-9133689D01*
X11774899Y-9133505D01*
X11772009Y-9130671D01*
X11766316Y-9127426D01*
X11757314Y-9123612D01*
X11744498Y-9119073D01*
X11727361Y-9113651D01*
X11705397Y-9107188D01*
X11678101Y-9099527D01*
X11644967Y-9090511D01*
X11605489Y-9079982D01*
X11588238Y-9075425D01*
X11553930Y-9066620D01*
X11524363Y-9059685D01*
X11497652Y-9054341D01*
X11471910Y-9050307D01*
X11445254Y-9047304D01*
X11415799Y-9045051D01*
X11381659Y-9043270D01*
X11367678Y-9042683D01*
X11343405Y-9041626D01*
X11320866Y-9040488D01*
X11301320Y-9039344D01*
X11286027Y-9038270D01*
X11276249Y-9037342D01*
X11274242Y-9037045D01*
X11264866Y-9035988D01*
X11261433Y-9037217D01*
G37*
X11261433Y-9037217D02*
X11263184Y-9040237D01*
X11269360Y-9044555D01*
X11279199Y-9049675D01*
X11291943Y-9055105D01*
X11306832Y-9060349D01*
X11312922Y-9062199D01*
X11324459Y-9066074D01*
X11332999Y-9069920D01*
X11336116Y-9072264D01*
X11336443Y-9074339D01*
X11333593Y-9075001D01*
X11326887Y-9074103D01*
X11315649Y-9071500D01*
X11299199Y-9067044D01*
X11276859Y-9060590D01*
X11263129Y-9056526D01*
X11208615Y-9040304D01*
X11199284Y-9049771D01*
X11192137Y-9060418D01*
X11188038Y-9073373D01*
X11187283Y-9086261D01*
X11190164Y-9096704D01*
X11193042Y-9100251D01*
X11200431Y-9106815D01*
X11209270Y-9115069D01*
X11210425Y-9116178D01*
X11218959Y-9122585D01*
X11232919Y-9131002D01*
X11250975Y-9140787D01*
X11271795Y-9151299D01*
X11294050Y-9161897D01*
X11316409Y-9171940D01*
X11337542Y-9180788D01*
X11356119Y-9187798D01*
X11365211Y-9190773D01*
X11385158Y-9196848D01*
X11407978Y-9203909D01*
X11432723Y-9211652D01*
X11458449Y-9219772D01*
X11484210Y-9227967D01*
X11509059Y-9235932D01*
X11532050Y-9243365D01*
X11552238Y-9249960D01*
X11568677Y-9255416D01*
X11580422Y-9259428D01*
X11586525Y-9261692D01*
X11587159Y-9262021D01*
X11588241Y-9264281D01*
X11585075Y-9264837D01*
X11577277Y-9263590D01*
X11564461Y-9260438D01*
X11546243Y-9255279D01*
X11522236Y-9248011D01*
X11492057Y-9238534D01*
X11464600Y-9229741D01*
X11434756Y-9220665D01*
X11406537Y-9213110D01*
X11380706Y-9207198D01*
X11358026Y-9203049D01*
X11339260Y-9200785D01*
X11325171Y-9200527D01*
X11316521Y-9202395D01*
X11314014Y-9205838D01*
X11317168Y-9208890D01*
X11325913Y-9214298D01*
X11339172Y-9221548D01*
X11355872Y-9230128D01*
X11374935Y-9239526D01*
X11395286Y-9249228D01*
X11415849Y-9258721D01*
X11435550Y-9267495D01*
X11453311Y-9275034D01*
X11468058Y-9280828D01*
X11478715Y-9284362D01*
X11478824Y-9284392D01*
X11492763Y-9288746D01*
X11506103Y-9293882D01*
X11511481Y-9296389D01*
X11523540Y-9302254D01*
X11537043Y-9308320D01*
X11539914Y-9309535D01*
X11550206Y-9314504D01*
X11557853Y-9319407D01*
X11559500Y-9320957D01*
X11561171Y-9326359D01*
X11562901Y-9338041D01*
X11564587Y-9355030D01*
X11566123Y-9376352D01*
X11566901Y-9390246D01*
X11568103Y-9413048D01*
X11569353Y-9435114D01*
X11570543Y-9454684D01*
X11571568Y-9469996D01*
X11572130Y-9477221D01*
X11573064Y-9489567D01*
X11572797Y-9496351D01*
X11570821Y-9499238D01*
X11566622Y-9499891D01*
X11565164Y-9499900D01*
X11556132Y-9498690D01*
X11544457Y-9495668D01*
X11540800Y-9494457D01*
X11527366Y-9491102D01*
X11512004Y-9489159D01*
X11506779Y-9488968D01*
X11496009Y-9487975D01*
X11481381Y-9485352D01*
X11464690Y-9481576D01*
X11447733Y-9477122D01*
X11432307Y-9472466D01*
X11420207Y-9468084D01*
X11413231Y-9464452D01*
X11412811Y-9464076D01*
X11411277Y-9460692D01*
X11416350Y-9460232D01*
X11427993Y-9462692D01*
X11443412Y-9467196D01*
X11456399Y-9470946D01*
X11467444Y-9473570D01*
X11473572Y-9474453D01*
X11478578Y-9474225D01*
X11477589Y-9472429D01*
X11473572Y-9469599D01*
X11470766Y-9467746D01*
X11467730Y-9466143D01*
X11463483Y-9464522D01*
X11457042Y-9462615D01*
X11447427Y-9460156D01*
X11433656Y-9456877D01*
X11414747Y-9452511D01*
X11390453Y-9446958D01*
X11366084Y-9441487D01*
X11347658Y-9437726D01*
X11334065Y-9435670D01*
X11324197Y-9435316D01*
X11316944Y-9436662D01*
X11311197Y-9439703D01*
X11305846Y-9444437D01*
X11303673Y-9446692D01*
X11290204Y-9461711D01*
X11279325Y-9475324D01*
X11271880Y-9486380D01*
X11268712Y-9493732D01*
X11268657Y-9494421D01*
X11272145Y-9514855D01*
X11282350Y-9535909D01*
X11295095Y-9552629D01*
X11304315Y-9563233D01*
X11309205Y-9569916D01*
X11310412Y-9574034D01*
X11308585Y-9576945D01*
X11307231Y-9578016D01*
X11303440Y-9581681D01*
X11304571Y-9584361D01*
X11311454Y-9586690D01*
X11321103Y-9588626D01*
X11335790Y-9592540D01*
X11349309Y-9598332D01*
X11360288Y-9605112D01*
X11367357Y-9611993D01*
X11369143Y-9618086D01*
X11368587Y-9619409D01*
X11367570Y-9624581D01*
X11370965Y-9630498D01*
X11379298Y-9637563D01*
X11393095Y-9646178D01*
X11412882Y-9656746D01*
X11425745Y-9663162D01*
X11456356Y-9677398D01*
X11483084Y-9688040D01*
X11507862Y-9695836D01*
X11515400Y-9697779D01*
X11545493Y-9705489D01*
X11568824Y-9712255D01*
X11585809Y-9718224D01*
X11596859Y-9723541D01*
X11602388Y-9728355D01*
X11602629Y-9728767D01*
X11604402Y-9735104D01*
X11606568Y-9747723D01*
X11609014Y-9765667D01*
X11611627Y-9787981D01*
X11614293Y-9813707D01*
X11616900Y-9841888D01*
X11619002Y-9867293D01*
X11620055Y-9882619D01*
X11620185Y-9892087D01*
X11619247Y-9897055D01*
X11617091Y-9898883D01*
X11615549Y-9899043D01*
X11610005Y-9897481D01*
X11607900Y-9896624D01*
X11427105Y-9896624D01*
X11426607Y-9898781D01*
X11424686Y-9899043D01*
X11421699Y-9897715D01*
X11422267Y-9896624D01*
X11426573Y-9896190D01*
X11427105Y-9896624D01*
X11607900Y-9896624D01*
X11602801Y-9894547D01*
X11404969Y-9894547D01*
X11401402Y-9895128D01*
X11396696Y-9894461D01*
X11396640Y-9893222D01*
X11401496Y-9892356D01*
X11403595Y-9892936D01*
X11404969Y-9894547D01*
X11602801Y-9894547D01*
X11599633Y-9893256D01*
X11586043Y-9887059D01*
X11574298Y-9881329D01*
X11560104Y-9874834D01*
X11540609Y-9866803D01*
X11517441Y-9857860D01*
X11492226Y-9848626D01*
X11466593Y-9839726D01*
X11459157Y-9837244D01*
X11430827Y-9827999D01*
X11407923Y-9820956D01*
X11389025Y-9815917D01*
X11372711Y-9812684D01*
X11357557Y-9811060D01*
X11342143Y-9810848D01*
X11325046Y-9811849D01*
X11304845Y-9813866D01*
X11297159Y-9814732D01*
X11279788Y-9816900D01*
X11268408Y-9818998D01*
X11261776Y-9821537D01*
X11258648Y-9825030D01*
X11257783Y-9829989D01*
X11257771Y-9830964D01*
X11256539Y-9839783D01*
X11253572Y-9850269D01*
X11253536Y-9850369D01*
X11251314Y-9858558D01*
X11252584Y-9864844D01*
X11258129Y-9872568D01*
X11258979Y-9873584D01*
X11266554Y-9884656D01*
X11268095Y-9893592D01*
X11263801Y-9901971D01*
X11262713Y-9903225D01*
X11258896Y-9909407D01*
X11260879Y-9914741D01*
X11261055Y-9914956D01*
X11263558Y-9922375D01*
X11263047Y-9929261D01*
X11262273Y-9935057D01*
X11264829Y-9938359D01*
X11272354Y-9940663D01*
X11276498Y-9941516D01*
X11287439Y-9944858D01*
X11292128Y-9949131D01*
X11292243Y-9949958D01*
X11289424Y-9953916D01*
X11284986Y-9954022D01*
X11267178Y-9951295D01*
X11255274Y-9950495D01*
X11248171Y-9951656D01*
X11244768Y-9954809D01*
X11244593Y-9955225D01*
X11245240Y-9962714D01*
X11249103Y-9968153D01*
X11256735Y-9973434D01*
X11270105Y-9980283D01*
X11287991Y-9988207D01*
X11309173Y-9996714D01*
X11332430Y-10005315D01*
X11356539Y-10013516D01*
X11379219Y-10020519D01*
X11403148Y-10027802D01*
X11426633Y-10035663D01*
X11450846Y-10044567D01*
X11476961Y-10054980D01*
X11506151Y-10067368D01*
X11539590Y-10082198D01*
X11573457Y-10097634D01*
X11603914Y-10111606D01*
X11628669Y-10122812D01*
X11648600Y-10131554D01*
X11664581Y-10138135D01*
X11677489Y-10142855D01*
X11688199Y-10146018D01*
X11697587Y-10147925D01*
X11706529Y-10148880D01*
X11715900Y-10149182D01*
X11722847Y-10149172D01*
X11739135Y-10148481D01*
X11754569Y-10146877D01*
X11766199Y-10144682D01*
X11767586Y-10144273D01*
X11784541Y-10137452D01*
X11799037Y-10129043D01*
X11809361Y-10120173D01*
X11813234Y-10114176D01*
X11814935Y-10106169D01*
X11816180Y-10093627D01*
X11816699Y-10079328D01*
X11817454Y-10061663D01*
X11819362Y-10040745D01*
X11822107Y-10018920D01*
X11825377Y-9998537D01*
X11828859Y-9981941D01*
X11830499Y-9976054D01*
X11831470Y-9968186D01*
X11831470Y-9962308D01*
X11606114Y-9962308D01*
X11605764Y-9965862D01*
X11603985Y-9967267D01*
X11599683Y-9966162D01*
X11591762Y-9962185D01*
X11579127Y-9954973D01*
X11572870Y-9951313D01*
X11556417Y-9941302D01*
X11545716Y-9933965D01*
X11541022Y-9929492D01*
X11542334Y-9928071D01*
X11546275Y-9929498D01*
X11555230Y-9933328D01*
X11567639Y-9938883D01*
X11575206Y-9942351D01*
X11591257Y-9950381D01*
X11601741Y-9956991D01*
X11606041Y-9961783D01*
X11606114Y-9962308D01*
X11831470Y-9962308D01*
X11831469Y-9954966D01*
X11830639Y-9937699D01*
X11829124Y-9917689D01*
X11827068Y-9896239D01*
X11824617Y-9874654D01*
X11821913Y-9854239D01*
X11819101Y-9836296D01*
X11816326Y-9822131D01*
X11813731Y-9813047D01*
X11812190Y-9810470D01*
X11808718Y-9805365D01*
X11810495Y-9800513D01*
X11812029Y-9793933D01*
X11808276Y-9785428D01*
X11807820Y-9784721D01*
X11803802Y-9776448D01*
X11805084Y-9771207D01*
X11805348Y-9770929D01*
X11808723Y-9765945D01*
X11808897Y-9762470D01*
X11805978Y-9762791D01*
X11802728Y-9761324D01*
X11799439Y-9754119D01*
X11796558Y-9742676D01*
X11794535Y-9728498D01*
X11794105Y-9723057D01*
X11793982Y-9711594D01*
X11795564Y-9706340D01*
X11797521Y-9705821D01*
X11801719Y-9705881D01*
X11802057Y-9705475D01*
X11801547Y-9701653D01*
X11800135Y-9691857D01*
X11797997Y-9677291D01*
X11795309Y-9659158D01*
X11793016Y-9643786D01*
X11789769Y-9621923D01*
X11785798Y-9594927D01*
X11782274Y-9570816D01*
X11547497Y-9570816D01*
X11546489Y-9572133D01*
X11546243Y-9572151D01*
X11541610Y-9571248D01*
X11531397Y-9568619D01*
X11516971Y-9564634D01*
X11499700Y-9559665D01*
X11493847Y-9557943D01*
X11472839Y-9551472D01*
X11456258Y-9545844D01*
X11444681Y-9541296D01*
X11438685Y-9538066D01*
X11438844Y-9536393D01*
X11441196Y-9536211D01*
X11449049Y-9537215D01*
X11460656Y-9539875D01*
X11474831Y-9543786D01*
X11490391Y-9548541D01*
X11506150Y-9553737D01*
X11520925Y-9558968D01*
X11533530Y-9563828D01*
X11542782Y-9567912D01*
X11547497Y-9570816D01*
X11782274Y-9570816D01*
X11781402Y-9564849D01*
X11781331Y-9564359D01*
X11566348Y-9564359D01*
X11566200Y-9564918D01*
X11562080Y-9563866D01*
X11553437Y-9560854D01*
X11546243Y-9558124D01*
X11537308Y-9554284D01*
X11532968Y-9551681D01*
X11533543Y-9550965D01*
X11538497Y-9552079D01*
X11546393Y-9554889D01*
X11555092Y-9558481D01*
X11562456Y-9561942D01*
X11566348Y-9564359D01*
X11781331Y-9564359D01*
X11776881Y-9533743D01*
X11772534Y-9503660D01*
X11771080Y-9493547D01*
X11767266Y-9467738D01*
X11763791Y-9445471D01*
X11606114Y-9445471D01*
X11604787Y-9448458D01*
X11603695Y-9447891D01*
X11603261Y-9443584D01*
X11603695Y-9443052D01*
X11605852Y-9443551D01*
X11606114Y-9445471D01*
X11763791Y-9445471D01*
X11763458Y-9443338D01*
X11762013Y-9434586D01*
X11606114Y-9434586D01*
X11604787Y-9437572D01*
X11603695Y-9437005D01*
X11603261Y-9432699D01*
X11603695Y-9432167D01*
X11605852Y-9432665D01*
X11606114Y-9434586D01*
X11762013Y-9434586D01*
X11759866Y-9421583D01*
X11756697Y-9403710D01*
X11756343Y-9401929D01*
X11602486Y-9401929D01*
X11601158Y-9404915D01*
X11600067Y-9404348D01*
X11599632Y-9400041D01*
X11600067Y-9399510D01*
X11602224Y-9400008D01*
X11602486Y-9401929D01*
X11756343Y-9401929D01*
X11754160Y-9390953D01*
X11752907Y-9385849D01*
X11749770Y-9371190D01*
X11748312Y-9358386D01*
X11744000Y-9358386D01*
X11742672Y-9361372D01*
X11741581Y-9360805D01*
X11741147Y-9356499D01*
X11741334Y-9356269D01*
X11598571Y-9356269D01*
X11597903Y-9360975D01*
X11596665Y-9361032D01*
X11595799Y-9356175D01*
X11596378Y-9354077D01*
X11597990Y-9352702D01*
X11598571Y-9356269D01*
X11741334Y-9356269D01*
X11741581Y-9355967D01*
X11743738Y-9356465D01*
X11744000Y-9358386D01*
X11748312Y-9358386D01*
X11747879Y-9354590D01*
X11747629Y-9347535D01*
X11746279Y-9330956D01*
X11741966Y-9320357D01*
X11734294Y-9314931D01*
X11731300Y-9314194D01*
X11726141Y-9311333D01*
X11723075Y-9303871D01*
X11721966Y-9297419D01*
X11721050Y-9287864D01*
X11722017Y-9283930D01*
X11725278Y-9284133D01*
X11725594Y-9284260D01*
X11732699Y-9286179D01*
X11743367Y-9288056D01*
X11746657Y-9288494D01*
X11757049Y-9289088D01*
X11762463Y-9287242D01*
X11764322Y-9284357D01*
X11769049Y-9280028D01*
X11774365Y-9280437D01*
X11779512Y-9281593D01*
X11778097Y-9280061D01*
X11775674Y-9278507D01*
X11771319Y-9273418D01*
X11773398Y-9269194D01*
X11780056Y-9267671D01*
X11787908Y-9265045D01*
X11791096Y-9262319D01*
X11793146Y-9257935D01*
X11789599Y-9254402D01*
X11786098Y-9252665D01*
X11779268Y-9248530D01*
X11776657Y-9245079D01*
X11778966Y-9237275D01*
X11784294Y-9230462D01*
X11789929Y-9227757D01*
X11794290Y-9226622D01*
X11792687Y-9223585D01*
X11785985Y-9219195D01*
X11775050Y-9214001D01*
X11760747Y-9208555D01*
X11758514Y-9207800D01*
X11741599Y-9201602D01*
X11730160Y-9196211D01*
X11724561Y-9191921D01*
X11725165Y-9189022D01*
X11732338Y-9187808D01*
X11733577Y-9187789D01*
X11741588Y-9187610D01*
X11742932Y-9186597D01*
X11738199Y-9183884D01*
X11736743Y-9183147D01*
X11730078Y-9178049D01*
X11727671Y-9173221D01*
X11730746Y-9168413D01*
X11739149Y-9166796D01*
X11751652Y-9168451D01*
X11760517Y-9171017D01*
X11770273Y-9174138D01*
X11775011Y-9174623D01*
X11776535Y-9172308D01*
X11776657Y-9169554D01*
X11773119Y-9162761D01*
X11762780Y-9155566D01*
X11761236Y-9154762D01*
X11750150Y-9148609D01*
X11738456Y-9141285D01*
X11727441Y-9133728D01*
X11718394Y-9126877D01*
X11712604Y-9121670D01*
X11711358Y-9119045D01*
X11711998Y-9118900D01*
X11718303Y-9120021D01*
X11728750Y-9122907D01*
X11737082Y-9125591D01*
X11755590Y-9131628D01*
X11767812Y-9134934D01*
X11774150Y-9135593D01*
X11775007Y-9133689D01*
X11774899Y-9133505D01*
X11772009Y-9130671D01*
X11766316Y-9127426D01*
X11757314Y-9123612D01*
X11744498Y-9119073D01*
X11727361Y-9113651D01*
X11705397Y-9107188D01*
X11678101Y-9099527D01*
X11644967Y-9090511D01*
X11605489Y-9079982D01*
X11588238Y-9075425D01*
X11553930Y-9066620D01*
X11524363Y-9059685D01*
X11497652Y-9054341D01*
X11471910Y-9050307D01*
X11445254Y-9047304D01*
X11415799Y-9045051D01*
X11381659Y-9043270D01*
X11367678Y-9042683D01*
X11343405Y-9041626D01*
X11320866Y-9040488D01*
X11301320Y-9039344D01*
X11286027Y-9038270D01*
X11276249Y-9037342D01*
X11274242Y-9037045D01*
X11264866Y-9035988D01*
X11261433Y-9037217D01*
G36*
X16671600Y-10154857D02*
G01*
X16673414Y-10156671D01*
X16675229Y-10154857D01*
X16673414Y-10153043D01*
X16671600Y-10154857D01*
G37*
X16671600Y-10154857D02*
X16673414Y-10156671D01*
X16675229Y-10154857D01*
X16673414Y-10153043D01*
X16671600Y-10154857D01*
G36*
X16291018Y-10136456D02*
G01*
X16288822Y-10140341D01*
X16286664Y-10147534D01*
X16285219Y-10155027D01*
X16285163Y-10159815D01*
X16285658Y-10160300D01*
X16287969Y-10157549D01*
X16290472Y-10153281D01*
X16293380Y-10145633D01*
X16294089Y-10139118D01*
X16292526Y-10136059D01*
X16291018Y-10136456D01*
G37*
X16291018Y-10136456D02*
X16288822Y-10140341D01*
X16286664Y-10147534D01*
X16285219Y-10155027D01*
X16285163Y-10159815D01*
X16285658Y-10160300D01*
X16287969Y-10157549D01*
X16290472Y-10153281D01*
X16293380Y-10145633D01*
X16294089Y-10139118D01*
X16292526Y-10136059D01*
X16291018Y-10136456D01*
G36*
X11987312Y-9134291D02*
G01*
X11975376Y-9138185D01*
X11969818Y-9140601D01*
X11959226Y-9146577D01*
X11953778Y-9153317D01*
X11952113Y-9158740D01*
X11949620Y-9167150D01*
X11946739Y-9171799D01*
X11946731Y-9171804D01*
X11944791Y-9176325D01*
X11943676Y-9185357D01*
X11943571Y-9189415D01*
X11942243Y-9203399D01*
X11938966Y-9217941D01*
X11938129Y-9220500D01*
X11934661Y-9233017D01*
X11932791Y-9245006D01*
X11932686Y-9247590D01*
X11931783Y-9256734D01*
X11929399Y-9270190D01*
X11926018Y-9285287D01*
X11925429Y-9287629D01*
X11920637Y-9314216D01*
X11918356Y-9345331D01*
X11918652Y-9378671D01*
X11921590Y-9411930D01*
X11921795Y-9413459D01*
X11923146Y-9426535D01*
X11924454Y-9444850D01*
X11925601Y-9466386D01*
X11926473Y-9489127D01*
X11926760Y-9499900D01*
X11927984Y-9537449D01*
X11930044Y-9580532D01*
X11932827Y-9627488D01*
X11936218Y-9676657D01*
X11940103Y-9726378D01*
X11944366Y-9774990D01*
X11948894Y-9820833D01*
X11948914Y-9821029D01*
X11951594Y-9846625D01*
X11954157Y-9871402D01*
X11956456Y-9893904D01*
X11958343Y-9912676D01*
X11959668Y-9926262D01*
X11960005Y-9929886D01*
X11962431Y-9952543D01*
X11965718Y-9977518D01*
X11969523Y-10002593D01*
X11973503Y-10025550D01*
X11977314Y-10044169D01*
X11978390Y-10048643D01*
X11982132Y-10064338D01*
X11985742Y-10080879D01*
X11987209Y-10088228D01*
X11991225Y-10107903D01*
X11994814Y-10121507D01*
X11998416Y-10130175D01*
X12002477Y-10135041D01*
X12006245Y-10136925D01*
X12015755Y-10141420D01*
X12020580Y-10144874D01*
X12030381Y-10148730D01*
X12037816Y-10148164D01*
X12046083Y-10147639D01*
X12048800Y-10149928D01*
X12051724Y-10152292D01*
X12056911Y-10151768D01*
X12064513Y-10152125D01*
X12073217Y-10157750D01*
X12076569Y-10160837D01*
X12088114Y-10172028D01*
X12101114Y-10159028D01*
X12108639Y-10150489D01*
X12113332Y-10143213D01*
X12114114Y-10140572D01*
X12116823Y-10134979D01*
X12123491Y-10128237D01*
X12125000Y-10127069D01*
X12131355Y-10121592D01*
X12134619Y-10115599D01*
X12135804Y-10106475D01*
X12135938Y-10098839D01*
X12137065Y-10083747D01*
X12139861Y-10068531D01*
X12141601Y-10062545D01*
X12144563Y-10050827D01*
X12145369Y-10040436D01*
X12144981Y-10037548D01*
X12145060Y-10029322D01*
X12150395Y-10020785D01*
X12152557Y-10018428D01*
X12162362Y-10008193D01*
X12159802Y-9962107D01*
X12157980Y-9937442D01*
X12155593Y-9919481D01*
X12152563Y-9907690D01*
X12151277Y-9904811D01*
X12147683Y-9894588D01*
X12145182Y-9881060D01*
X12144581Y-9873643D01*
X12143361Y-9858766D01*
X12141108Y-9843939D01*
X12139850Y-9838269D01*
X12137439Y-9826088D01*
X12135350Y-9810572D01*
X12134314Y-9798917D01*
X12133237Y-9786413D01*
X12131919Y-9777025D01*
X12130703Y-9772907D01*
X12129010Y-9767606D01*
X12128641Y-9758638D01*
X12129439Y-9749191D01*
X12131248Y-9742449D01*
X12132257Y-9741200D01*
X12135156Y-9736146D01*
X12135830Y-9731007D01*
X12135126Y-9725986D01*
X12132834Y-9727703D01*
X12132655Y-9727980D01*
X12128934Y-9730649D01*
X12127209Y-9729138D01*
X12127402Y-9724164D01*
X12128569Y-9723094D01*
X12131343Y-9717823D01*
X12132012Y-9710357D01*
X12128629Y-9710357D01*
X12127301Y-9713344D01*
X12126209Y-9712776D01*
X12125775Y-9708470D01*
X12126209Y-9707938D01*
X12128367Y-9708436D01*
X12128629Y-9710357D01*
X12132012Y-9710357D01*
X12132145Y-9708874D01*
X12131032Y-9699535D01*
X12128061Y-9693098D01*
X12128057Y-9693094D01*
X12125853Y-9687586D01*
X12127735Y-9684204D01*
X12130197Y-9676297D01*
X12128606Y-9666219D01*
X12123728Y-9657221D01*
X12120699Y-9654414D01*
X12115209Y-9646503D01*
X12113101Y-9634046D01*
X12114622Y-9619041D01*
X12115758Y-9614566D01*
X12117133Y-9607330D01*
X12115204Y-9606279D01*
X12114939Y-9606433D01*
X12111701Y-9605284D01*
X12109099Y-9599268D01*
X12107698Y-9590774D01*
X12108062Y-9582191D01*
X12108645Y-9579810D01*
X12111902Y-9573903D01*
X12114359Y-9572471D01*
X12117350Y-9569677D01*
X12117168Y-9562919D01*
X12116667Y-9561586D01*
X12110486Y-9561586D01*
X12109158Y-9564572D01*
X12108067Y-9564005D01*
X12107632Y-9559699D01*
X12108067Y-9559167D01*
X12110224Y-9559665D01*
X12110486Y-9561586D01*
X12116667Y-9561586D01*
X12114057Y-9554637D01*
X12112301Y-9551802D01*
X12108982Y-9543712D01*
X12109201Y-9537929D01*
X12109003Y-9531378D01*
X12106906Y-9528959D01*
X12104253Y-9525584D01*
X12105345Y-9519487D01*
X12107266Y-9514805D01*
X12112333Y-9506607D01*
X12116856Y-9505624D01*
X12120513Y-9511818D01*
X12121708Y-9516528D01*
X12123496Y-9523196D01*
X12125282Y-9523349D01*
X12126667Y-9520675D01*
X12128179Y-9518784D01*
X12130541Y-9519053D01*
X12134149Y-9522008D01*
X12139396Y-9528174D01*
X12146677Y-9538077D01*
X12156387Y-9552243D01*
X12168920Y-9571198D01*
X12184672Y-9595466D01*
X12195757Y-9612679D01*
X12219179Y-9648448D01*
X12241393Y-9681057D01*
X12262062Y-9710077D01*
X12280850Y-9735079D01*
X12297422Y-9755635D01*
X12311442Y-9771317D01*
X12322574Y-9781695D01*
X12330482Y-9786341D01*
X12331986Y-9786557D01*
X12337202Y-9788555D01*
X12345055Y-9793454D01*
X12346266Y-9794331D01*
X12354862Y-9799138D01*
X12365463Y-9801405D01*
X12378776Y-9801794D01*
X12392325Y-9801052D01*
X12401944Y-9798566D01*
X12410934Y-9793242D01*
X12415834Y-9789484D01*
X12429696Y-9777956D01*
X12441072Y-9767087D01*
X12451797Y-9754888D01*
X12463707Y-9739369D01*
X12469714Y-9731089D01*
X12478616Y-9719037D01*
X12486066Y-9709598D01*
X12491003Y-9704081D01*
X12492265Y-9703194D01*
X12495408Y-9704849D01*
X12498343Y-9710474D01*
X12501208Y-9720696D01*
X12504140Y-9736147D01*
X12507276Y-9757456D01*
X12510753Y-9785253D01*
X12511476Y-9791429D01*
X12519338Y-9857355D01*
X12526951Y-9917562D01*
X12534285Y-9971877D01*
X12541312Y-10020130D01*
X12548004Y-10062149D01*
X12554331Y-10097764D01*
X12560267Y-10126802D01*
X12565781Y-10149092D01*
X12570846Y-10164464D01*
X12574880Y-10172096D01*
X12578900Y-10178355D01*
X12582505Y-10186966D01*
X12586220Y-10199475D01*
X12590570Y-10217424D01*
X12591108Y-10219789D01*
X12593496Y-10226656D01*
X12596530Y-10227089D01*
X12597657Y-10226123D01*
X12599841Y-10220070D01*
X12601041Y-10207942D01*
X12601167Y-10192034D01*
X12601213Y-10177654D01*
X12602039Y-10170179D01*
X12603485Y-10169319D01*
X12605393Y-10174783D01*
X12607606Y-10186280D01*
X12609965Y-10203519D01*
X12610644Y-10209466D01*
X12613004Y-10226845D01*
X12615814Y-10238515D01*
X12619506Y-10246023D01*
X12621583Y-10248467D01*
X12629057Y-10255941D01*
X12632843Y-10245985D01*
X12635596Y-10237672D01*
X12636629Y-10232635D01*
X12638766Y-10229263D01*
X12644128Y-10230723D01*
X12651138Y-10236405D01*
X12653642Y-10239221D01*
X12659737Y-10245451D01*
X12663610Y-10245964D01*
X12665008Y-10244454D01*
X12671151Y-10241378D01*
X12677452Y-10242040D01*
X12684823Y-10242556D01*
X12688654Y-10238104D01*
X12689411Y-10235971D01*
X12693519Y-10226989D01*
X12699369Y-10217706D01*
X12702176Y-10213645D01*
X12703994Y-10209547D01*
X12704847Y-10204116D01*
X12704756Y-10196054D01*
X12703746Y-10184066D01*
X12701839Y-10166853D01*
X12700477Y-10155212D01*
X12697684Y-10127265D01*
X12696543Y-10105273D01*
X12697045Y-10089511D01*
X12699179Y-10080254D01*
X12702936Y-10077776D01*
X12703283Y-10077872D01*
X12706719Y-10082297D01*
X12708403Y-10090747D01*
X12708134Y-10100160D01*
X12705707Y-10107469D01*
X12705286Y-10108029D01*
X12703139Y-10112950D01*
X12706020Y-10118639D01*
X12708667Y-10121633D01*
X12714936Y-10130943D01*
X12716135Y-10139157D01*
X12712829Y-10143971D01*
X12709204Y-10148401D01*
X12711898Y-10151914D01*
X12718271Y-10153043D01*
X12722557Y-10152785D01*
X12725222Y-10151082D01*
X12726651Y-10146541D01*
X12727230Y-10137769D01*
X12727342Y-10123374D01*
X12727343Y-10120222D01*
X12727093Y-10113129D01*
X12712829Y-10113129D01*
X12711501Y-10116115D01*
X12710409Y-10115548D01*
X12709975Y-10111241D01*
X12710409Y-10110710D01*
X12712567Y-10111208D01*
X12712829Y-10113129D01*
X12727093Y-10113129D01*
X12726660Y-10100872D01*
X12724846Y-10078470D01*
X12722250Y-10057067D01*
X12721409Y-10051669D01*
X12719953Y-10041236D01*
X12699015Y-10041236D01*
X12697082Y-10050219D01*
X12692931Y-10054851D01*
X12691599Y-10055071D01*
X12689714Y-10051777D01*
X12687202Y-10043058D01*
X12684549Y-10030662D01*
X12684062Y-10027997D01*
X12681977Y-10013732D01*
X12680968Y-10001389D01*
X12681227Y-9993434D01*
X12681331Y-9992970D01*
X12681287Y-9983849D01*
X12678670Y-9975594D01*
X12677391Y-9973017D01*
X12676280Y-9970371D01*
X12675246Y-9966978D01*
X12674196Y-9962155D01*
X12673039Y-9955222D01*
X12671683Y-9945497D01*
X12670035Y-9932300D01*
X12668004Y-9914949D01*
X12665499Y-9892764D01*
X12662427Y-9865063D01*
X12658695Y-9831166D01*
X12656584Y-9811957D01*
X12653435Y-9783598D01*
X12650451Y-9757286D01*
X12647745Y-9733964D01*
X12645427Y-9714571D01*
X12643609Y-9700052D01*
X12642403Y-9691346D01*
X12642071Y-9689493D01*
X12641788Y-9683226D01*
X12643489Y-9681329D01*
X12645772Y-9684654D01*
X12648441Y-9694727D01*
X12651525Y-9711691D01*
X12655052Y-9735692D01*
X12656666Y-9747853D01*
X12659188Y-9761968D01*
X12662722Y-9775846D01*
X12663871Y-9779380D01*
X12666640Y-9789070D01*
X12666079Y-9793954D01*
X12664510Y-9795120D01*
X12663785Y-9796627D01*
X12667009Y-9797156D01*
X12671563Y-9798391D01*
X12669695Y-9802392D01*
X12669623Y-9802480D01*
X12667304Y-9808416D01*
X12669710Y-9816879D01*
X12669877Y-9817250D01*
X12672460Y-9828031D01*
X12670352Y-9837474D01*
X12668228Y-9845858D01*
X12670301Y-9851061D01*
X12671745Y-9852407D01*
X12675324Y-9858899D01*
X12674760Y-9869307D01*
X12674856Y-9884313D01*
X12679685Y-9904011D01*
X12682935Y-9916684D01*
X12686238Y-9934172D01*
X12689181Y-9954047D01*
X12691149Y-9971614D01*
X12693012Y-9990350D01*
X12694959Y-10007658D01*
X12696758Y-10021591D01*
X12698154Y-10030098D01*
X12699015Y-10041236D01*
X12719953Y-10041236D01*
X12718759Y-10032684D01*
X12717597Y-10017219D01*
X12718028Y-10006880D01*
X12718315Y-10005569D01*
X12721155Y-9995200D01*
X12724455Y-10009714D01*
X12727027Y-10021222D01*
X12729146Y-10031019D01*
X12729432Y-10032393D01*
X12731855Y-10039665D01*
X12734393Y-10040466D01*
X12736585Y-10035561D01*
X12737967Y-10025712D01*
X12738217Y-10017879D01*
X12737687Y-10002545D01*
X12736178Y-9980894D01*
X12735827Y-9976914D01*
X12721978Y-9976914D01*
X12721851Y-9986239D01*
X12720563Y-9991706D01*
X12718181Y-9991988D01*
X12716566Y-9989706D01*
X12714237Y-9983261D01*
X12711418Y-9972490D01*
X12709659Y-9964357D01*
X12708084Y-9954275D01*
X12706150Y-9938689D01*
X12704033Y-9919334D01*
X12701909Y-9897944D01*
X12699952Y-9876253D01*
X12698337Y-9855995D01*
X12697566Y-9844614D01*
X12697676Y-9839984D01*
X12698000Y-9833729D01*
X12698757Y-9827529D01*
X12700864Y-9827930D01*
X12703580Y-9831301D01*
X12706837Y-9840116D01*
X12706933Y-9854370D01*
X12706718Y-9856701D01*
X12706899Y-9876343D01*
X12710671Y-9897878D01*
X12710772Y-9898267D01*
X12713554Y-9910470D01*
X12714964Y-9919899D01*
X12714756Y-9924260D01*
X12714539Y-9929161D01*
X12715848Y-9938988D01*
X12718400Y-9951642D01*
X12718481Y-9951994D01*
X12720877Y-9965057D01*
X12721978Y-9976914D01*
X12735827Y-9976914D01*
X12733789Y-9953787D01*
X12730620Y-9922084D01*
X12726771Y-9886644D01*
X12722341Y-9848327D01*
X12717431Y-9807993D01*
X12712140Y-9766502D01*
X12706568Y-9724714D01*
X12700815Y-9683489D01*
X12694981Y-9643687D01*
X12694089Y-9637786D01*
X12691326Y-9618670D01*
X12689048Y-9601162D01*
X12687467Y-9587010D01*
X12686791Y-9577959D01*
X12686782Y-9577007D01*
X12685833Y-9568984D01*
X12683344Y-9565249D01*
X12683049Y-9565214D01*
X12680865Y-9568561D01*
X12681013Y-9578206D01*
X12681404Y-9581407D01*
X12682408Y-9590623D01*
X12683717Y-9605402D01*
X12685197Y-9624064D01*
X12686710Y-9644928D01*
X12687505Y-9656700D01*
X12689104Y-9678848D01*
X12690922Y-9700471D01*
X12692780Y-9719638D01*
X12694496Y-9734418D01*
X12695217Y-9739386D01*
X12697568Y-9754001D01*
X12699736Y-9767710D01*
X12700964Y-9775671D01*
X12703253Y-9784846D01*
X12706321Y-9790508D01*
X12706714Y-9790816D01*
X12708073Y-9795154D01*
X12705393Y-9799472D01*
X12701153Y-9806917D01*
X12700183Y-9811229D01*
X12697815Y-9816978D01*
X12695970Y-9818172D01*
X12693115Y-9815638D01*
X12690699Y-9806307D01*
X12689421Y-9796713D01*
X12688018Y-9784380D01*
X12685896Y-9767032D01*
X12683327Y-9746842D01*
X12680583Y-9725985D01*
X12680190Y-9723057D01*
X12676986Y-9698899D01*
X12673473Y-9671835D01*
X12670101Y-9645356D01*
X12667579Y-9625086D01*
X12664766Y-9602775D01*
X12661594Y-9578722D01*
X12658490Y-9556101D01*
X12656295Y-9540863D01*
X12653529Y-9520371D01*
X12651452Y-9502621D01*
X12640202Y-9502621D01*
X12639725Y-9511691D01*
X12638317Y-9514015D01*
X12636184Y-9509369D01*
X12635682Y-9507559D01*
X12635655Y-9499337D01*
X12637018Y-9495766D01*
X12639236Y-9494645D01*
X12640164Y-9500496D01*
X12640202Y-9502621D01*
X12651452Y-9502621D01*
X12650734Y-9496485D01*
X12648346Y-9473056D01*
X12647455Y-9462889D01*
X12646080Y-9448280D01*
X12638447Y-9448280D01*
X12637896Y-9451031D01*
X12635058Y-9455973D01*
X12633339Y-9453861D01*
X12633000Y-9448886D01*
X12634340Y-9443827D01*
X12636470Y-9443559D01*
X12638447Y-9448280D01*
X12646080Y-9448280D01*
X12645654Y-9443756D01*
X12643754Y-9430694D01*
X12641507Y-9422517D01*
X12638664Y-9418042D01*
X12637937Y-9417438D01*
X12635259Y-9414861D01*
X12634251Y-9411210D01*
X12635115Y-9405055D01*
X12638056Y-9394961D01*
X12643276Y-9379497D01*
X12643345Y-9379298D01*
X12650592Y-9357990D01*
X12655572Y-9342347D01*
X12658530Y-9331227D01*
X12659712Y-9323486D01*
X12659366Y-9317982D01*
X12657737Y-9313573D01*
X12657576Y-9313266D01*
X12652067Y-9305486D01*
X12648280Y-9301858D01*
X12644522Y-9295872D01*
X12642089Y-9286158D01*
X12641880Y-9284161D01*
X12639869Y-9271915D01*
X12635874Y-9266355D01*
X12629210Y-9267027D01*
X12622266Y-9271192D01*
X12612473Y-9276421D01*
X12606565Y-9275908D01*
X12601081Y-9274549D01*
X12590381Y-9273864D01*
X12576485Y-9273956D01*
X12571974Y-9274151D01*
X12558758Y-9274908D01*
X12549298Y-9276304D01*
X12542566Y-9279436D01*
X12537537Y-9285399D01*
X12533183Y-9295289D01*
X12528479Y-9310201D01*
X12524141Y-9325208D01*
X12518448Y-9341243D01*
X12511733Y-9354487D01*
X12504795Y-9363779D01*
X12498435Y-9367956D01*
X12495084Y-9367438D01*
X12491824Y-9368047D01*
X12491486Y-9369753D01*
X12489436Y-9376749D01*
X12484121Y-9387146D01*
X12476792Y-9399069D01*
X12468700Y-9410644D01*
X12461095Y-9419995D01*
X12455229Y-9425248D01*
X12454151Y-9425710D01*
X12449295Y-9428730D01*
X12443980Y-9435952D01*
X12437579Y-9448379D01*
X12431939Y-9461122D01*
X12419264Y-9490615D01*
X12408888Y-9514021D01*
X12400457Y-9532006D01*
X12393617Y-9545238D01*
X12388013Y-9554383D01*
X12383291Y-9560109D01*
X12379095Y-9563081D01*
X12377416Y-9563666D01*
X12371140Y-9566089D01*
X12369269Y-9570616D01*
X12370246Y-9578329D01*
X12370911Y-9587614D01*
X12368429Y-9590614D01*
X12366208Y-9589793D01*
X12363222Y-9586819D01*
X12358981Y-9580924D01*
X12352991Y-9571341D01*
X12344761Y-9557304D01*
X12333800Y-9538045D01*
X12327116Y-9526172D01*
X12318446Y-9511627D01*
X12306170Y-9492285D01*
X12290948Y-9469095D01*
X12273443Y-9443003D01*
X12254316Y-9414958D01*
X12234228Y-9385909D01*
X12213842Y-9356801D01*
X12193818Y-9328585D01*
X12174819Y-9302207D01*
X12157506Y-9278615D01*
X12142541Y-9258757D01*
X12130585Y-9243581D01*
X12126245Y-9238395D01*
X12113701Y-9223968D01*
X12104716Y-9214199D01*
X12098153Y-9208212D01*
X12092874Y-9205132D01*
X12087742Y-9204085D01*
X12081763Y-9204188D01*
X12075061Y-9204280D01*
X12069713Y-9202992D01*
X12064372Y-9199308D01*
X12057695Y-9192210D01*
X12048335Y-9180681D01*
X12044842Y-9176254D01*
X12029863Y-9157884D01*
X12017749Y-9145038D01*
X12007371Y-9137182D01*
X11997601Y-9133778D01*
X11987312Y-9134291D01*
G37*
X11987312Y-9134291D02*
X11975376Y-9138185D01*
X11969818Y-9140601D01*
X11959226Y-9146577D01*
X11953778Y-9153317D01*
X11952113Y-9158740D01*
X11949620Y-9167150D01*
X11946739Y-9171799D01*
X11946731Y-9171804D01*
X11944791Y-9176325D01*
X11943676Y-9185357D01*
X11943571Y-9189415D01*
X11942243Y-9203399D01*
X11938966Y-9217941D01*
X11938129Y-9220500D01*
X11934661Y-9233017D01*
X11932791Y-9245006D01*
X11932686Y-9247590D01*
X11931783Y-9256734D01*
X11929399Y-9270190D01*
X11926018Y-9285287D01*
X11925429Y-9287629D01*
X11920637Y-9314216D01*
X11918356Y-9345331D01*
X11918652Y-9378671D01*
X11921590Y-9411930D01*
X11921795Y-9413459D01*
X11923146Y-9426535D01*
X11924454Y-9444850D01*
X11925601Y-9466386D01*
X11926473Y-9489127D01*
X11926760Y-9499900D01*
X11927984Y-9537449D01*
X11930044Y-9580532D01*
X11932827Y-9627488D01*
X11936218Y-9676657D01*
X11940103Y-9726378D01*
X11944366Y-9774990D01*
X11948894Y-9820833D01*
X11948914Y-9821029D01*
X11951594Y-9846625D01*
X11954157Y-9871402D01*
X11956456Y-9893904D01*
X11958343Y-9912676D01*
X11959668Y-9926262D01*
X11960005Y-9929886D01*
X11962431Y-9952543D01*
X11965718Y-9977518D01*
X11969523Y-10002593D01*
X11973503Y-10025550D01*
X11977314Y-10044169D01*
X11978390Y-10048643D01*
X11982132Y-10064338D01*
X11985742Y-10080879D01*
X11987209Y-10088228D01*
X11991225Y-10107903D01*
X11994814Y-10121507D01*
X11998416Y-10130175D01*
X12002477Y-10135041D01*
X12006245Y-10136925D01*
X12015755Y-10141420D01*
X12020580Y-10144874D01*
X12030381Y-10148730D01*
X12037816Y-10148164D01*
X12046083Y-10147639D01*
X12048800Y-10149928D01*
X12051724Y-10152292D01*
X12056911Y-10151768D01*
X12064513Y-10152125D01*
X12073217Y-10157750D01*
X12076569Y-10160837D01*
X12088114Y-10172028D01*
X12101114Y-10159028D01*
X12108639Y-10150489D01*
X12113332Y-10143213D01*
X12114114Y-10140572D01*
X12116823Y-10134979D01*
X12123491Y-10128237D01*
X12125000Y-10127069D01*
X12131355Y-10121592D01*
X12134619Y-10115599D01*
X12135804Y-10106475D01*
X12135938Y-10098839D01*
X12137065Y-10083747D01*
X12139861Y-10068531D01*
X12141601Y-10062545D01*
X12144563Y-10050827D01*
X12145369Y-10040436D01*
X12144981Y-10037548D01*
X12145060Y-10029322D01*
X12150395Y-10020785D01*
X12152557Y-10018428D01*
X12162362Y-10008193D01*
X12159802Y-9962107D01*
X12157980Y-9937442D01*
X12155593Y-9919481D01*
X12152563Y-9907690D01*
X12151277Y-9904811D01*
X12147683Y-9894588D01*
X12145182Y-9881060D01*
X12144581Y-9873643D01*
X12143361Y-9858766D01*
X12141108Y-9843939D01*
X12139850Y-9838269D01*
X12137439Y-9826088D01*
X12135350Y-9810572D01*
X12134314Y-9798917D01*
X12133237Y-9786413D01*
X12131919Y-9777025D01*
X12130703Y-9772907D01*
X12129010Y-9767606D01*
X12128641Y-9758638D01*
X12129439Y-9749191D01*
X12131248Y-9742449D01*
X12132257Y-9741200D01*
X12135156Y-9736146D01*
X12135830Y-9731007D01*
X12135126Y-9725986D01*
X12132834Y-9727703D01*
X12132655Y-9727980D01*
X12128934Y-9730649D01*
X12127209Y-9729138D01*
X12127402Y-9724164D01*
X12128569Y-9723094D01*
X12131343Y-9717823D01*
X12132012Y-9710357D01*
X12128629Y-9710357D01*
X12127301Y-9713344D01*
X12126209Y-9712776D01*
X12125775Y-9708470D01*
X12126209Y-9707938D01*
X12128367Y-9708436D01*
X12128629Y-9710357D01*
X12132012Y-9710357D01*
X12132145Y-9708874D01*
X12131032Y-9699535D01*
X12128061Y-9693098D01*
X12128057Y-9693094D01*
X12125853Y-9687586D01*
X12127735Y-9684204D01*
X12130197Y-9676297D01*
X12128606Y-9666219D01*
X12123728Y-9657221D01*
X12120699Y-9654414D01*
X12115209Y-9646503D01*
X12113101Y-9634046D01*
X12114622Y-9619041D01*
X12115758Y-9614566D01*
X12117133Y-9607330D01*
X12115204Y-9606279D01*
X12114939Y-9606433D01*
X12111701Y-9605284D01*
X12109099Y-9599268D01*
X12107698Y-9590774D01*
X12108062Y-9582191D01*
X12108645Y-9579810D01*
X12111902Y-9573903D01*
X12114359Y-9572471D01*
X12117350Y-9569677D01*
X12117168Y-9562919D01*
X12116667Y-9561586D01*
X12110486Y-9561586D01*
X12109158Y-9564572D01*
X12108067Y-9564005D01*
X12107632Y-9559699D01*
X12108067Y-9559167D01*
X12110224Y-9559665D01*
X12110486Y-9561586D01*
X12116667Y-9561586D01*
X12114057Y-9554637D01*
X12112301Y-9551802D01*
X12108982Y-9543712D01*
X12109201Y-9537929D01*
X12109003Y-9531378D01*
X12106906Y-9528959D01*
X12104253Y-9525584D01*
X12105345Y-9519487D01*
X12107266Y-9514805D01*
X12112333Y-9506607D01*
X12116856Y-9505624D01*
X12120513Y-9511818D01*
X12121708Y-9516528D01*
X12123496Y-9523196D01*
X12125282Y-9523349D01*
X12126667Y-9520675D01*
X12128179Y-9518784D01*
X12130541Y-9519053D01*
X12134149Y-9522008D01*
X12139396Y-9528174D01*
X12146677Y-9538077D01*
X12156387Y-9552243D01*
X12168920Y-9571198D01*
X12184672Y-9595466D01*
X12195757Y-9612679D01*
X12219179Y-9648448D01*
X12241393Y-9681057D01*
X12262062Y-9710077D01*
X12280850Y-9735079D01*
X12297422Y-9755635D01*
X12311442Y-9771317D01*
X12322574Y-9781695D01*
X12330482Y-9786341D01*
X12331986Y-9786557D01*
X12337202Y-9788555D01*
X12345055Y-9793454D01*
X12346266Y-9794331D01*
X12354862Y-9799138D01*
X12365463Y-9801405D01*
X12378776Y-9801794D01*
X12392325Y-9801052D01*
X12401944Y-9798566D01*
X12410934Y-9793242D01*
X12415834Y-9789484D01*
X12429696Y-9777956D01*
X12441072Y-9767087D01*
X12451797Y-9754888D01*
X12463707Y-9739369D01*
X12469714Y-9731089D01*
X12478616Y-9719037D01*
X12486066Y-9709598D01*
X12491003Y-9704081D01*
X12492265Y-9703194D01*
X12495408Y-9704849D01*
X12498343Y-9710474D01*
X12501208Y-9720696D01*
X12504140Y-9736147D01*
X12507276Y-9757456D01*
X12510753Y-9785253D01*
X12511476Y-9791429D01*
X12519338Y-9857355D01*
X12526951Y-9917562D01*
X12534285Y-9971877D01*
X12541312Y-10020130D01*
X12548004Y-10062149D01*
X12554331Y-10097764D01*
X12560267Y-10126802D01*
X12565781Y-10149092D01*
X12570846Y-10164464D01*
X12574880Y-10172096D01*
X12578900Y-10178355D01*
X12582505Y-10186966D01*
X12586220Y-10199475D01*
X12590570Y-10217424D01*
X12591108Y-10219789D01*
X12593496Y-10226656D01*
X12596530Y-10227089D01*
X12597657Y-10226123D01*
X12599841Y-10220070D01*
X12601041Y-10207942D01*
X12601167Y-10192034D01*
X12601213Y-10177654D01*
X12602039Y-10170179D01*
X12603485Y-10169319D01*
X12605393Y-10174783D01*
X12607606Y-10186280D01*
X12609965Y-10203519D01*
X12610644Y-10209466D01*
X12613004Y-10226845D01*
X12615814Y-10238515D01*
X12619506Y-10246023D01*
X12621583Y-10248467D01*
X12629057Y-10255941D01*
X12632843Y-10245985D01*
X12635596Y-10237672D01*
X12636629Y-10232635D01*
X12638766Y-10229263D01*
X12644128Y-10230723D01*
X12651138Y-10236405D01*
X12653642Y-10239221D01*
X12659737Y-10245451D01*
X12663610Y-10245964D01*
X12665008Y-10244454D01*
X12671151Y-10241378D01*
X12677452Y-10242040D01*
X12684823Y-10242556D01*
X12688654Y-10238104D01*
X12689411Y-10235971D01*
X12693519Y-10226989D01*
X12699369Y-10217706D01*
X12702176Y-10213645D01*
X12703994Y-10209547D01*
X12704847Y-10204116D01*
X12704756Y-10196054D01*
X12703746Y-10184066D01*
X12701839Y-10166853D01*
X12700477Y-10155212D01*
X12697684Y-10127265D01*
X12696543Y-10105273D01*
X12697045Y-10089511D01*
X12699179Y-10080254D01*
X12702936Y-10077776D01*
X12703283Y-10077872D01*
X12706719Y-10082297D01*
X12708403Y-10090747D01*
X12708134Y-10100160D01*
X12705707Y-10107469D01*
X12705286Y-10108029D01*
X12703139Y-10112950D01*
X12706020Y-10118639D01*
X12708667Y-10121633D01*
X12714936Y-10130943D01*
X12716135Y-10139157D01*
X12712829Y-10143971D01*
X12709204Y-10148401D01*
X12711898Y-10151914D01*
X12718271Y-10153043D01*
X12722557Y-10152785D01*
X12725222Y-10151082D01*
X12726651Y-10146541D01*
X12727230Y-10137769D01*
X12727342Y-10123374D01*
X12727343Y-10120222D01*
X12727093Y-10113129D01*
X12712829Y-10113129D01*
X12711501Y-10116115D01*
X12710409Y-10115548D01*
X12709975Y-10111241D01*
X12710409Y-10110710D01*
X12712567Y-10111208D01*
X12712829Y-10113129D01*
X12727093Y-10113129D01*
X12726660Y-10100872D01*
X12724846Y-10078470D01*
X12722250Y-10057067D01*
X12721409Y-10051669D01*
X12719953Y-10041236D01*
X12699015Y-10041236D01*
X12697082Y-10050219D01*
X12692931Y-10054851D01*
X12691599Y-10055071D01*
X12689714Y-10051777D01*
X12687202Y-10043058D01*
X12684549Y-10030662D01*
X12684062Y-10027997D01*
X12681977Y-10013732D01*
X12680968Y-10001389D01*
X12681227Y-9993434D01*
X12681331Y-9992970D01*
X12681287Y-9983849D01*
X12678670Y-9975594D01*
X12677391Y-9973017D01*
X12676280Y-9970371D01*
X12675246Y-9966978D01*
X12674196Y-9962155D01*
X12673039Y-9955222D01*
X12671683Y-9945497D01*
X12670035Y-9932300D01*
X12668004Y-9914949D01*
X12665499Y-9892764D01*
X12662427Y-9865063D01*
X12658695Y-9831166D01*
X12656584Y-9811957D01*
X12653435Y-9783598D01*
X12650451Y-9757286D01*
X12647745Y-9733964D01*
X12645427Y-9714571D01*
X12643609Y-9700052D01*
X12642403Y-9691346D01*
X12642071Y-9689493D01*
X12641788Y-9683226D01*
X12643489Y-9681329D01*
X12645772Y-9684654D01*
X12648441Y-9694727D01*
X12651525Y-9711691D01*
X12655052Y-9735692D01*
X12656666Y-9747853D01*
X12659188Y-9761968D01*
X12662722Y-9775846D01*
X12663871Y-9779380D01*
X12666640Y-9789070D01*
X12666079Y-9793954D01*
X12664510Y-9795120D01*
X12663785Y-9796627D01*
X12667009Y-9797156D01*
X12671563Y-9798391D01*
X12669695Y-9802392D01*
X12669623Y-9802480D01*
X12667304Y-9808416D01*
X12669710Y-9816879D01*
X12669877Y-9817250D01*
X12672460Y-9828031D01*
X12670352Y-9837474D01*
X12668228Y-9845858D01*
X12670301Y-9851061D01*
X12671745Y-9852407D01*
X12675324Y-9858899D01*
X12674760Y-9869307D01*
X12674856Y-9884313D01*
X12679685Y-9904011D01*
X12682935Y-9916684D01*
X12686238Y-9934172D01*
X12689181Y-9954047D01*
X12691149Y-9971614D01*
X12693012Y-9990350D01*
X12694959Y-10007658D01*
X12696758Y-10021591D01*
X12698154Y-10030098D01*
X12699015Y-10041236D01*
X12719953Y-10041236D01*
X12718759Y-10032684D01*
X12717597Y-10017219D01*
X12718028Y-10006880D01*
X12718315Y-10005569D01*
X12721155Y-9995200D01*
X12724455Y-10009714D01*
X12727027Y-10021222D01*
X12729146Y-10031019D01*
X12729432Y-10032393D01*
X12731855Y-10039665D01*
X12734393Y-10040466D01*
X12736585Y-10035561D01*
X12737967Y-10025712D01*
X12738217Y-10017879D01*
X12737687Y-10002545D01*
X12736178Y-9980894D01*
X12735827Y-9976914D01*
X12721978Y-9976914D01*
X12721851Y-9986239D01*
X12720563Y-9991706D01*
X12718181Y-9991988D01*
X12716566Y-9989706D01*
X12714237Y-9983261D01*
X12711418Y-9972490D01*
X12709659Y-9964357D01*
X12708084Y-9954275D01*
X12706150Y-9938689D01*
X12704033Y-9919334D01*
X12701909Y-9897944D01*
X12699952Y-9876253D01*
X12698337Y-9855995D01*
X12697566Y-9844614D01*
X12697676Y-9839984D01*
X12698000Y-9833729D01*
X12698757Y-9827529D01*
X12700864Y-9827930D01*
X12703580Y-9831301D01*
X12706837Y-9840116D01*
X12706933Y-9854370D01*
X12706718Y-9856701D01*
X12706899Y-9876343D01*
X12710671Y-9897878D01*
X12710772Y-9898267D01*
X12713554Y-9910470D01*
X12714964Y-9919899D01*
X12714756Y-9924260D01*
X12714539Y-9929161D01*
X12715848Y-9938988D01*
X12718400Y-9951642D01*
X12718481Y-9951994D01*
X12720877Y-9965057D01*
X12721978Y-9976914D01*
X12735827Y-9976914D01*
X12733789Y-9953787D01*
X12730620Y-9922084D01*
X12726771Y-9886644D01*
X12722341Y-9848327D01*
X12717431Y-9807993D01*
X12712140Y-9766502D01*
X12706568Y-9724714D01*
X12700815Y-9683489D01*
X12694981Y-9643687D01*
X12694089Y-9637786D01*
X12691326Y-9618670D01*
X12689048Y-9601162D01*
X12687467Y-9587010D01*
X12686791Y-9577959D01*
X12686782Y-9577007D01*
X12685833Y-9568984D01*
X12683344Y-9565249D01*
X12683049Y-9565214D01*
X12680865Y-9568561D01*
X12681013Y-9578206D01*
X12681404Y-9581407D01*
X12682408Y-9590623D01*
X12683717Y-9605402D01*
X12685197Y-9624064D01*
X12686710Y-9644928D01*
X12687505Y-9656700D01*
X12689104Y-9678848D01*
X12690922Y-9700471D01*
X12692780Y-9719638D01*
X12694496Y-9734418D01*
X12695217Y-9739386D01*
X12697568Y-9754001D01*
X12699736Y-9767710D01*
X12700964Y-9775671D01*
X12703253Y-9784846D01*
X12706321Y-9790508D01*
X12706714Y-9790816D01*
X12708073Y-9795154D01*
X12705393Y-9799472D01*
X12701153Y-9806917D01*
X12700183Y-9811229D01*
X12697815Y-9816978D01*
X12695970Y-9818172D01*
X12693115Y-9815638D01*
X12690699Y-9806307D01*
X12689421Y-9796713D01*
X12688018Y-9784380D01*
X12685896Y-9767032D01*
X12683327Y-9746842D01*
X12680583Y-9725985D01*
X12680190Y-9723057D01*
X12676986Y-9698899D01*
X12673473Y-9671835D01*
X12670101Y-9645356D01*
X12667579Y-9625086D01*
X12664766Y-9602775D01*
X12661594Y-9578722D01*
X12658490Y-9556101D01*
X12656295Y-9540863D01*
X12653529Y-9520371D01*
X12651452Y-9502621D01*
X12640202Y-9502621D01*
X12639725Y-9511691D01*
X12638317Y-9514015D01*
X12636184Y-9509369D01*
X12635682Y-9507559D01*
X12635655Y-9499337D01*
X12637018Y-9495766D01*
X12639236Y-9494645D01*
X12640164Y-9500496D01*
X12640202Y-9502621D01*
X12651452Y-9502621D01*
X12650734Y-9496485D01*
X12648346Y-9473056D01*
X12647455Y-9462889D01*
X12646080Y-9448280D01*
X12638447Y-9448280D01*
X12637896Y-9451031D01*
X12635058Y-9455973D01*
X12633339Y-9453861D01*
X12633000Y-9448886D01*
X12634340Y-9443827D01*
X12636470Y-9443559D01*
X12638447Y-9448280D01*
X12646080Y-9448280D01*
X12645654Y-9443756D01*
X12643754Y-9430694D01*
X12641507Y-9422517D01*
X12638664Y-9418042D01*
X12637937Y-9417438D01*
X12635259Y-9414861D01*
X12634251Y-9411210D01*
X12635115Y-9405055D01*
X12638056Y-9394961D01*
X12643276Y-9379497D01*
X12643345Y-9379298D01*
X12650592Y-9357990D01*
X12655572Y-9342347D01*
X12658530Y-9331227D01*
X12659712Y-9323486D01*
X12659366Y-9317982D01*
X12657737Y-9313573D01*
X12657576Y-9313266D01*
X12652067Y-9305486D01*
X12648280Y-9301858D01*
X12644522Y-9295872D01*
X12642089Y-9286158D01*
X12641880Y-9284161D01*
X12639869Y-9271915D01*
X12635874Y-9266355D01*
X12629210Y-9267027D01*
X12622266Y-9271192D01*
X12612473Y-9276421D01*
X12606565Y-9275908D01*
X12601081Y-9274549D01*
X12590381Y-9273864D01*
X12576485Y-9273956D01*
X12571974Y-9274151D01*
X12558758Y-9274908D01*
X12549298Y-9276304D01*
X12542566Y-9279436D01*
X12537537Y-9285399D01*
X12533183Y-9295289D01*
X12528479Y-9310201D01*
X12524141Y-9325208D01*
X12518448Y-9341243D01*
X12511733Y-9354487D01*
X12504795Y-9363779D01*
X12498435Y-9367956D01*
X12495084Y-9367438D01*
X12491824Y-9368047D01*
X12491486Y-9369753D01*
X12489436Y-9376749D01*
X12484121Y-9387146D01*
X12476792Y-9399069D01*
X12468700Y-9410644D01*
X12461095Y-9419995D01*
X12455229Y-9425248D01*
X12454151Y-9425710D01*
X12449295Y-9428730D01*
X12443980Y-9435952D01*
X12437579Y-9448379D01*
X12431939Y-9461122D01*
X12419264Y-9490615D01*
X12408888Y-9514021D01*
X12400457Y-9532006D01*
X12393617Y-9545238D01*
X12388013Y-9554383D01*
X12383291Y-9560109D01*
X12379095Y-9563081D01*
X12377416Y-9563666D01*
X12371140Y-9566089D01*
X12369269Y-9570616D01*
X12370246Y-9578329D01*
X12370911Y-9587614D01*
X12368429Y-9590614D01*
X12366208Y-9589793D01*
X12363222Y-9586819D01*
X12358981Y-9580924D01*
X12352991Y-9571341D01*
X12344761Y-9557304D01*
X12333800Y-9538045D01*
X12327116Y-9526172D01*
X12318446Y-9511627D01*
X12306170Y-9492285D01*
X12290948Y-9469095D01*
X12273443Y-9443003D01*
X12254316Y-9414958D01*
X12234228Y-9385909D01*
X12213842Y-9356801D01*
X12193818Y-9328585D01*
X12174819Y-9302207D01*
X12157506Y-9278615D01*
X12142541Y-9258757D01*
X12130585Y-9243581D01*
X12126245Y-9238395D01*
X12113701Y-9223968D01*
X12104716Y-9214199D01*
X12098153Y-9208212D01*
X12092874Y-9205132D01*
X12087742Y-9204085D01*
X12081763Y-9204188D01*
X12075061Y-9204280D01*
X12069713Y-9202992D01*
X12064372Y-9199308D01*
X12057695Y-9192210D01*
X12048335Y-9180681D01*
X12044842Y-9176254D01*
X12029863Y-9157884D01*
X12017749Y-9145038D01*
X12007371Y-9137182D01*
X11997601Y-9133778D01*
X11987312Y-9134291D01*
G36*
X16262781Y-10255852D02*
G01*
X16262347Y-10260159D01*
X16262781Y-10260691D01*
X16264938Y-10260192D01*
X16265200Y-10258271D01*
X16263872Y-10255285D01*
X16262781Y-10255852D01*
G37*
X16262781Y-10255852D02*
X16262347Y-10260159D01*
X16262781Y-10260691D01*
X16264938Y-10260192D01*
X16265200Y-10258271D01*
X16263872Y-10255285D01*
X16262781Y-10255852D01*
G36*
X12830444Y-9371123D02*
G01*
X12825310Y-9372902D01*
X12819133Y-9376512D01*
X12814268Y-9382327D01*
X12810260Y-9391501D01*
X12806649Y-9405190D01*
X12802979Y-9424550D01*
X12801614Y-9432771D01*
X12799161Y-9449492D01*
X12797555Y-9465174D01*
X12796824Y-9481071D01*
X12796998Y-9498442D01*
X12798108Y-9518540D01*
X12800182Y-9542624D01*
X12803251Y-9571947D01*
X12805357Y-9590614D01*
X12809283Y-9626207D01*
X12812091Y-9654779D01*
X12813780Y-9676301D01*
X12814347Y-9690741D01*
X12813790Y-9698067D01*
X12812516Y-9698768D01*
X12811334Y-9694561D01*
X12809363Y-9683977D01*
X12806730Y-9667838D01*
X12803561Y-9646966D01*
X12799983Y-9622184D01*
X12796124Y-9594312D01*
X12794331Y-9580997D01*
X12791302Y-9569216D01*
X12786370Y-9559240D01*
X12785205Y-9557733D01*
X12778090Y-9549529D01*
X12779980Y-9560093D01*
X12781079Y-9567669D01*
X12782772Y-9581150D01*
X12784942Y-9599459D01*
X12787472Y-9621514D01*
X12790246Y-9646237D01*
X12793146Y-9672549D01*
X12796055Y-9699369D01*
X12798856Y-9725620D01*
X12801434Y-9750221D01*
X12803669Y-9772094D01*
X12805447Y-9790158D01*
X12806649Y-9803335D01*
X12807159Y-9810545D01*
X12807168Y-9811050D01*
X12805885Y-9819684D01*
X12802540Y-9822843D01*
X12801218Y-9822806D01*
X12800175Y-9823140D01*
X12799450Y-9824508D01*
X12799083Y-9827576D01*
X12799115Y-9833008D01*
X12799586Y-9841468D01*
X12800535Y-9853622D01*
X12802003Y-9870134D01*
X12804030Y-9891668D01*
X12806656Y-9918889D01*
X12809922Y-9952463D01*
X12811079Y-9964357D01*
X12813905Y-9992776D01*
X12816687Y-10019583D01*
X12819307Y-10043723D01*
X12821646Y-10064142D01*
X12823586Y-10079786D01*
X12825009Y-10089601D01*
X12825339Y-10091357D01*
X12827698Y-10103763D01*
X12830318Y-10119613D01*
X12832297Y-10133086D01*
X12833638Y-10142316D01*
X12834473Y-10146173D01*
X12834830Y-10144238D01*
X12834743Y-10136093D01*
X12834241Y-10121319D01*
X12833864Y-10111821D01*
X12833231Y-10091094D01*
X12833318Y-10077115D01*
X12834145Y-10069409D01*
X12835736Y-10067500D01*
X12835899Y-10067585D01*
X12838745Y-10072644D01*
X12839829Y-10080576D01*
X12840407Y-10089730D01*
X12842151Y-10105659D01*
X12845073Y-10128456D01*
X12849185Y-10158217D01*
X12854498Y-10195034D01*
X12854726Y-10196586D01*
X12857793Y-10214968D01*
X12860606Y-10226317D01*
X12863257Y-10230848D01*
X12865837Y-10228779D01*
X12867007Y-10225726D01*
X12869865Y-10220748D01*
X12872703Y-10222024D01*
X12874949Y-10228570D01*
X12876032Y-10239404D01*
X12876059Y-10241274D01*
X12877965Y-10256824D01*
X12883531Y-10266122D01*
X12892570Y-10269157D01*
X12899661Y-10267364D01*
X12901514Y-10262114D01*
X12903257Y-10254583D01*
X12907686Y-10253379D01*
X12913599Y-10258701D01*
X12914472Y-10259970D01*
X12919938Y-10266043D01*
X12927518Y-10268694D01*
X12936403Y-10269157D01*
X12946490Y-10268631D01*
X12951186Y-10266522D01*
X12952314Y-10262197D01*
X12953763Y-10251771D01*
X12957615Y-10246276D01*
X12961465Y-10246104D01*
X12965494Y-10244489D01*
X12968567Y-10237290D01*
X12970595Y-10226125D01*
X12971488Y-10212616D01*
X12971159Y-10198381D01*
X12969517Y-10185041D01*
X12966473Y-10174216D01*
X12965528Y-10172179D01*
X12960579Y-10159508D01*
X12959869Y-10149919D01*
X12963075Y-10144416D01*
X12969873Y-10144006D01*
X12974011Y-10145746D01*
X12978718Y-10149962D01*
X12980905Y-10157414D01*
X12981343Y-10167143D01*
X12982411Y-10183843D01*
X12985250Y-10195985D01*
X12989311Y-10203046D01*
X12994046Y-10204500D01*
X12998905Y-10199822D01*
X13003341Y-10188486D01*
X13003403Y-10188257D01*
X13004767Y-10179165D01*
X13005796Y-10164155D01*
X13006491Y-10144557D01*
X13006616Y-10136714D01*
X12977714Y-10136714D01*
X12975900Y-10138529D01*
X12974086Y-10136714D01*
X12975900Y-10134900D01*
X12977714Y-10136714D01*
X13006616Y-10136714D01*
X13006855Y-10121702D01*
X13006888Y-10096920D01*
X13006592Y-10071543D01*
X13005968Y-10046902D01*
X13005019Y-10024326D01*
X13003746Y-10005147D01*
X13003189Y-9999148D01*
X13001736Y-9982702D01*
X13000206Y-9961601D01*
X12998772Y-9938439D01*
X12997606Y-9915815D01*
X12997506Y-9913557D01*
X12996182Y-9889411D01*
X12995964Y-9886343D01*
X12818057Y-9886343D01*
X12816243Y-9888157D01*
X12814429Y-9886343D01*
X12816243Y-9884529D01*
X12818057Y-9886343D01*
X12995964Y-9886343D01*
X12994460Y-9865171D01*
X12814252Y-9865171D01*
X12813816Y-9871909D01*
X12812908Y-9873643D01*
X12811343Y-9870443D01*
X12809057Y-9862294D01*
X12807737Y-9856528D01*
X12806087Y-9845764D01*
X12806027Y-9837984D01*
X12807313Y-9834405D01*
X12809702Y-9836243D01*
X12811171Y-9839412D01*
X12812796Y-9846309D01*
X12813867Y-9855766D01*
X12814252Y-9865171D01*
X12994460Y-9865171D01*
X12994291Y-9862790D01*
X12992089Y-9836960D01*
X12990064Y-9817400D01*
X12828943Y-9817400D01*
X12827129Y-9819214D01*
X12825314Y-9817400D01*
X12827129Y-9815586D01*
X12828943Y-9817400D01*
X12990064Y-9817400D01*
X12989876Y-9815586D01*
X12987377Y-9793296D01*
X12986777Y-9787555D01*
X12828543Y-9787555D01*
X12826026Y-9788739D01*
X12825314Y-9788371D01*
X12822416Y-9783317D01*
X12821741Y-9778179D01*
X12822318Y-9773002D01*
X12824491Y-9774451D01*
X12825314Y-9775671D01*
X12828306Y-9782415D01*
X12828543Y-9787555D01*
X12986777Y-9787555D01*
X12984834Y-9768944D01*
X12983226Y-9752429D01*
X12822941Y-9752429D01*
X12821346Y-9753900D01*
X12818673Y-9750858D01*
X12818057Y-9746643D01*
X12818642Y-9740736D01*
X12819448Y-9739386D01*
X12821354Y-9742378D01*
X12822737Y-9746643D01*
X12822941Y-9752429D01*
X12983226Y-9752429D01*
X12982594Y-9745935D01*
X12981366Y-9732129D01*
X12979656Y-9715001D01*
X12977611Y-9699502D01*
X12975537Y-9687752D01*
X12974323Y-9683143D01*
X12971057Y-9671981D01*
X12968088Y-9658475D01*
X12965668Y-9644393D01*
X12964048Y-9631499D01*
X12963477Y-9621561D01*
X12964207Y-9616343D01*
X12964778Y-9615959D01*
X12966410Y-9614740D01*
X12964576Y-9613237D01*
X12962324Y-9608657D01*
X12959726Y-9598645D01*
X12957205Y-9584988D01*
X12956180Y-9577914D01*
X12953073Y-9559332D01*
X12948462Y-9537526D01*
X12943149Y-9516157D01*
X12940896Y-9508177D01*
X12935256Y-9487519D01*
X12929651Y-9464367D01*
X12925015Y-9442665D01*
X12923700Y-9435606D01*
X12917458Y-9400114D01*
X12906025Y-9398990D01*
X12895495Y-9399374D01*
X12887430Y-9401698D01*
X12878329Y-9404016D01*
X12870875Y-9399872D01*
X12864444Y-9388892D01*
X12863855Y-9387457D01*
X12855956Y-9375824D01*
X12844514Y-9370264D01*
X12830444Y-9371123D01*
G37*
X12830444Y-9371123D02*
X12825310Y-9372902D01*
X12819133Y-9376512D01*
X12814268Y-9382327D01*
X12810260Y-9391501D01*
X12806649Y-9405190D01*
X12802979Y-9424550D01*
X12801614Y-9432771D01*
X12799161Y-9449492D01*
X12797555Y-9465174D01*
X12796824Y-9481071D01*
X12796998Y-9498442D01*
X12798108Y-9518540D01*
X12800182Y-9542624D01*
X12803251Y-9571947D01*
X12805357Y-9590614D01*
X12809283Y-9626207D01*
X12812091Y-9654779D01*
X12813780Y-9676301D01*
X12814347Y-9690741D01*
X12813790Y-9698067D01*
X12812516Y-9698768D01*
X12811334Y-9694561D01*
X12809363Y-9683977D01*
X12806730Y-9667838D01*
X12803561Y-9646966D01*
X12799983Y-9622184D01*
X12796124Y-9594312D01*
X12794331Y-9580997D01*
X12791302Y-9569216D01*
X12786370Y-9559240D01*
X12785205Y-9557733D01*
X12778090Y-9549529D01*
X12779980Y-9560093D01*
X12781079Y-9567669D01*
X12782772Y-9581150D01*
X12784942Y-9599459D01*
X12787472Y-9621514D01*
X12790246Y-9646237D01*
X12793146Y-9672549D01*
X12796055Y-9699369D01*
X12798856Y-9725620D01*
X12801434Y-9750221D01*
X12803669Y-9772094D01*
X12805447Y-9790158D01*
X12806649Y-9803335D01*
X12807159Y-9810545D01*
X12807168Y-9811050D01*
X12805885Y-9819684D01*
X12802540Y-9822843D01*
X12801218Y-9822806D01*
X12800175Y-9823140D01*
X12799450Y-9824508D01*
X12799083Y-9827576D01*
X12799115Y-9833008D01*
X12799586Y-9841468D01*
X12800535Y-9853622D01*
X12802003Y-9870134D01*
X12804030Y-9891668D01*
X12806656Y-9918889D01*
X12809922Y-9952463D01*
X12811079Y-9964357D01*
X12813905Y-9992776D01*
X12816687Y-10019583D01*
X12819307Y-10043723D01*
X12821646Y-10064142D01*
X12823586Y-10079786D01*
X12825009Y-10089601D01*
X12825339Y-10091357D01*
X12827698Y-10103763D01*
X12830318Y-10119613D01*
X12832297Y-10133086D01*
X12833638Y-10142316D01*
X12834473Y-10146173D01*
X12834830Y-10144238D01*
X12834743Y-10136093D01*
X12834241Y-10121319D01*
X12833864Y-10111821D01*
X12833231Y-10091094D01*
X12833318Y-10077115D01*
X12834145Y-10069409D01*
X12835736Y-10067500D01*
X12835899Y-10067585D01*
X12838745Y-10072644D01*
X12839829Y-10080576D01*
X12840407Y-10089730D01*
X12842151Y-10105659D01*
X12845073Y-10128456D01*
X12849185Y-10158217D01*
X12854498Y-10195034D01*
X12854726Y-10196586D01*
X12857793Y-10214968D01*
X12860606Y-10226317D01*
X12863257Y-10230848D01*
X12865837Y-10228779D01*
X12867007Y-10225726D01*
X12869865Y-10220748D01*
X12872703Y-10222024D01*
X12874949Y-10228570D01*
X12876032Y-10239404D01*
X12876059Y-10241274D01*
X12877965Y-10256824D01*
X12883531Y-10266122D01*
X12892570Y-10269157D01*
X12899661Y-10267364D01*
X12901514Y-10262114D01*
X12903257Y-10254583D01*
X12907686Y-10253379D01*
X12913599Y-10258701D01*
X12914472Y-10259970D01*
X12919938Y-10266043D01*
X12927518Y-10268694D01*
X12936403Y-10269157D01*
X12946490Y-10268631D01*
X12951186Y-10266522D01*
X12952314Y-10262197D01*
X12953763Y-10251771D01*
X12957615Y-10246276D01*
X12961465Y-10246104D01*
X12965494Y-10244489D01*
X12968567Y-10237290D01*
X12970595Y-10226125D01*
X12971488Y-10212616D01*
X12971159Y-10198381D01*
X12969517Y-10185041D01*
X12966473Y-10174216D01*
X12965528Y-10172179D01*
X12960579Y-10159508D01*
X12959869Y-10149919D01*
X12963075Y-10144416D01*
X12969873Y-10144006D01*
X12974011Y-10145746D01*
X12978718Y-10149962D01*
X12980905Y-10157414D01*
X12981343Y-10167143D01*
X12982411Y-10183843D01*
X12985250Y-10195985D01*
X12989311Y-10203046D01*
X12994046Y-10204500D01*
X12998905Y-10199822D01*
X13003341Y-10188486D01*
X13003403Y-10188257D01*
X13004767Y-10179165D01*
X13005796Y-10164155D01*
X13006491Y-10144557D01*
X13006616Y-10136714D01*
X12977714Y-10136714D01*
X12975900Y-10138529D01*
X12974086Y-10136714D01*
X12975900Y-10134900D01*
X12977714Y-10136714D01*
X13006616Y-10136714D01*
X13006855Y-10121702D01*
X13006888Y-10096920D01*
X13006592Y-10071543D01*
X13005968Y-10046902D01*
X13005019Y-10024326D01*
X13003746Y-10005147D01*
X13003189Y-9999148D01*
X13001736Y-9982702D01*
X13000206Y-9961601D01*
X12998772Y-9938439D01*
X12997606Y-9915815D01*
X12997506Y-9913557D01*
X12996182Y-9889411D01*
X12995964Y-9886343D01*
X12818057Y-9886343D01*
X12816243Y-9888157D01*
X12814429Y-9886343D01*
X12816243Y-9884529D01*
X12818057Y-9886343D01*
X12995964Y-9886343D01*
X12994460Y-9865171D01*
X12814252Y-9865171D01*
X12813816Y-9871909D01*
X12812908Y-9873643D01*
X12811343Y-9870443D01*
X12809057Y-9862294D01*
X12807737Y-9856528D01*
X12806087Y-9845764D01*
X12806027Y-9837984D01*
X12807313Y-9834405D01*
X12809702Y-9836243D01*
X12811171Y-9839412D01*
X12812796Y-9846309D01*
X12813867Y-9855766D01*
X12814252Y-9865171D01*
X12994460Y-9865171D01*
X12994291Y-9862790D01*
X12992089Y-9836960D01*
X12990064Y-9817400D01*
X12828943Y-9817400D01*
X12827129Y-9819214D01*
X12825314Y-9817400D01*
X12827129Y-9815586D01*
X12828943Y-9817400D01*
X12990064Y-9817400D01*
X12989876Y-9815586D01*
X12987377Y-9793296D01*
X12986777Y-9787555D01*
X12828543Y-9787555D01*
X12826026Y-9788739D01*
X12825314Y-9788371D01*
X12822416Y-9783317D01*
X12821741Y-9778179D01*
X12822318Y-9773002D01*
X12824491Y-9774451D01*
X12825314Y-9775671D01*
X12828306Y-9782415D01*
X12828543Y-9787555D01*
X12986777Y-9787555D01*
X12984834Y-9768944D01*
X12983226Y-9752429D01*
X12822941Y-9752429D01*
X12821346Y-9753900D01*
X12818673Y-9750858D01*
X12818057Y-9746643D01*
X12818642Y-9740736D01*
X12819448Y-9739386D01*
X12821354Y-9742378D01*
X12822737Y-9746643D01*
X12822941Y-9752429D01*
X12983226Y-9752429D01*
X12982594Y-9745935D01*
X12981366Y-9732129D01*
X12979656Y-9715001D01*
X12977611Y-9699502D01*
X12975537Y-9687752D01*
X12974323Y-9683143D01*
X12971057Y-9671981D01*
X12968088Y-9658475D01*
X12965668Y-9644393D01*
X12964048Y-9631499D01*
X12963477Y-9621561D01*
X12964207Y-9616343D01*
X12964778Y-9615959D01*
X12966410Y-9614740D01*
X12964576Y-9613237D01*
X12962324Y-9608657D01*
X12959726Y-9598645D01*
X12957205Y-9584988D01*
X12956180Y-9577914D01*
X12953073Y-9559332D01*
X12948462Y-9537526D01*
X12943149Y-9516157D01*
X12940896Y-9508177D01*
X12935256Y-9487519D01*
X12929651Y-9464367D01*
X12925015Y-9442665D01*
X12923700Y-9435606D01*
X12917458Y-9400114D01*
X12906025Y-9398990D01*
X12895495Y-9399374D01*
X12887430Y-9401698D01*
X12878329Y-9404016D01*
X12870875Y-9399872D01*
X12864444Y-9388892D01*
X12863855Y-9387457D01*
X12855956Y-9375824D01*
X12844514Y-9370264D01*
X12830444Y-9371123D01*
G36*
X14113457Y-10278229D02*
G01*
X14109995Y-10281489D01*
X14109829Y-10282071D01*
X14112636Y-10283630D01*
X14113457Y-10283671D01*
X14116946Y-10280882D01*
X14117086Y-10279829D01*
X14114863Y-10277662D01*
X14113457Y-10278229D01*
G37*
X14113457Y-10278229D02*
X14109995Y-10281489D01*
X14109829Y-10282071D01*
X14112636Y-10283630D01*
X14113457Y-10283671D01*
X14116946Y-10280882D01*
X14117086Y-10279829D01*
X14114863Y-10277662D01*
X14113457Y-10278229D01*
G36*
X13472409Y-10317538D02*
G01*
X13471975Y-10321844D01*
X13472409Y-10322376D01*
X13474567Y-10321878D01*
X13474829Y-10319957D01*
X13473501Y-10316970D01*
X13472409Y-10317538D01*
G37*
X13472409Y-10317538D02*
X13471975Y-10321844D01*
X13472409Y-10322376D01*
X13474567Y-10321878D01*
X13474829Y-10319957D01*
X13473501Y-10316970D01*
X13472409Y-10317538D01*
G36*
X13471200Y-10329029D02*
G01*
X13473014Y-10330843D01*
X13474829Y-10329029D01*
X13473014Y-10327214D01*
X13471200Y-10329029D01*
G37*
X13471200Y-10329029D02*
X13473014Y-10330843D01*
X13474829Y-10329029D01*
X13473014Y-10327214D01*
X13471200Y-10329029D01*
G36*
X13474829Y-10339914D02*
G01*
X13476643Y-10341729D01*
X13478457Y-10339914D01*
X13476643Y-10338100D01*
X13474829Y-10339914D01*
G37*
X13474829Y-10339914D02*
X13476643Y-10341729D01*
X13478457Y-10339914D01*
X13476643Y-10338100D01*
X13474829Y-10339914D01*
G36*
X13474829Y-10347171D02*
G01*
X13476643Y-10348986D01*
X13478457Y-10347171D01*
X13476643Y-10345357D01*
X13474829Y-10347171D01*
G37*
X13474829Y-10347171D02*
X13476643Y-10348986D01*
X13478457Y-10347171D01*
X13476643Y-10345357D01*
X13474829Y-10347171D01*
G36*
X13159749Y-9349212D02*
G01*
X13159614Y-9350965D01*
X13166094Y-9353533D01*
X13179035Y-9356666D01*
X13186041Y-9358031D01*
X13197739Y-9360418D01*
X13206253Y-9362585D01*
X13209324Y-9363815D01*
X13210399Y-9366675D01*
X13206036Y-9367934D01*
X13195825Y-9367576D01*
X13179356Y-9365590D01*
X13157021Y-9362095D01*
X13127893Y-9357868D01*
X13104289Y-9356013D01*
X13084856Y-9356582D01*
X13068244Y-9359625D01*
X13053099Y-9365195D01*
X13051193Y-9366095D01*
X13041643Y-9371914D01*
X13036232Y-9377650D01*
X13035656Y-9379574D01*
X13033460Y-9387146D01*
X13030213Y-9392644D01*
X13025971Y-9400782D01*
X13024886Y-9406064D01*
X13028097Y-9414885D01*
X13036726Y-9424438D01*
X13049267Y-9433283D01*
X13057885Y-9437583D01*
X13068522Y-9442893D01*
X13076698Y-9448291D01*
X13078752Y-9450237D01*
X13082258Y-9453799D01*
X13087126Y-9457346D01*
X13093931Y-9461076D01*
X13103245Y-9465185D01*
X13115643Y-9469869D01*
X13131699Y-9475325D01*
X13151986Y-9481749D01*
X13177078Y-9489339D01*
X13207549Y-9498289D01*
X13243972Y-9508798D01*
X13278886Y-9518773D01*
X13299207Y-9524701D01*
X13316444Y-9530000D01*
X13329651Y-9534356D01*
X13337885Y-9537456D01*
X13340200Y-9538986D01*
X13339997Y-9539057D01*
X13334639Y-9538750D01*
X13323421Y-9537189D01*
X13307591Y-9534579D01*
X13288400Y-9531126D01*
X13268524Y-9527316D01*
X13242975Y-9522321D01*
X13223701Y-9518686D01*
X13209869Y-9516313D01*
X13200643Y-9515103D01*
X13195191Y-9514959D01*
X13192679Y-9515780D01*
X13192272Y-9517469D01*
X13192497Y-9518319D01*
X13196399Y-9521343D01*
X13205729Y-9525927D01*
X13218972Y-9531504D01*
X13234616Y-9537509D01*
X13251150Y-9543376D01*
X13267060Y-9548540D01*
X13280834Y-9552433D01*
X13287923Y-9554015D01*
X13302126Y-9557269D01*
X13315890Y-9561406D01*
X13320958Y-9563310D01*
X13332413Y-9567444D01*
X13347446Y-9572002D01*
X13363886Y-9576426D01*
X13379560Y-9580159D01*
X13392297Y-9582643D01*
X13399038Y-9583357D01*
X13407585Y-9585576D01*
X13418088Y-9591109D01*
X13428029Y-9598275D01*
X13434885Y-9605390D01*
X13436334Y-9608265D01*
X13437284Y-9614316D01*
X13438485Y-9625692D01*
X13439748Y-9640476D01*
X13440414Y-9649579D01*
X13441421Y-9665882D01*
X13441637Y-9676265D01*
X13440923Y-9682032D01*
X13439139Y-9684492D01*
X13436632Y-9684957D01*
X13434015Y-9685548D01*
X13432399Y-9688117D01*
X13431682Y-9693862D01*
X13431763Y-9703980D01*
X13432539Y-9719667D01*
X13433011Y-9727593D01*
X13434361Y-9747812D01*
X13435942Y-9768528D01*
X13437526Y-9786873D01*
X13438515Y-9796764D01*
X13439989Y-9816674D01*
X13439177Y-9830491D01*
X13435863Y-9839075D01*
X13429830Y-9843287D01*
X13426720Y-9843928D01*
X13418524Y-9843436D01*
X13405115Y-9841058D01*
X13388156Y-9837233D01*
X13369311Y-9832399D01*
X13350241Y-9826992D01*
X13332611Y-9821451D01*
X13318083Y-9816214D01*
X13312578Y-9813881D01*
X13299183Y-9808451D01*
X13286029Y-9804228D01*
X13279658Y-9802780D01*
X13263325Y-9800106D01*
X13253106Y-9798535D01*
X13247941Y-9798081D01*
X13246769Y-9798757D01*
X13248530Y-9800577D01*
X13251671Y-9803143D01*
X13254414Y-9805772D01*
X13254340Y-9807387D01*
X13250438Y-9808112D01*
X13241698Y-9808068D01*
X13227106Y-9807378D01*
X13219921Y-9806978D01*
X13202123Y-9806142D01*
X13190453Y-9806086D01*
X13183820Y-9806886D01*
X13181131Y-9808615D01*
X13180914Y-9809615D01*
X13183820Y-9816271D01*
X13190550Y-9822744D01*
X13198118Y-9826336D01*
X13199556Y-9826471D01*
X13206428Y-9828621D01*
X13211971Y-9832142D01*
X13215221Y-9835165D01*
X13214561Y-9836597D01*
X13208903Y-9836685D01*
X13197161Y-9835676D01*
X13196623Y-9835623D01*
X13174232Y-9833433D01*
X13175250Y-9849002D01*
X13176188Y-9857711D01*
X13178653Y-9863420D01*
X13184254Y-9868038D01*
X13194596Y-9873473D01*
X13196734Y-9874515D01*
X13209756Y-9881616D01*
X13215997Y-9886905D01*
X13215421Y-9890262D01*
X13207992Y-9891567D01*
X13201779Y-9891418D01*
X13190168Y-9892159D01*
X13179533Y-9895162D01*
X13172124Y-9899570D01*
X13170029Y-9903499D01*
X13173028Y-9906322D01*
X13180961Y-9911322D01*
X13192232Y-9917509D01*
X13194521Y-9918687D01*
X13208159Y-9926420D01*
X13222981Y-9936100D01*
X13237777Y-9946768D01*
X13251335Y-9957466D01*
X13262443Y-9967236D01*
X13269889Y-9975118D01*
X13272462Y-9980155D01*
X13272439Y-9980324D01*
X13274803Y-9986919D01*
X13284194Y-9993801D01*
X13300394Y-10000835D01*
X13310823Y-10004318D01*
X13327366Y-10009786D01*
X13346341Y-10016600D01*
X13366411Y-10024217D01*
X13386239Y-10032095D01*
X13404489Y-10039691D01*
X13419823Y-10046464D01*
X13430907Y-10051870D01*
X13436251Y-10055218D01*
X13438156Y-10057103D01*
X13439757Y-10059328D01*
X13441154Y-10062632D01*
X13442452Y-10067755D01*
X13443753Y-10075436D01*
X13445162Y-10086416D01*
X13446779Y-10101434D01*
X13448710Y-10121230D01*
X13451056Y-10146544D01*
X13453921Y-10178115D01*
X13454934Y-10189329D01*
X13458461Y-10225899D01*
X13461803Y-10255421D01*
X13464991Y-10278101D01*
X13468055Y-10294146D01*
X13471025Y-10303761D01*
X13471915Y-10305443D01*
X13474401Y-10308889D01*
X13473869Y-10305932D01*
X13473619Y-10305101D01*
X13472628Y-10299168D01*
X13471375Y-10287846D01*
X13470049Y-10272990D01*
X13469249Y-10262466D01*
X13468413Y-10244289D01*
X13468744Y-10232028D01*
X13470026Y-10225939D01*
X13472045Y-10226276D01*
X13474583Y-10233295D01*
X13477425Y-10247250D01*
X13478168Y-10251921D01*
X13480769Y-10268145D01*
X13483590Y-10284367D01*
X13485778Y-10295851D01*
X13487526Y-10306065D01*
X13489750Y-10321548D01*
X13492188Y-10340350D01*
X13494578Y-10360520D01*
X13495018Y-10364468D01*
X13498770Y-10392942D01*
X13502968Y-10414232D01*
X13507640Y-10428401D01*
X13512815Y-10435511D01*
X13518523Y-10435623D01*
X13524792Y-10428800D01*
X13525052Y-10428389D01*
X13528269Y-10423875D01*
X13531362Y-10423292D01*
X13536362Y-10427068D01*
X13541346Y-10431818D01*
X13551720Y-10439165D01*
X13562580Y-10442722D01*
X13572039Y-10442312D01*
X13578210Y-10437759D01*
X13579192Y-10435360D01*
X13580907Y-10430776D01*
X13583853Y-10431298D01*
X13588301Y-10435019D01*
X13591241Y-10437443D01*
X13593200Y-10437895D01*
X13594290Y-10435385D01*
X13594626Y-10428922D01*
X13594323Y-10417513D01*
X13593494Y-10400169D01*
X13593133Y-10393129D01*
X13592309Y-10372514D01*
X13592226Y-10357607D01*
X13592874Y-10348926D01*
X13594106Y-10346884D01*
X13596760Y-10351520D01*
X13599267Y-10360581D01*
X13599961Y-10364426D01*
X13603440Y-10386666D01*
X13606098Y-10402717D01*
X13608227Y-10413562D01*
X13610114Y-10420184D01*
X13612050Y-10423565D01*
X13614324Y-10424689D01*
X13617226Y-10424538D01*
X13617657Y-10424478D01*
X13624032Y-10420990D01*
X13626618Y-10412812D01*
X13629532Y-10401692D01*
X13633386Y-10393761D01*
X13636546Y-10385777D01*
X13639269Y-10373376D01*
X13640819Y-10360778D01*
X13642273Y-10347655D01*
X13644257Y-10337179D01*
X13646249Y-10331797D01*
X13648272Y-10324967D01*
X13647762Y-10319097D01*
X13646984Y-10313667D01*
X13645685Y-10301882D01*
X13643949Y-10284622D01*
X13641859Y-10262763D01*
X13639501Y-10237184D01*
X13636957Y-10208763D01*
X13634552Y-10181168D01*
X13631278Y-10141978D01*
X13628795Y-10109641D01*
X13627086Y-10083799D01*
X13626129Y-10064092D01*
X13625906Y-10050163D01*
X13626396Y-10041652D01*
X13626797Y-10039654D01*
X13630203Y-10027857D01*
X13630530Y-10039695D01*
X13631168Y-10050385D01*
X13632532Y-10065640D01*
X13634451Y-10084102D01*
X13636759Y-10104416D01*
X13639287Y-10125224D01*
X13641866Y-10145172D01*
X13644329Y-10162901D01*
X13646506Y-10177056D01*
X13648230Y-10186281D01*
X13649065Y-10189057D01*
X13651133Y-10190896D01*
X13652226Y-10187432D01*
X13652335Y-10178280D01*
X13651449Y-10163051D01*
X13649558Y-10141359D01*
X13647103Y-10117098D01*
X13645179Y-10095550D01*
X13643364Y-10069233D01*
X13641800Y-10040636D01*
X13640629Y-10012248D01*
X13640115Y-9993727D01*
X13638342Y-9945302D01*
X13635073Y-9893492D01*
X13630515Y-9840412D01*
X13624873Y-9788183D01*
X13618351Y-9738923D01*
X13611157Y-9694749D01*
X13611026Y-9694029D01*
X13608411Y-9678112D01*
X13606427Y-9662955D01*
X13605456Y-9651539D01*
X13605424Y-9650486D01*
X13603819Y-9637151D01*
X13600250Y-9623329D01*
X13599571Y-9621457D01*
X13594377Y-9605999D01*
X13589607Y-9588621D01*
X13586404Y-9573513D01*
X13586289Y-9572785D01*
X13589251Y-9568507D01*
X13599405Y-9564219D01*
X13605432Y-9562519D01*
X13620089Y-9558185D01*
X13628912Y-9553768D01*
X13633257Y-9548208D01*
X13634482Y-9540445D01*
X13634486Y-9539814D01*
X13636327Y-9530765D01*
X13639852Y-9525363D01*
X13643274Y-9519726D01*
X13641531Y-9514019D01*
X13639078Y-9505153D01*
X13638886Y-9497187D01*
X13638961Y-9492197D01*
X13637061Y-9488504D01*
X13631866Y-9485177D01*
X13622058Y-9481287D01*
X13610900Y-9477447D01*
X13594017Y-9472013D01*
X13573531Y-9465806D01*
X13552871Y-9459853D01*
X13544679Y-9457598D01*
X13529454Y-9453196D01*
X13517244Y-9449115D01*
X13509497Y-9445876D01*
X13507486Y-9444272D01*
X13510379Y-9442651D01*
X13515650Y-9443467D01*
X13523365Y-9444997D01*
X13535620Y-9446598D01*
X13549214Y-9447877D01*
X13562179Y-9448741D01*
X13568965Y-9448700D01*
X13570615Y-9447563D01*
X13568172Y-9445136D01*
X13567357Y-9444532D01*
X13559011Y-9439863D01*
X13548086Y-9435357D01*
X13546543Y-9434837D01*
X13537356Y-9431241D01*
X13531572Y-9427852D01*
X13530991Y-9427199D01*
X13526471Y-9425337D01*
X13517341Y-9424352D01*
X13512298Y-9424305D01*
X13500091Y-9423524D01*
X13493449Y-9420301D01*
X13492280Y-9418706D01*
X13486231Y-9414423D01*
X13480872Y-9414802D01*
X13470975Y-9413837D01*
X13459660Y-9407924D01*
X13449606Y-9402346D01*
X13443587Y-9402150D01*
X13442782Y-9402769D01*
X13436698Y-9404677D01*
X13432437Y-9403806D01*
X13424526Y-9401652D01*
X13413595Y-9399865D01*
X13411645Y-9399649D01*
X13401489Y-9397974D01*
X13394350Y-9395655D01*
X13393502Y-9395125D01*
X13382625Y-9390393D01*
X13368248Y-9389083D01*
X13355457Y-9390943D01*
X13348630Y-9392171D01*
X13340012Y-9392360D01*
X13328371Y-9391396D01*
X13312475Y-9389163D01*
X13291092Y-9385543D01*
X13283359Y-9384158D01*
X13256983Y-9379167D01*
X13236922Y-9374880D01*
X13223338Y-9371352D01*
X13216396Y-9368636D01*
X13216256Y-9366786D01*
X13223083Y-9365854D01*
X13227393Y-9365753D01*
X13237627Y-9365077D01*
X13241504Y-9363430D01*
X13239813Y-9361089D01*
X13233346Y-9358337D01*
X13222892Y-9355452D01*
X13209243Y-9352714D01*
X13193188Y-9350403D01*
X13180495Y-9349154D01*
X13166658Y-9348524D01*
X13159749Y-9349212D01*
G37*
X13159749Y-9349212D02*
X13159614Y-9350965D01*
X13166094Y-9353533D01*
X13179035Y-9356666D01*
X13186041Y-9358031D01*
X13197739Y-9360418D01*
X13206253Y-9362585D01*
X13209324Y-9363815D01*
X13210399Y-9366675D01*
X13206036Y-9367934D01*
X13195825Y-9367576D01*
X13179356Y-9365590D01*
X13157021Y-9362095D01*
X13127893Y-9357868D01*
X13104289Y-9356013D01*
X13084856Y-9356582D01*
X13068244Y-9359625D01*
X13053099Y-9365195D01*
X13051193Y-9366095D01*
X13041643Y-9371914D01*
X13036232Y-9377650D01*
X13035656Y-9379574D01*
X13033460Y-9387146D01*
X13030213Y-9392644D01*
X13025971Y-9400782D01*
X13024886Y-9406064D01*
X13028097Y-9414885D01*
X13036726Y-9424438D01*
X13049267Y-9433283D01*
X13057885Y-9437583D01*
X13068522Y-9442893D01*
X13076698Y-9448291D01*
X13078752Y-9450237D01*
X13082258Y-9453799D01*
X13087126Y-9457346D01*
X13093931Y-9461076D01*
X13103245Y-9465185D01*
X13115643Y-9469869D01*
X13131699Y-9475325D01*
X13151986Y-9481749D01*
X13177078Y-9489339D01*
X13207549Y-9498289D01*
X13243972Y-9508798D01*
X13278886Y-9518773D01*
X13299207Y-9524701D01*
X13316444Y-9530000D01*
X13329651Y-9534356D01*
X13337885Y-9537456D01*
X13340200Y-9538986D01*
X13339997Y-9539057D01*
X13334639Y-9538750D01*
X13323421Y-9537189D01*
X13307591Y-9534579D01*
X13288400Y-9531126D01*
X13268524Y-9527316D01*
X13242975Y-9522321D01*
X13223701Y-9518686D01*
X13209869Y-9516313D01*
X13200643Y-9515103D01*
X13195191Y-9514959D01*
X13192679Y-9515780D01*
X13192272Y-9517469D01*
X13192497Y-9518319D01*
X13196399Y-9521343D01*
X13205729Y-9525927D01*
X13218972Y-9531504D01*
X13234616Y-9537509D01*
X13251150Y-9543376D01*
X13267060Y-9548540D01*
X13280834Y-9552433D01*
X13287923Y-9554015D01*
X13302126Y-9557269D01*
X13315890Y-9561406D01*
X13320958Y-9563310D01*
X13332413Y-9567444D01*
X13347446Y-9572002D01*
X13363886Y-9576426D01*
X13379560Y-9580159D01*
X13392297Y-9582643D01*
X13399038Y-9583357D01*
X13407585Y-9585576D01*
X13418088Y-9591109D01*
X13428029Y-9598275D01*
X13434885Y-9605390D01*
X13436334Y-9608265D01*
X13437284Y-9614316D01*
X13438485Y-9625692D01*
X13439748Y-9640476D01*
X13440414Y-9649579D01*
X13441421Y-9665882D01*
X13441637Y-9676265D01*
X13440923Y-9682032D01*
X13439139Y-9684492D01*
X13436632Y-9684957D01*
X13434015Y-9685548D01*
X13432399Y-9688117D01*
X13431682Y-9693862D01*
X13431763Y-9703980D01*
X13432539Y-9719667D01*
X13433011Y-9727593D01*
X13434361Y-9747812D01*
X13435942Y-9768528D01*
X13437526Y-9786873D01*
X13438515Y-9796764D01*
X13439989Y-9816674D01*
X13439177Y-9830491D01*
X13435863Y-9839075D01*
X13429830Y-9843287D01*
X13426720Y-9843928D01*
X13418524Y-9843436D01*
X13405115Y-9841058D01*
X13388156Y-9837233D01*
X13369311Y-9832399D01*
X13350241Y-9826992D01*
X13332611Y-9821451D01*
X13318083Y-9816214D01*
X13312578Y-9813881D01*
X13299183Y-9808451D01*
X13286029Y-9804228D01*
X13279658Y-9802780D01*
X13263325Y-9800106D01*
X13253106Y-9798535D01*
X13247941Y-9798081D01*
X13246769Y-9798757D01*
X13248530Y-9800577D01*
X13251671Y-9803143D01*
X13254414Y-9805772D01*
X13254340Y-9807387D01*
X13250438Y-9808112D01*
X13241698Y-9808068D01*
X13227106Y-9807378D01*
X13219921Y-9806978D01*
X13202123Y-9806142D01*
X13190453Y-9806086D01*
X13183820Y-9806886D01*
X13181131Y-9808615D01*
X13180914Y-9809615D01*
X13183820Y-9816271D01*
X13190550Y-9822744D01*
X13198118Y-9826336D01*
X13199556Y-9826471D01*
X13206428Y-9828621D01*
X13211971Y-9832142D01*
X13215221Y-9835165D01*
X13214561Y-9836597D01*
X13208903Y-9836685D01*
X13197161Y-9835676D01*
X13196623Y-9835623D01*
X13174232Y-9833433D01*
X13175250Y-9849002D01*
X13176188Y-9857711D01*
X13178653Y-9863420D01*
X13184254Y-9868038D01*
X13194596Y-9873473D01*
X13196734Y-9874515D01*
X13209756Y-9881616D01*
X13215997Y-9886905D01*
X13215421Y-9890262D01*
X13207992Y-9891567D01*
X13201779Y-9891418D01*
X13190168Y-9892159D01*
X13179533Y-9895162D01*
X13172124Y-9899570D01*
X13170029Y-9903499D01*
X13173028Y-9906322D01*
X13180961Y-9911322D01*
X13192232Y-9917509D01*
X13194521Y-9918687D01*
X13208159Y-9926420D01*
X13222981Y-9936100D01*
X13237777Y-9946768D01*
X13251335Y-9957466D01*
X13262443Y-9967236D01*
X13269889Y-9975118D01*
X13272462Y-9980155D01*
X13272439Y-9980324D01*
X13274803Y-9986919D01*
X13284194Y-9993801D01*
X13300394Y-10000835D01*
X13310823Y-10004318D01*
X13327366Y-10009786D01*
X13346341Y-10016600D01*
X13366411Y-10024217D01*
X13386239Y-10032095D01*
X13404489Y-10039691D01*
X13419823Y-10046464D01*
X13430907Y-10051870D01*
X13436251Y-10055218D01*
X13438156Y-10057103D01*
X13439757Y-10059328D01*
X13441154Y-10062632D01*
X13442452Y-10067755D01*
X13443753Y-10075436D01*
X13445162Y-10086416D01*
X13446779Y-10101434D01*
X13448710Y-10121230D01*
X13451056Y-10146544D01*
X13453921Y-10178115D01*
X13454934Y-10189329D01*
X13458461Y-10225899D01*
X13461803Y-10255421D01*
X13464991Y-10278101D01*
X13468055Y-10294146D01*
X13471025Y-10303761D01*
X13471915Y-10305443D01*
X13474401Y-10308889D01*
X13473869Y-10305932D01*
X13473619Y-10305101D01*
X13472628Y-10299168D01*
X13471375Y-10287846D01*
X13470049Y-10272990D01*
X13469249Y-10262466D01*
X13468413Y-10244289D01*
X13468744Y-10232028D01*
X13470026Y-10225939D01*
X13472045Y-10226276D01*
X13474583Y-10233295D01*
X13477425Y-10247250D01*
X13478168Y-10251921D01*
X13480769Y-10268145D01*
X13483590Y-10284367D01*
X13485778Y-10295851D01*
X13487526Y-10306065D01*
X13489750Y-10321548D01*
X13492188Y-10340350D01*
X13494578Y-10360520D01*
X13495018Y-10364468D01*
X13498770Y-10392942D01*
X13502968Y-10414232D01*
X13507640Y-10428401D01*
X13512815Y-10435511D01*
X13518523Y-10435623D01*
X13524792Y-10428800D01*
X13525052Y-10428389D01*
X13528269Y-10423875D01*
X13531362Y-10423292D01*
X13536362Y-10427068D01*
X13541346Y-10431818D01*
X13551720Y-10439165D01*
X13562580Y-10442722D01*
X13572039Y-10442312D01*
X13578210Y-10437759D01*
X13579192Y-10435360D01*
X13580907Y-10430776D01*
X13583853Y-10431298D01*
X13588301Y-10435019D01*
X13591241Y-10437443D01*
X13593200Y-10437895D01*
X13594290Y-10435385D01*
X13594626Y-10428922D01*
X13594323Y-10417513D01*
X13593494Y-10400169D01*
X13593133Y-10393129D01*
X13592309Y-10372514D01*
X13592226Y-10357607D01*
X13592874Y-10348926D01*
X13594106Y-10346884D01*
X13596760Y-10351520D01*
X13599267Y-10360581D01*
X13599961Y-10364426D01*
X13603440Y-10386666D01*
X13606098Y-10402717D01*
X13608227Y-10413562D01*
X13610114Y-10420184D01*
X13612050Y-10423565D01*
X13614324Y-10424689D01*
X13617226Y-10424538D01*
X13617657Y-10424478D01*
X13624032Y-10420990D01*
X13626618Y-10412812D01*
X13629532Y-10401692D01*
X13633386Y-10393761D01*
X13636546Y-10385777D01*
X13639269Y-10373376D01*
X13640819Y-10360778D01*
X13642273Y-10347655D01*
X13644257Y-10337179D01*
X13646249Y-10331797D01*
X13648272Y-10324967D01*
X13647762Y-10319097D01*
X13646984Y-10313667D01*
X13645685Y-10301882D01*
X13643949Y-10284622D01*
X13641859Y-10262763D01*
X13639501Y-10237184D01*
X13636957Y-10208763D01*
X13634552Y-10181168D01*
X13631278Y-10141978D01*
X13628795Y-10109641D01*
X13627086Y-10083799D01*
X13626129Y-10064092D01*
X13625906Y-10050163D01*
X13626396Y-10041652D01*
X13626797Y-10039654D01*
X13630203Y-10027857D01*
X13630530Y-10039695D01*
X13631168Y-10050385D01*
X13632532Y-10065640D01*
X13634451Y-10084102D01*
X13636759Y-10104416D01*
X13639287Y-10125224D01*
X13641866Y-10145172D01*
X13644329Y-10162901D01*
X13646506Y-10177056D01*
X13648230Y-10186281D01*
X13649065Y-10189057D01*
X13651133Y-10190896D01*
X13652226Y-10187432D01*
X13652335Y-10178280D01*
X13651449Y-10163051D01*
X13649558Y-10141359D01*
X13647103Y-10117098D01*
X13645179Y-10095550D01*
X13643364Y-10069233D01*
X13641800Y-10040636D01*
X13640629Y-10012248D01*
X13640115Y-9993727D01*
X13638342Y-9945302D01*
X13635073Y-9893492D01*
X13630515Y-9840412D01*
X13624873Y-9788183D01*
X13618351Y-9738923D01*
X13611157Y-9694749D01*
X13611026Y-9694029D01*
X13608411Y-9678112D01*
X13606427Y-9662955D01*
X13605456Y-9651539D01*
X13605424Y-9650486D01*
X13603819Y-9637151D01*
X13600250Y-9623329D01*
X13599571Y-9621457D01*
X13594377Y-9605999D01*
X13589607Y-9588621D01*
X13586404Y-9573513D01*
X13586289Y-9572785D01*
X13589251Y-9568507D01*
X13599405Y-9564219D01*
X13605432Y-9562519D01*
X13620089Y-9558185D01*
X13628912Y-9553768D01*
X13633257Y-9548208D01*
X13634482Y-9540445D01*
X13634486Y-9539814D01*
X13636327Y-9530765D01*
X13639852Y-9525363D01*
X13643274Y-9519726D01*
X13641531Y-9514019D01*
X13639078Y-9505153D01*
X13638886Y-9497187D01*
X13638961Y-9492197D01*
X13637061Y-9488504D01*
X13631866Y-9485177D01*
X13622058Y-9481287D01*
X13610900Y-9477447D01*
X13594017Y-9472013D01*
X13573531Y-9465806D01*
X13552871Y-9459853D01*
X13544679Y-9457598D01*
X13529454Y-9453196D01*
X13517244Y-9449115D01*
X13509497Y-9445876D01*
X13507486Y-9444272D01*
X13510379Y-9442651D01*
X13515650Y-9443467D01*
X13523365Y-9444997D01*
X13535620Y-9446598D01*
X13549214Y-9447877D01*
X13562179Y-9448741D01*
X13568965Y-9448700D01*
X13570615Y-9447563D01*
X13568172Y-9445136D01*
X13567357Y-9444532D01*
X13559011Y-9439863D01*
X13548086Y-9435357D01*
X13546543Y-9434837D01*
X13537356Y-9431241D01*
X13531572Y-9427852D01*
X13530991Y-9427199D01*
X13526471Y-9425337D01*
X13517341Y-9424352D01*
X13512298Y-9424305D01*
X13500091Y-9423524D01*
X13493449Y-9420301D01*
X13492280Y-9418706D01*
X13486231Y-9414423D01*
X13480872Y-9414802D01*
X13470975Y-9413837D01*
X13459660Y-9407924D01*
X13449606Y-9402346D01*
X13443587Y-9402150D01*
X13442782Y-9402769D01*
X13436698Y-9404677D01*
X13432437Y-9403806D01*
X13424526Y-9401652D01*
X13413595Y-9399865D01*
X13411645Y-9399649D01*
X13401489Y-9397974D01*
X13394350Y-9395655D01*
X13393502Y-9395125D01*
X13382625Y-9390393D01*
X13368248Y-9389083D01*
X13355457Y-9390943D01*
X13348630Y-9392171D01*
X13340012Y-9392360D01*
X13328371Y-9391396D01*
X13312475Y-9389163D01*
X13291092Y-9385543D01*
X13283359Y-9384158D01*
X13256983Y-9379167D01*
X13236922Y-9374880D01*
X13223338Y-9371352D01*
X13216396Y-9368636D01*
X13216256Y-9366786D01*
X13223083Y-9365854D01*
X13227393Y-9365753D01*
X13237627Y-9365077D01*
X13241504Y-9363430D01*
X13239813Y-9361089D01*
X13233346Y-9358337D01*
X13222892Y-9355452D01*
X13209243Y-9352714D01*
X13193188Y-9350403D01*
X13180495Y-9349154D01*
X13166658Y-9348524D01*
X13159749Y-9349212D01*
G36*
X14194763Y-9598251D02*
G01*
X14184829Y-9599816D01*
X14176764Y-9603289D01*
X14169337Y-9608290D01*
X14155744Y-9619205D01*
X14144732Y-9630556D01*
X14134911Y-9644149D01*
X14124891Y-9661790D01*
X14118694Y-9674071D01*
X14104923Y-9702656D01*
X14092692Y-9729349D01*
X14081633Y-9755197D01*
X14071380Y-9781246D01*
X14061565Y-9808544D01*
X14051823Y-9838137D01*
X14041787Y-9871071D01*
X14031089Y-9908393D01*
X14019364Y-9951149D01*
X14012076Y-9978369D01*
X14004903Y-10004708D01*
X13999224Y-10024127D01*
X13994978Y-10036797D01*
X13992104Y-10042886D01*
X13990540Y-10042566D01*
X13990196Y-10038924D01*
X13989107Y-10034305D01*
X13986109Y-10035825D01*
X13983773Y-10041357D01*
X13981722Y-10051710D01*
X13980590Y-10062349D01*
X13979422Y-10074312D01*
X13977297Y-10091373D01*
X13974490Y-10111481D01*
X13971279Y-10132583D01*
X13970405Y-10138020D01*
X13963015Y-10184231D01*
X13956639Y-10225728D01*
X13951321Y-10262174D01*
X13947104Y-10293229D01*
X13944031Y-10318555D01*
X13942147Y-10337816D01*
X13941493Y-10350672D01*
X13942114Y-10356785D01*
X13942336Y-10357116D01*
X13947161Y-10358776D01*
X13953480Y-10354718D01*
X13958082Y-10351082D01*
X13960818Y-10351819D01*
X13963181Y-10358020D01*
X13964491Y-10362777D01*
X13969657Y-10374870D01*
X13976808Y-10380010D01*
X13986012Y-10378245D01*
X13986526Y-10377977D01*
X13992858Y-10376466D01*
X13996638Y-10380254D01*
X13999815Y-10382127D01*
X14003193Y-10376843D01*
X14006740Y-10364499D01*
X14010430Y-10345193D01*
X14013863Y-10321841D01*
X14016745Y-10300939D01*
X14019094Y-10286276D01*
X14021169Y-10276875D01*
X14023230Y-10271761D01*
X14025536Y-10269960D01*
X14027586Y-10270198D01*
X14029156Y-10274162D01*
X14030147Y-10283633D01*
X14030580Y-10296883D01*
X14030476Y-10312188D01*
X14029857Y-10327821D01*
X14028744Y-10342056D01*
X14027158Y-10353167D01*
X14026527Y-10355882D01*
X14025587Y-10366429D01*
X14027033Y-10378629D01*
X14030282Y-10389123D01*
X14033020Y-10393371D01*
X14038045Y-10393702D01*
X14046505Y-10389811D01*
X14056885Y-10382784D01*
X14067669Y-10373707D01*
X14077341Y-10363665D01*
X14081006Y-10359011D01*
X14088510Y-10346228D01*
X14091463Y-10333380D01*
X14091686Y-10327247D01*
X14093225Y-10308345D01*
X14097431Y-10291000D01*
X14103684Y-10276581D01*
X14111363Y-10266457D01*
X14119849Y-10261997D01*
X14121277Y-10261900D01*
X14126407Y-10259709D01*
X14127970Y-10252197D01*
X14127971Y-10251822D01*
X14130929Y-10239046D01*
X14138655Y-10226212D01*
X14145524Y-10219264D01*
X14152699Y-10216789D01*
X14166700Y-10215276D01*
X14187158Y-10214765D01*
X14187629Y-10214765D01*
X14205452Y-10214459D01*
X14227779Y-10213597D01*
X14251890Y-10212308D01*
X14275064Y-10210720D01*
X14277373Y-10210537D01*
X14298496Y-10208934D01*
X14313670Y-10208073D01*
X14324166Y-10207984D01*
X14331258Y-10208697D01*
X14336217Y-10210242D01*
X14339372Y-10212010D01*
X14345427Y-10218737D01*
X14353206Y-10231885D01*
X14362400Y-10250910D01*
X14365555Y-10258069D01*
X14372687Y-10273934D01*
X14379218Y-10287319D01*
X14384426Y-10296815D01*
X14387587Y-10301010D01*
X14391386Y-10305529D01*
X14396666Y-10314668D01*
X14401504Y-10324740D01*
X14408687Y-10339496D01*
X14417043Y-10354528D01*
X14421936Y-10362323D01*
X14428259Y-10372386D01*
X14436708Y-10386781D01*
X14446064Y-10403396D01*
X14453190Y-10416504D01*
X14461233Y-10431162D01*
X14468173Y-10443058D01*
X14473260Y-10450959D01*
X14475728Y-10453634D01*
X14480646Y-10452852D01*
X14489513Y-10451706D01*
X14490829Y-10451549D01*
X14502125Y-10448280D01*
X14511608Y-10442504D01*
X14511693Y-10442426D01*
X14515756Y-10437821D01*
X14518205Y-10432112D01*
X14519435Y-10423453D01*
X14519838Y-10409999D01*
X14519857Y-10404173D01*
X14519969Y-10389321D01*
X14520531Y-10380389D01*
X14521881Y-10376042D01*
X14524358Y-10374944D01*
X14527129Y-10375441D01*
X14531477Y-10375649D01*
X14534547Y-10373105D01*
X14536436Y-10366991D01*
X14537238Y-10356493D01*
X14537049Y-10340794D01*
X14535964Y-10319077D01*
X14535171Y-10306549D01*
X14533780Y-10284261D01*
X14533066Y-10267968D01*
X14533128Y-10256431D01*
X14534067Y-10248410D01*
X14535983Y-10242668D01*
X14538977Y-10237964D01*
X14540911Y-10235612D01*
X14543648Y-10228107D01*
X14544685Y-10214914D01*
X14544412Y-10206604D01*
X14188083Y-10206604D01*
X14184517Y-10207185D01*
X14179810Y-10206518D01*
X14179754Y-10205279D01*
X14184611Y-10204413D01*
X14186709Y-10204993D01*
X14188083Y-10206604D01*
X14544412Y-10206604D01*
X14544109Y-10197380D01*
X14542751Y-10184100D01*
X14334301Y-10184100D01*
X14329835Y-10189284D01*
X14326636Y-10190396D01*
X14314938Y-10192036D01*
X14304369Y-10191648D01*
X14291927Y-10188940D01*
X14282186Y-10186038D01*
X14267292Y-10182044D01*
X14249099Y-10178115D01*
X14231525Y-10175094D01*
X14231386Y-10175074D01*
X14204265Y-10170874D01*
X14183934Y-10166916D01*
X14169935Y-10163045D01*
X14161811Y-10159105D01*
X14159106Y-10154942D01*
X14159728Y-10153471D01*
X14146114Y-10153471D01*
X14143879Y-10155438D01*
X14142486Y-10154857D01*
X14138993Y-10150050D01*
X14138857Y-10148986D01*
X14141093Y-10147019D01*
X14142486Y-10147600D01*
X14145979Y-10152407D01*
X14146114Y-10153471D01*
X14159728Y-10153471D01*
X14160726Y-10151112D01*
X14163851Y-10148970D01*
X14169406Y-10148006D01*
X14178398Y-10148287D01*
X14191838Y-10149881D01*
X14210734Y-10152854D01*
X14225943Y-10155475D01*
X14245147Y-10158779D01*
X14267103Y-10162449D01*
X14287393Y-10165747D01*
X14289363Y-10166060D01*
X14304631Y-10168588D01*
X14317671Y-10170945D01*
X14326441Y-10172754D01*
X14328371Y-10173263D01*
X14333913Y-10177771D01*
X14334301Y-10184100D01*
X14542751Y-10184100D01*
X14542009Y-10176849D01*
X14538542Y-10155087D01*
X14311154Y-10155087D01*
X14309400Y-10156671D01*
X14302785Y-10159742D01*
X14300329Y-10160189D01*
X14294365Y-10158382D01*
X14291257Y-10156671D01*
X14289563Y-10154396D01*
X14294054Y-10153323D01*
X14300329Y-10153154D01*
X14309032Y-10153597D01*
X14311154Y-10155087D01*
X14538542Y-10155087D01*
X14538475Y-10154668D01*
X14534261Y-10134900D01*
X14530577Y-10120491D01*
X14525398Y-10101480D01*
X14519056Y-10078980D01*
X14511884Y-10054104D01*
X14511667Y-10053364D01*
X14297161Y-10053364D01*
X14294153Y-10056469D01*
X14287635Y-10057983D01*
X14276889Y-10057856D01*
X14261201Y-10056039D01*
X14239854Y-10052483D01*
X14215057Y-10047724D01*
X14193942Y-10043022D01*
X14179308Y-10038412D01*
X14170403Y-10033412D01*
X14166475Y-10027540D01*
X14166771Y-10020312D01*
X14167729Y-10017385D01*
X14170349Y-10006710D01*
X14171511Y-9994499D01*
X14171514Y-9993928D01*
X14172402Y-9981107D01*
X14174849Y-9963244D01*
X14178534Y-9941822D01*
X14183134Y-9918322D01*
X14188325Y-9894229D01*
X14193784Y-9871023D01*
X14199190Y-9850188D01*
X14204219Y-9833207D01*
X14208548Y-9821561D01*
X14209445Y-9819727D01*
X14213305Y-9812463D01*
X14130273Y-9812463D01*
X14130124Y-9814204D01*
X14129397Y-9817922D01*
X14127918Y-9824356D01*
X14125511Y-9834244D01*
X14122001Y-9848326D01*
X14117212Y-9867340D01*
X14110970Y-9892026D01*
X14104411Y-9917942D01*
X14098075Y-9943262D01*
X14092374Y-9966603D01*
X14087546Y-9986942D01*
X14083830Y-10003252D01*
X14081466Y-10014510D01*
X14080690Y-10019542D01*
X14080185Y-10025017D01*
X14078294Y-10023834D01*
X14077064Y-10021834D01*
X14075996Y-10015595D01*
X14076851Y-10003498D01*
X14079673Y-9985118D01*
X14082341Y-9970839D01*
X14087544Y-9945983D01*
X14093464Y-9920629D01*
X14099807Y-9895766D01*
X14106279Y-9872384D01*
X14112586Y-9851474D01*
X14118433Y-9834027D01*
X14123527Y-9821031D01*
X14127572Y-9813479D01*
X14129539Y-9811957D01*
X14130020Y-9811961D01*
X14130273Y-9812463D01*
X14213305Y-9812463D01*
X14214538Y-9810143D01*
X14219898Y-9822843D01*
X14228976Y-9845065D01*
X14238581Y-9869830D01*
X14248399Y-9896208D01*
X14258120Y-9923265D01*
X14267429Y-9950069D01*
X14276015Y-9975688D01*
X14283565Y-9999189D01*
X14289767Y-10019641D01*
X14294308Y-10036110D01*
X14296876Y-10047664D01*
X14297161Y-10053364D01*
X14511667Y-10053364D01*
X14504215Y-10027965D01*
X14496380Y-10001676D01*
X14488714Y-9976348D01*
X14481548Y-9953096D01*
X14475215Y-9933031D01*
X14470048Y-9917268D01*
X14466379Y-9906917D01*
X14465380Y-9904486D01*
X14460015Y-9892095D01*
X14455139Y-9880050D01*
X14454383Y-9878062D01*
X14450734Y-9869540D01*
X14448881Y-9867878D01*
X14449002Y-9872862D01*
X14450833Y-9882353D01*
X14452363Y-9891013D01*
X14451591Y-9893312D01*
X14448460Y-9889159D01*
X14442915Y-9878464D01*
X14434900Y-9861136D01*
X14427509Y-9844364D01*
X14419025Y-9824194D01*
X14413656Y-9809766D01*
X14411177Y-9800379D01*
X14411366Y-9795331D01*
X14411726Y-9794754D01*
X14413276Y-9790974D01*
X14410023Y-9790186D01*
X14405295Y-9787065D01*
X14402142Y-9780207D01*
X14399776Y-9773482D01*
X14394866Y-9761660D01*
X14388034Y-9746170D01*
X14379903Y-9728445D01*
X14375972Y-9720091D01*
X14365514Y-9697324D01*
X14358489Y-9680271D01*
X14354761Y-9668594D01*
X14195428Y-9668594D01*
X14191328Y-9672811D01*
X14183383Y-9677248D01*
X14179406Y-9675846D01*
X14178771Y-9672143D01*
X14181705Y-9666183D01*
X14188305Y-9663782D01*
X14193662Y-9665232D01*
X14195428Y-9668594D01*
X14354761Y-9668594D01*
X14354689Y-9668371D01*
X14353907Y-9661060D01*
X14353982Y-9660583D01*
X14353184Y-9651083D01*
X14350262Y-9647279D01*
X14195681Y-9647279D01*
X14195100Y-9648671D01*
X14190293Y-9652165D01*
X14189229Y-9652300D01*
X14187262Y-9650064D01*
X14187843Y-9648671D01*
X14192650Y-9645178D01*
X14193714Y-9645043D01*
X14195681Y-9647279D01*
X14350262Y-9647279D01*
X14347137Y-9643210D01*
X14329906Y-9630701D01*
X14307286Y-9619385D01*
X14281126Y-9609868D01*
X14253271Y-9602757D01*
X14225567Y-9598659D01*
X14209252Y-9597897D01*
X14194763Y-9598251D01*
G37*
X14194763Y-9598251D02*
X14184829Y-9599816D01*
X14176764Y-9603289D01*
X14169337Y-9608290D01*
X14155744Y-9619205D01*
X14144732Y-9630556D01*
X14134911Y-9644149D01*
X14124891Y-9661790D01*
X14118694Y-9674071D01*
X14104923Y-9702656D01*
X14092692Y-9729349D01*
X14081633Y-9755197D01*
X14071380Y-9781246D01*
X14061565Y-9808544D01*
X14051823Y-9838137D01*
X14041787Y-9871071D01*
X14031089Y-9908393D01*
X14019364Y-9951149D01*
X14012076Y-9978369D01*
X14004903Y-10004708D01*
X13999224Y-10024127D01*
X13994978Y-10036797D01*
X13992104Y-10042886D01*
X13990540Y-10042566D01*
X13990196Y-10038924D01*
X13989107Y-10034305D01*
X13986109Y-10035825D01*
X13983773Y-10041357D01*
X13981722Y-10051710D01*
X13980590Y-10062349D01*
X13979422Y-10074312D01*
X13977297Y-10091373D01*
X13974490Y-10111481D01*
X13971279Y-10132583D01*
X13970405Y-10138020D01*
X13963015Y-10184231D01*
X13956639Y-10225728D01*
X13951321Y-10262174D01*
X13947104Y-10293229D01*
X13944031Y-10318555D01*
X13942147Y-10337816D01*
X13941493Y-10350672D01*
X13942114Y-10356785D01*
X13942336Y-10357116D01*
X13947161Y-10358776D01*
X13953480Y-10354718D01*
X13958082Y-10351082D01*
X13960818Y-10351819D01*
X13963181Y-10358020D01*
X13964491Y-10362777D01*
X13969657Y-10374870D01*
X13976808Y-10380010D01*
X13986012Y-10378245D01*
X13986526Y-10377977D01*
X13992858Y-10376466D01*
X13996638Y-10380254D01*
X13999815Y-10382127D01*
X14003193Y-10376843D01*
X14006740Y-10364499D01*
X14010430Y-10345193D01*
X14013863Y-10321841D01*
X14016745Y-10300939D01*
X14019094Y-10286276D01*
X14021169Y-10276875D01*
X14023230Y-10271761D01*
X14025536Y-10269960D01*
X14027586Y-10270198D01*
X14029156Y-10274162D01*
X14030147Y-10283633D01*
X14030580Y-10296883D01*
X14030476Y-10312188D01*
X14029857Y-10327821D01*
X14028744Y-10342056D01*
X14027158Y-10353167D01*
X14026527Y-10355882D01*
X14025587Y-10366429D01*
X14027033Y-10378629D01*
X14030282Y-10389123D01*
X14033020Y-10393371D01*
X14038045Y-10393702D01*
X14046505Y-10389811D01*
X14056885Y-10382784D01*
X14067669Y-10373707D01*
X14077341Y-10363665D01*
X14081006Y-10359011D01*
X14088510Y-10346228D01*
X14091463Y-10333380D01*
X14091686Y-10327247D01*
X14093225Y-10308345D01*
X14097431Y-10291000D01*
X14103684Y-10276581D01*
X14111363Y-10266457D01*
X14119849Y-10261997D01*
X14121277Y-10261900D01*
X14126407Y-10259709D01*
X14127970Y-10252197D01*
X14127971Y-10251822D01*
X14130929Y-10239046D01*
X14138655Y-10226212D01*
X14145524Y-10219264D01*
X14152699Y-10216789D01*
X14166700Y-10215276D01*
X14187158Y-10214765D01*
X14187629Y-10214765D01*
X14205452Y-10214459D01*
X14227779Y-10213597D01*
X14251890Y-10212308D01*
X14275064Y-10210720D01*
X14277373Y-10210537D01*
X14298496Y-10208934D01*
X14313670Y-10208073D01*
X14324166Y-10207984D01*
X14331258Y-10208697D01*
X14336217Y-10210242D01*
X14339372Y-10212010D01*
X14345427Y-10218737D01*
X14353206Y-10231885D01*
X14362400Y-10250910D01*
X14365555Y-10258069D01*
X14372687Y-10273934D01*
X14379218Y-10287319D01*
X14384426Y-10296815D01*
X14387587Y-10301010D01*
X14391386Y-10305529D01*
X14396666Y-10314668D01*
X14401504Y-10324740D01*
X14408687Y-10339496D01*
X14417043Y-10354528D01*
X14421936Y-10362323D01*
X14428259Y-10372386D01*
X14436708Y-10386781D01*
X14446064Y-10403396D01*
X14453190Y-10416504D01*
X14461233Y-10431162D01*
X14468173Y-10443058D01*
X14473260Y-10450959D01*
X14475728Y-10453634D01*
X14480646Y-10452852D01*
X14489513Y-10451706D01*
X14490829Y-10451549D01*
X14502125Y-10448280D01*
X14511608Y-10442504D01*
X14511693Y-10442426D01*
X14515756Y-10437821D01*
X14518205Y-10432112D01*
X14519435Y-10423453D01*
X14519838Y-10409999D01*
X14519857Y-10404173D01*
X14519969Y-10389321D01*
X14520531Y-10380389D01*
X14521881Y-10376042D01*
X14524358Y-10374944D01*
X14527129Y-10375441D01*
X14531477Y-10375649D01*
X14534547Y-10373105D01*
X14536436Y-10366991D01*
X14537238Y-10356493D01*
X14537049Y-10340794D01*
X14535964Y-10319077D01*
X14535171Y-10306549D01*
X14533780Y-10284261D01*
X14533066Y-10267968D01*
X14533128Y-10256431D01*
X14534067Y-10248410D01*
X14535983Y-10242668D01*
X14538977Y-10237964D01*
X14540911Y-10235612D01*
X14543648Y-10228107D01*
X14544685Y-10214914D01*
X14544412Y-10206604D01*
X14188083Y-10206604D01*
X14184517Y-10207185D01*
X14179810Y-10206518D01*
X14179754Y-10205279D01*
X14184611Y-10204413D01*
X14186709Y-10204993D01*
X14188083Y-10206604D01*
X14544412Y-10206604D01*
X14544109Y-10197380D01*
X14542751Y-10184100D01*
X14334301Y-10184100D01*
X14329835Y-10189284D01*
X14326636Y-10190396D01*
X14314938Y-10192036D01*
X14304369Y-10191648D01*
X14291927Y-10188940D01*
X14282186Y-10186038D01*
X14267292Y-10182044D01*
X14249099Y-10178115D01*
X14231525Y-10175094D01*
X14231386Y-10175074D01*
X14204265Y-10170874D01*
X14183934Y-10166916D01*
X14169935Y-10163045D01*
X14161811Y-10159105D01*
X14159106Y-10154942D01*
X14159728Y-10153471D01*
X14146114Y-10153471D01*
X14143879Y-10155438D01*
X14142486Y-10154857D01*
X14138993Y-10150050D01*
X14138857Y-10148986D01*
X14141093Y-10147019D01*
X14142486Y-10147600D01*
X14145979Y-10152407D01*
X14146114Y-10153471D01*
X14159728Y-10153471D01*
X14160726Y-10151112D01*
X14163851Y-10148970D01*
X14169406Y-10148006D01*
X14178398Y-10148287D01*
X14191838Y-10149881D01*
X14210734Y-10152854D01*
X14225943Y-10155475D01*
X14245147Y-10158779D01*
X14267103Y-10162449D01*
X14287393Y-10165747D01*
X14289363Y-10166060D01*
X14304631Y-10168588D01*
X14317671Y-10170945D01*
X14326441Y-10172754D01*
X14328371Y-10173263D01*
X14333913Y-10177771D01*
X14334301Y-10184100D01*
X14542751Y-10184100D01*
X14542009Y-10176849D01*
X14538542Y-10155087D01*
X14311154Y-10155087D01*
X14309400Y-10156671D01*
X14302785Y-10159742D01*
X14300329Y-10160189D01*
X14294365Y-10158382D01*
X14291257Y-10156671D01*
X14289563Y-10154396D01*
X14294054Y-10153323D01*
X14300329Y-10153154D01*
X14309032Y-10153597D01*
X14311154Y-10155087D01*
X14538542Y-10155087D01*
X14538475Y-10154668D01*
X14534261Y-10134900D01*
X14530577Y-10120491D01*
X14525398Y-10101480D01*
X14519056Y-10078980D01*
X14511884Y-10054104D01*
X14511667Y-10053364D01*
X14297161Y-10053364D01*
X14294153Y-10056469D01*
X14287635Y-10057983D01*
X14276889Y-10057856D01*
X14261201Y-10056039D01*
X14239854Y-10052483D01*
X14215057Y-10047724D01*
X14193942Y-10043022D01*
X14179308Y-10038412D01*
X14170403Y-10033412D01*
X14166475Y-10027540D01*
X14166771Y-10020312D01*
X14167729Y-10017385D01*
X14170349Y-10006710D01*
X14171511Y-9994499D01*
X14171514Y-9993928D01*
X14172402Y-9981107D01*
X14174849Y-9963244D01*
X14178534Y-9941822D01*
X14183134Y-9918322D01*
X14188325Y-9894229D01*
X14193784Y-9871023D01*
X14199190Y-9850188D01*
X14204219Y-9833207D01*
X14208548Y-9821561D01*
X14209445Y-9819727D01*
X14213305Y-9812463D01*
X14130273Y-9812463D01*
X14130124Y-9814204D01*
X14129397Y-9817922D01*
X14127918Y-9824356D01*
X14125511Y-9834244D01*
X14122001Y-9848326D01*
X14117212Y-9867340D01*
X14110970Y-9892026D01*
X14104411Y-9917942D01*
X14098075Y-9943262D01*
X14092374Y-9966603D01*
X14087546Y-9986942D01*
X14083830Y-10003252D01*
X14081466Y-10014510D01*
X14080690Y-10019542D01*
X14080185Y-10025017D01*
X14078294Y-10023834D01*
X14077064Y-10021834D01*
X14075996Y-10015595D01*
X14076851Y-10003498D01*
X14079673Y-9985118D01*
X14082341Y-9970839D01*
X14087544Y-9945983D01*
X14093464Y-9920629D01*
X14099807Y-9895766D01*
X14106279Y-9872384D01*
X14112586Y-9851474D01*
X14118433Y-9834027D01*
X14123527Y-9821031D01*
X14127572Y-9813479D01*
X14129539Y-9811957D01*
X14130020Y-9811961D01*
X14130273Y-9812463D01*
X14213305Y-9812463D01*
X14214538Y-9810143D01*
X14219898Y-9822843D01*
X14228976Y-9845065D01*
X14238581Y-9869830D01*
X14248399Y-9896208D01*
X14258120Y-9923265D01*
X14267429Y-9950069D01*
X14276015Y-9975688D01*
X14283565Y-9999189D01*
X14289767Y-10019641D01*
X14294308Y-10036110D01*
X14296876Y-10047664D01*
X14297161Y-10053364D01*
X14511667Y-10053364D01*
X14504215Y-10027965D01*
X14496380Y-10001676D01*
X14488714Y-9976348D01*
X14481548Y-9953096D01*
X14475215Y-9933031D01*
X14470048Y-9917268D01*
X14466379Y-9906917D01*
X14465380Y-9904486D01*
X14460015Y-9892095D01*
X14455139Y-9880050D01*
X14454383Y-9878062D01*
X14450734Y-9869540D01*
X14448881Y-9867878D01*
X14449002Y-9872862D01*
X14450833Y-9882353D01*
X14452363Y-9891013D01*
X14451591Y-9893312D01*
X14448460Y-9889159D01*
X14442915Y-9878464D01*
X14434900Y-9861136D01*
X14427509Y-9844364D01*
X14419025Y-9824194D01*
X14413656Y-9809766D01*
X14411177Y-9800379D01*
X14411366Y-9795331D01*
X14411726Y-9794754D01*
X14413276Y-9790974D01*
X14410023Y-9790186D01*
X14405295Y-9787065D01*
X14402142Y-9780207D01*
X14399776Y-9773482D01*
X14394866Y-9761660D01*
X14388034Y-9746170D01*
X14379903Y-9728445D01*
X14375972Y-9720091D01*
X14365514Y-9697324D01*
X14358489Y-9680271D01*
X14354761Y-9668594D01*
X14195428Y-9668594D01*
X14191328Y-9672811D01*
X14183383Y-9677248D01*
X14179406Y-9675846D01*
X14178771Y-9672143D01*
X14181705Y-9666183D01*
X14188305Y-9663782D01*
X14193662Y-9665232D01*
X14195428Y-9668594D01*
X14354761Y-9668594D01*
X14354689Y-9668371D01*
X14353907Y-9661060D01*
X14353982Y-9660583D01*
X14353184Y-9651083D01*
X14350262Y-9647279D01*
X14195681Y-9647279D01*
X14195100Y-9648671D01*
X14190293Y-9652165D01*
X14189229Y-9652300D01*
X14187262Y-9650064D01*
X14187843Y-9648671D01*
X14192650Y-9645178D01*
X14193714Y-9645043D01*
X14195681Y-9647279D01*
X14350262Y-9647279D01*
X14347137Y-9643210D01*
X14329906Y-9630701D01*
X14307286Y-9619385D01*
X14281126Y-9609868D01*
X14253271Y-9602757D01*
X14225567Y-9598659D01*
X14209252Y-9597897D01*
X14194763Y-9598251D01*
G36*
X16381314Y-10564886D02*
G01*
X16383129Y-10566700D01*
X16384943Y-10564886D01*
X16383129Y-10563071D01*
X16381314Y-10564886D01*
G37*
X16381314Y-10564886D02*
X16383129Y-10566700D01*
X16384943Y-10564886D01*
X16383129Y-10563071D01*
X16381314Y-10564886D01*
G36*
X14971274Y-9713844D02*
G01*
X14970376Y-9719155D01*
X14969932Y-9729895D01*
X14969770Y-9743014D01*
X14969587Y-9758796D01*
X14969180Y-9768256D01*
X14968327Y-9772328D01*
X14966807Y-9771948D01*
X14964396Y-9768051D01*
X14963997Y-9767319D01*
X14960315Y-9758077D01*
X14956667Y-9745038D01*
X14954665Y-9735462D01*
X14952262Y-9723589D01*
X14950053Y-9717783D01*
X14947456Y-9716893D01*
X14945808Y-9717952D01*
X14942394Y-9724201D01*
X14940789Y-9733864D01*
X14940771Y-9734950D01*
X14940545Y-9743294D01*
X14938987Y-9745415D01*
X14934784Y-9742343D01*
X14933187Y-9740903D01*
X14927486Y-9736320D01*
X14923901Y-9736778D01*
X14920099Y-9741248D01*
X14913459Y-9751829D01*
X14908206Y-9764937D01*
X14903922Y-9781998D01*
X14900190Y-9804435D01*
X14899039Y-9813023D01*
X14896635Y-9830590D01*
X14894186Y-9846509D01*
X14892016Y-9858785D01*
X14890716Y-9864571D01*
X14887610Y-9875457D01*
X14885093Y-9865479D01*
X14882297Y-9858273D01*
X14879420Y-9855500D01*
X14876726Y-9858653D01*
X14874371Y-9866218D01*
X14872934Y-9875353D01*
X14872995Y-9883217D01*
X14873408Y-9884949D01*
X14874192Y-9889850D01*
X14875469Y-9900921D01*
X14877131Y-9917096D01*
X14879072Y-9937312D01*
X14881186Y-9960505D01*
X14882635Y-9977057D01*
X14884970Y-10003813D01*
X14887822Y-10035904D01*
X14891018Y-10071440D01*
X14894388Y-10108529D01*
X14897761Y-10145284D01*
X14900966Y-10179813D01*
X14901347Y-10183886D01*
X14904088Y-10213600D01*
X14906617Y-10241861D01*
X14908847Y-10267631D01*
X14910693Y-10289874D01*
X14912065Y-10307553D01*
X14912878Y-10319631D01*
X14913058Y-10323586D01*
X14913152Y-10335015D01*
X14912070Y-10341074D01*
X14908869Y-10343646D01*
X14902607Y-10344615D01*
X14902531Y-10344623D01*
X14895765Y-10344098D01*
X14883204Y-10342012D01*
X14866082Y-10338613D01*
X14845631Y-10334150D01*
X14823085Y-10328871D01*
X14816996Y-10327387D01*
X14788532Y-10320523D01*
X14765754Y-10315453D01*
X14747352Y-10312051D01*
X14732013Y-10310190D01*
X14718425Y-10309743D01*
X14705277Y-10310585D01*
X14691257Y-10312588D01*
X14681664Y-10314336D01*
X14658822Y-10319620D01*
X14641857Y-10325887D01*
X14629394Y-10333826D01*
X14620059Y-10344124D01*
X14619004Y-10345671D01*
X14612349Y-10357522D01*
X14611246Y-10365662D01*
X14616182Y-10370999D01*
X14627644Y-10374435D01*
X14635110Y-10375610D01*
X14649468Y-10378310D01*
X14656772Y-10381592D01*
X14657743Y-10383508D01*
X14654737Y-10388420D01*
X14651393Y-10390027D01*
X14649231Y-10391315D01*
X14654064Y-10392072D01*
X14654807Y-10392108D01*
X14663827Y-10393296D01*
X14665988Y-10395634D01*
X14661556Y-10398900D01*
X14650801Y-10402875D01*
X14637259Y-10406556D01*
X14622603Y-10410453D01*
X14610364Y-10414286D01*
X14602493Y-10417422D01*
X14601028Y-10418320D01*
X14596437Y-10426210D01*
X14598545Y-10436468D01*
X14605222Y-10446407D01*
X14610566Y-10454292D01*
X14611171Y-10459123D01*
X14610665Y-10459599D01*
X14606993Y-10463940D01*
X14609703Y-10468737D01*
X14619059Y-10474216D01*
X14635064Y-10480511D01*
X14651821Y-10485831D01*
X14672177Y-10491500D01*
X14692594Y-10496554D01*
X14699414Y-10498066D01*
X14717107Y-10502108D01*
X14739055Y-10507533D01*
X14762559Y-10513653D01*
X14784918Y-10519781D01*
X14786500Y-10520229D01*
X14825906Y-10531074D01*
X14859996Y-10539628D01*
X14890235Y-10546191D01*
X14918085Y-10551063D01*
X14945011Y-10554547D01*
X14960729Y-10556046D01*
X14980999Y-10558011D01*
X15000989Y-10560404D01*
X15018351Y-10562917D01*
X15030417Y-10565168D01*
X15040464Y-10566957D01*
X15052736Y-10568413D01*
X15065736Y-10569472D01*
X15077968Y-10570068D01*
X15087935Y-10570138D01*
X15094142Y-10569616D01*
X15095092Y-10568437D01*
X15094079Y-10567925D01*
X15090460Y-10563257D01*
X15089543Y-10558052D01*
X15087755Y-10549689D01*
X15085342Y-10545808D01*
X15083076Y-10540510D01*
X15085190Y-10536729D01*
X15087613Y-10529529D01*
X15087180Y-10523978D01*
X15087451Y-10517014D01*
X15093690Y-10512202D01*
X15093931Y-10512092D01*
X15102740Y-10508078D01*
X15096066Y-10488310D01*
X15092438Y-10476458D01*
X15091239Y-10467463D01*
X15092370Y-10457835D01*
X15094911Y-10447247D01*
X15095362Y-10445143D01*
X15082286Y-10445143D01*
X15080471Y-10446957D01*
X15078657Y-10445143D01*
X15080471Y-10443329D01*
X15082286Y-10445143D01*
X15095362Y-10445143D01*
X15098776Y-10429212D01*
X15100262Y-10414768D01*
X15099309Y-10405105D01*
X15097178Y-10401834D01*
X15095921Y-10397436D01*
X15096515Y-10389055D01*
X15098522Y-10379595D01*
X15101506Y-10371961D01*
X15101724Y-10371596D01*
X15101220Y-10366623D01*
X15098574Y-10363467D01*
X15095054Y-10357063D01*
X15093178Y-10346711D01*
X15092919Y-10334865D01*
X15094246Y-10323978D01*
X15097130Y-10316503D01*
X15099158Y-10314808D01*
X15102714Y-10312586D01*
X15101546Y-10309014D01*
X15097343Y-10304207D01*
X15092275Y-10295677D01*
X15089645Y-10285161D01*
X15089944Y-10275716D01*
X15092076Y-10271462D01*
X15095417Y-10272273D01*
X15099204Y-10277208D01*
X15101948Y-10281520D01*
X15103332Y-10280922D01*
X15103843Y-10274492D01*
X15103929Y-10268250D01*
X15103680Y-10257828D01*
X15102073Y-10252753D01*
X15098121Y-10251128D01*
X15094986Y-10251014D01*
X15088791Y-10250626D01*
X15085911Y-10248068D01*
X15084847Y-10241247D01*
X15084576Y-10236500D01*
X15085412Y-10229840D01*
X15090260Y-10228193D01*
X15092758Y-10228380D01*
X15101416Y-10229332D01*
X15100137Y-10205657D01*
X15093171Y-10205657D01*
X15091357Y-10207471D01*
X15089543Y-10205657D01*
X15091357Y-10203843D01*
X15093171Y-10205657D01*
X15100137Y-10205657D01*
X15098913Y-10183023D01*
X15098870Y-10182374D01*
X15089427Y-10182374D01*
X15088886Y-10191653D01*
X15087406Y-10197423D01*
X15087124Y-10197795D01*
X15082040Y-10200135D01*
X15079057Y-10195990D01*
X15078657Y-10191836D01*
X15080853Y-10182167D01*
X15083985Y-10176415D01*
X15087495Y-10172368D01*
X15089013Y-10173543D01*
X15089412Y-10180895D01*
X15089427Y-10182374D01*
X15098870Y-10182374D01*
X15097275Y-10158486D01*
X15082286Y-10158486D01*
X15080471Y-10160300D01*
X15078657Y-10158486D01*
X15080471Y-10156671D01*
X15082286Y-10158486D01*
X15097275Y-10158486D01*
X15096981Y-10154083D01*
X15095304Y-10136110D01*
X15084705Y-10136110D01*
X15084207Y-10138267D01*
X15082286Y-10138529D01*
X15079299Y-10137201D01*
X15079867Y-10136110D01*
X15084173Y-10135675D01*
X15084705Y-10136110D01*
X15095304Y-10136110D01*
X15094501Y-10127503D01*
X15092718Y-10113129D01*
X15082286Y-10113129D01*
X15080958Y-10116115D01*
X15079867Y-10115548D01*
X15079432Y-10111241D01*
X15079867Y-10110710D01*
X15082024Y-10111208D01*
X15082286Y-10113129D01*
X15092718Y-10113129D01*
X15091608Y-10104185D01*
X15088441Y-10085029D01*
X15085135Y-10070936D01*
X15081828Y-10062806D01*
X15080427Y-10061361D01*
X15076924Y-10056887D01*
X15078463Y-10051805D01*
X15079812Y-10044201D01*
X15078172Y-10041523D01*
X15076079Y-10036189D01*
X15074232Y-10025847D01*
X15073037Y-10012846D01*
X15071917Y-9999990D01*
X15069796Y-9982118D01*
X15066953Y-9961361D01*
X15063665Y-9939846D01*
X15062763Y-9934335D01*
X15058821Y-9911851D01*
X15055437Y-9895566D01*
X15052341Y-9884472D01*
X15049262Y-9877559D01*
X15046749Y-9874464D01*
X15041581Y-9867244D01*
X15036729Y-9856241D01*
X15035080Y-9850905D01*
X15030160Y-9837029D01*
X15023124Y-9822352D01*
X15020091Y-9817182D01*
X15008820Y-9796699D01*
X14997515Y-9771183D01*
X14987126Y-9742790D01*
X14986484Y-9740833D01*
X14982044Y-9728876D01*
X14977413Y-9718944D01*
X14975246Y-9715433D01*
X14972831Y-9712942D01*
X14971274Y-9713844D01*
G37*
X14971274Y-9713844D02*
X14970376Y-9719155D01*
X14969932Y-9729895D01*
X14969770Y-9743014D01*
X14969587Y-9758796D01*
X14969180Y-9768256D01*
X14968327Y-9772328D01*
X14966807Y-9771948D01*
X14964396Y-9768051D01*
X14963997Y-9767319D01*
X14960315Y-9758077D01*
X14956667Y-9745038D01*
X14954665Y-9735462D01*
X14952262Y-9723589D01*
X14950053Y-9717783D01*
X14947456Y-9716893D01*
X14945808Y-9717952D01*
X14942394Y-9724201D01*
X14940789Y-9733864D01*
X14940771Y-9734950D01*
X14940545Y-9743294D01*
X14938987Y-9745415D01*
X14934784Y-9742343D01*
X14933187Y-9740903D01*
X14927486Y-9736320D01*
X14923901Y-9736778D01*
X14920099Y-9741248D01*
X14913459Y-9751829D01*
X14908206Y-9764937D01*
X14903922Y-9781998D01*
X14900190Y-9804435D01*
X14899039Y-9813023D01*
X14896635Y-9830590D01*
X14894186Y-9846509D01*
X14892016Y-9858785D01*
X14890716Y-9864571D01*
X14887610Y-9875457D01*
X14885093Y-9865479D01*
X14882297Y-9858273D01*
X14879420Y-9855500D01*
X14876726Y-9858653D01*
X14874371Y-9866218D01*
X14872934Y-9875353D01*
X14872995Y-9883217D01*
X14873408Y-9884949D01*
X14874192Y-9889850D01*
X14875469Y-9900921D01*
X14877131Y-9917096D01*
X14879072Y-9937312D01*
X14881186Y-9960505D01*
X14882635Y-9977057D01*
X14884970Y-10003813D01*
X14887822Y-10035904D01*
X14891018Y-10071440D01*
X14894388Y-10108529D01*
X14897761Y-10145284D01*
X14900966Y-10179813D01*
X14901347Y-10183886D01*
X14904088Y-10213600D01*
X14906617Y-10241861D01*
X14908847Y-10267631D01*
X14910693Y-10289874D01*
X14912065Y-10307553D01*
X14912878Y-10319631D01*
X14913058Y-10323586D01*
X14913152Y-10335015D01*
X14912070Y-10341074D01*
X14908869Y-10343646D01*
X14902607Y-10344615D01*
X14902531Y-10344623D01*
X14895765Y-10344098D01*
X14883204Y-10342012D01*
X14866082Y-10338613D01*
X14845631Y-10334150D01*
X14823085Y-10328871D01*
X14816996Y-10327387D01*
X14788532Y-10320523D01*
X14765754Y-10315453D01*
X14747352Y-10312051D01*
X14732013Y-10310190D01*
X14718425Y-10309743D01*
X14705277Y-10310585D01*
X14691257Y-10312588D01*
X14681664Y-10314336D01*
X14658822Y-10319620D01*
X14641857Y-10325887D01*
X14629394Y-10333826D01*
X14620059Y-10344124D01*
X14619004Y-10345671D01*
X14612349Y-10357522D01*
X14611246Y-10365662D01*
X14616182Y-10370999D01*
X14627644Y-10374435D01*
X14635110Y-10375610D01*
X14649468Y-10378310D01*
X14656772Y-10381592D01*
X14657743Y-10383508D01*
X14654737Y-10388420D01*
X14651393Y-10390027D01*
X14649231Y-10391315D01*
X14654064Y-10392072D01*
X14654807Y-10392108D01*
X14663827Y-10393296D01*
X14665988Y-10395634D01*
X14661556Y-10398900D01*
X14650801Y-10402875D01*
X14637259Y-10406556D01*
X14622603Y-10410453D01*
X14610364Y-10414286D01*
X14602493Y-10417422D01*
X14601028Y-10418320D01*
X14596437Y-10426210D01*
X14598545Y-10436468D01*
X14605222Y-10446407D01*
X14610566Y-10454292D01*
X14611171Y-10459123D01*
X14610665Y-10459599D01*
X14606993Y-10463940D01*
X14609703Y-10468737D01*
X14619059Y-10474216D01*
X14635064Y-10480511D01*
X14651821Y-10485831D01*
X14672177Y-10491500D01*
X14692594Y-10496554D01*
X14699414Y-10498066D01*
X14717107Y-10502108D01*
X14739055Y-10507533D01*
X14762559Y-10513653D01*
X14784918Y-10519781D01*
X14786500Y-10520229D01*
X14825906Y-10531074D01*
X14859996Y-10539628D01*
X14890235Y-10546191D01*
X14918085Y-10551063D01*
X14945011Y-10554547D01*
X14960729Y-10556046D01*
X14980999Y-10558011D01*
X15000989Y-10560404D01*
X15018351Y-10562917D01*
X15030417Y-10565168D01*
X15040464Y-10566957D01*
X15052736Y-10568413D01*
X15065736Y-10569472D01*
X15077968Y-10570068D01*
X15087935Y-10570138D01*
X15094142Y-10569616D01*
X15095092Y-10568437D01*
X15094079Y-10567925D01*
X15090460Y-10563257D01*
X15089543Y-10558052D01*
X15087755Y-10549689D01*
X15085342Y-10545808D01*
X15083076Y-10540510D01*
X15085190Y-10536729D01*
X15087613Y-10529529D01*
X15087180Y-10523978D01*
X15087451Y-10517014D01*
X15093690Y-10512202D01*
X15093931Y-10512092D01*
X15102740Y-10508078D01*
X15096066Y-10488310D01*
X15092438Y-10476458D01*
X15091239Y-10467463D01*
X15092370Y-10457835D01*
X15094911Y-10447247D01*
X15095362Y-10445143D01*
X15082286Y-10445143D01*
X15080471Y-10446957D01*
X15078657Y-10445143D01*
X15080471Y-10443329D01*
X15082286Y-10445143D01*
X15095362Y-10445143D01*
X15098776Y-10429212D01*
X15100262Y-10414768D01*
X15099309Y-10405105D01*
X15097178Y-10401834D01*
X15095921Y-10397436D01*
X15096515Y-10389055D01*
X15098522Y-10379595D01*
X15101506Y-10371961D01*
X15101724Y-10371596D01*
X15101220Y-10366623D01*
X15098574Y-10363467D01*
X15095054Y-10357063D01*
X15093178Y-10346711D01*
X15092919Y-10334865D01*
X15094246Y-10323978D01*
X15097130Y-10316503D01*
X15099158Y-10314808D01*
X15102714Y-10312586D01*
X15101546Y-10309014D01*
X15097343Y-10304207D01*
X15092275Y-10295677D01*
X15089645Y-10285161D01*
X15089944Y-10275716D01*
X15092076Y-10271462D01*
X15095417Y-10272273D01*
X15099204Y-10277208D01*
X15101948Y-10281520D01*
X15103332Y-10280922D01*
X15103843Y-10274492D01*
X15103929Y-10268250D01*
X15103680Y-10257828D01*
X15102073Y-10252753D01*
X15098121Y-10251128D01*
X15094986Y-10251014D01*
X15088791Y-10250626D01*
X15085911Y-10248068D01*
X15084847Y-10241247D01*
X15084576Y-10236500D01*
X15085412Y-10229840D01*
X15090260Y-10228193D01*
X15092758Y-10228380D01*
X15101416Y-10229332D01*
X15100137Y-10205657D01*
X15093171Y-10205657D01*
X15091357Y-10207471D01*
X15089543Y-10205657D01*
X15091357Y-10203843D01*
X15093171Y-10205657D01*
X15100137Y-10205657D01*
X15098913Y-10183023D01*
X15098870Y-10182374D01*
X15089427Y-10182374D01*
X15088886Y-10191653D01*
X15087406Y-10197423D01*
X15087124Y-10197795D01*
X15082040Y-10200135D01*
X15079057Y-10195990D01*
X15078657Y-10191836D01*
X15080853Y-10182167D01*
X15083985Y-10176415D01*
X15087495Y-10172368D01*
X15089013Y-10173543D01*
X15089412Y-10180895D01*
X15089427Y-10182374D01*
X15098870Y-10182374D01*
X15097275Y-10158486D01*
X15082286Y-10158486D01*
X15080471Y-10160300D01*
X15078657Y-10158486D01*
X15080471Y-10156671D01*
X15082286Y-10158486D01*
X15097275Y-10158486D01*
X15096981Y-10154083D01*
X15095304Y-10136110D01*
X15084705Y-10136110D01*
X15084207Y-10138267D01*
X15082286Y-10138529D01*
X15079299Y-10137201D01*
X15079867Y-10136110D01*
X15084173Y-10135675D01*
X15084705Y-10136110D01*
X15095304Y-10136110D01*
X15094501Y-10127503D01*
X15092718Y-10113129D01*
X15082286Y-10113129D01*
X15080958Y-10116115D01*
X15079867Y-10115548D01*
X15079432Y-10111241D01*
X15079867Y-10110710D01*
X15082024Y-10111208D01*
X15082286Y-10113129D01*
X15092718Y-10113129D01*
X15091608Y-10104185D01*
X15088441Y-10085029D01*
X15085135Y-10070936D01*
X15081828Y-10062806D01*
X15080427Y-10061361D01*
X15076924Y-10056887D01*
X15078463Y-10051805D01*
X15079812Y-10044201D01*
X15078172Y-10041523D01*
X15076079Y-10036189D01*
X15074232Y-10025847D01*
X15073037Y-10012846D01*
X15071917Y-9999990D01*
X15069796Y-9982118D01*
X15066953Y-9961361D01*
X15063665Y-9939846D01*
X15062763Y-9934335D01*
X15058821Y-9911851D01*
X15055437Y-9895566D01*
X15052341Y-9884472D01*
X15049262Y-9877559D01*
X15046749Y-9874464D01*
X15041581Y-9867244D01*
X15036729Y-9856241D01*
X15035080Y-9850905D01*
X15030160Y-9837029D01*
X15023124Y-9822352D01*
X15020091Y-9817182D01*
X15008820Y-9796699D01*
X14997515Y-9771183D01*
X14987126Y-9742790D01*
X14986484Y-9740833D01*
X14982044Y-9728876D01*
X14977413Y-9718944D01*
X14975246Y-9715433D01*
X14972831Y-9712942D01*
X14971274Y-9713844D01*
G36*
X17104610Y-10582424D02*
G01*
X17104175Y-10586730D01*
X17104610Y-10587262D01*
X17106767Y-10586764D01*
X17107029Y-10584843D01*
X17105701Y-10581856D01*
X17104610Y-10582424D01*
G37*
X17104610Y-10582424D02*
X17104175Y-10586730D01*
X17104610Y-10587262D01*
X17106767Y-10586764D01*
X17107029Y-10584843D01*
X17105701Y-10581856D01*
X17104610Y-10582424D01*
G36*
X16370429Y-10593914D02*
G01*
X16372243Y-10595729D01*
X16374057Y-10593914D01*
X16372243Y-10592100D01*
X16370429Y-10593914D01*
G37*
X16370429Y-10593914D02*
X16372243Y-10595729D01*
X16374057Y-10593914D01*
X16372243Y-10592100D01*
X16370429Y-10593914D01*
G36*
X16360752Y-10622338D02*
G01*
X16360318Y-10626644D01*
X16360752Y-10627176D01*
X16362910Y-10626678D01*
X16363171Y-10624757D01*
X16361844Y-10621770D01*
X16360752Y-10622338D01*
G37*
X16360752Y-10622338D02*
X16360318Y-10626644D01*
X16360752Y-10627176D01*
X16362910Y-10626678D01*
X16363171Y-10624757D01*
X16361844Y-10621770D01*
X16360752Y-10622338D01*
G36*
X15540468Y-10633451D02*
G01*
X15541551Y-10635100D01*
X15545231Y-10635356D01*
X15549103Y-10634470D01*
X15547423Y-10633164D01*
X15541752Y-10632732D01*
X15540468Y-10633451D01*
G37*
X15540468Y-10633451D02*
X15541551Y-10635100D01*
X15545231Y-10635356D01*
X15549103Y-10634470D01*
X15547423Y-10633164D01*
X15541752Y-10632732D01*
X15540468Y-10633451D01*
G36*
X16541893Y-10616953D02*
G01*
X16540971Y-10622515D01*
X16542279Y-10630282D01*
X16544600Y-10633829D01*
X16547307Y-10632561D01*
X16548229Y-10627000D01*
X16546921Y-10619232D01*
X16544600Y-10615686D01*
X16541893Y-10616953D01*
G37*
X16541893Y-10616953D02*
X16540971Y-10622515D01*
X16542279Y-10630282D01*
X16544600Y-10633829D01*
X16547307Y-10632561D01*
X16548229Y-10627000D01*
X16546921Y-10619232D01*
X16544600Y-10615686D01*
X16541893Y-10616953D01*
G36*
X15496169Y-9824815D02*
G01*
X15479464Y-9826818D01*
X15463320Y-9829621D01*
X15450000Y-9832893D01*
X15441961Y-9836176D01*
X15434266Y-9843772D01*
X15429372Y-9852257D01*
X15425240Y-9859633D01*
X15420815Y-9862757D01*
X15420762Y-9862757D01*
X15416707Y-9865275D01*
X15416898Y-9871048D01*
X15420469Y-9876546D01*
X15421710Y-9879315D01*
X15417518Y-9880629D01*
X15409583Y-9880900D01*
X15399766Y-9881469D01*
X15395305Y-9883744D01*
X15394343Y-9887925D01*
X15397715Y-9894750D01*
X15407163Y-9902123D01*
X15408892Y-9903127D01*
X15417759Y-9908609D01*
X15421570Y-9913332D01*
X15421783Y-9919740D01*
X15421125Y-9923658D01*
X15420372Y-9930138D01*
X15421567Y-9935637D01*
X15425662Y-9941792D01*
X15433607Y-9950240D01*
X15440465Y-9956942D01*
X15452568Y-9968040D01*
X15461996Y-9974868D01*
X15470794Y-9978669D01*
X15479032Y-9980409D01*
X15489939Y-9982775D01*
X15495043Y-9986102D01*
X15495943Y-9989420D01*
X15497465Y-9993175D01*
X15502869Y-9996376D01*
X15513416Y-9999599D01*
X15523260Y-10001897D01*
X15540463Y-10005503D01*
X15551745Y-10007353D01*
X15558205Y-10007528D01*
X15560941Y-10006111D01*
X15561257Y-10004736D01*
X15558080Y-10002056D01*
X15549896Y-9998495D01*
X15542207Y-9995957D01*
X15532988Y-9992834D01*
X15529613Y-9990739D01*
X15531670Y-9990050D01*
X15542720Y-9991194D01*
X15556733Y-9994627D01*
X15570978Y-9999459D01*
X15582721Y-10004799D01*
X15588059Y-10008427D01*
X15595156Y-10012876D01*
X15600546Y-10013389D01*
X15606656Y-10013921D01*
X15615531Y-10017664D01*
X15618004Y-10019098D01*
X15626337Y-10023795D01*
X15631834Y-10024672D01*
X15637685Y-10021950D01*
X15639747Y-10020622D01*
X15646996Y-10017279D01*
X15655946Y-10016338D01*
X15668023Y-10017918D01*
X15684656Y-10022138D01*
X15694995Y-10025235D01*
X15709666Y-10031512D01*
X15717567Y-10039494D01*
X15719102Y-10049772D01*
X15717026Y-10057568D01*
X15715367Y-10065060D01*
X15713707Y-10077900D01*
X15712257Y-10094184D01*
X15711348Y-10109275D01*
X15709907Y-10131330D01*
X15707899Y-10149885D01*
X15705484Y-10163952D01*
X15702825Y-10172545D01*
X15700614Y-10174814D01*
X15696654Y-10174082D01*
X15687046Y-10172089D01*
X15673227Y-10169138D01*
X15656634Y-10165533D01*
X15656445Y-10165491D01*
X15630074Y-10160235D01*
X15608740Y-10157358D01*
X15590638Y-10156827D01*
X15573961Y-10158608D01*
X15556904Y-10162665D01*
X15553951Y-10163544D01*
X15539400Y-10167717D01*
X15525463Y-10171290D01*
X15516807Y-10173167D01*
X15507047Y-10175560D01*
X15503860Y-10179040D01*
X15506645Y-10185232D01*
X15510457Y-10190319D01*
X15516198Y-10198363D01*
X15516850Y-10202411D01*
X15512282Y-10203764D01*
X15509096Y-10203843D01*
X15499101Y-10204576D01*
X15489139Y-10206111D01*
X15480683Y-10209793D01*
X15477891Y-10216682D01*
X15480715Y-10227322D01*
X15486319Y-10237811D01*
X15491902Y-10249364D01*
X15493573Y-10260958D01*
X15493108Y-10269434D01*
X15492606Y-10279622D01*
X15494382Y-10286243D01*
X15499773Y-10290680D01*
X15510116Y-10294317D01*
X15519529Y-10296758D01*
X15530414Y-10299461D01*
X15505014Y-10304090D01*
X15515210Y-10309076D01*
X15522662Y-10311743D01*
X15531180Y-10312144D01*
X15543402Y-10310326D01*
X15546870Y-10309629D01*
X15558848Y-10307410D01*
X15567328Y-10307151D01*
X15575356Y-10309315D01*
X15585976Y-10314366D01*
X15589289Y-10316080D01*
X15606940Y-10323592D01*
X15628288Y-10330239D01*
X15650327Y-10335258D01*
X15670051Y-10337886D01*
X15675975Y-10338100D01*
X15689154Y-10339868D01*
X15700495Y-10344474D01*
X15708039Y-10350870D01*
X15710029Y-10356336D01*
X15709732Y-10359583D01*
X15708249Y-10361759D01*
X15704688Y-10362796D01*
X15698160Y-10362631D01*
X15687774Y-10361197D01*
X15672638Y-10358429D01*
X15651864Y-10354262D01*
X15635225Y-10350836D01*
X15604310Y-10344793D01*
X15579458Y-10340682D01*
X15560881Y-10338526D01*
X15548790Y-10338348D01*
X15543396Y-10340169D01*
X15543114Y-10341057D01*
X15546570Y-10345161D01*
X15556442Y-10350160D01*
X15571983Y-10355770D01*
X15592447Y-10361709D01*
X15607736Y-10365540D01*
X15627892Y-10369974D01*
X15643593Y-10372430D01*
X15657287Y-10373172D01*
X15671424Y-10372458D01*
X15672129Y-10372394D01*
X15685863Y-10371351D01*
X15694725Y-10371640D01*
X15701047Y-10373706D01*
X15707162Y-10377991D01*
X15708851Y-10379395D01*
X15717241Y-10388194D01*
X15723296Y-10397557D01*
X15723827Y-10398805D01*
X15726550Y-10408106D01*
X15729447Y-10421481D01*
X15732223Y-10437014D01*
X15734589Y-10452790D01*
X15736252Y-10466893D01*
X15736919Y-10477406D01*
X15736509Y-10482033D01*
X15733209Y-10485231D01*
X15726180Y-10486141D01*
X15714775Y-10484652D01*
X15698347Y-10480652D01*
X15676246Y-10474030D01*
X15660557Y-10468938D01*
X15612895Y-10455235D01*
X15568681Y-10446953D01*
X15526760Y-10443904D01*
X15508643Y-10444176D01*
X15492301Y-10445243D01*
X15478017Y-10446861D01*
X15467800Y-10448770D01*
X15464512Y-10449917D01*
X15458052Y-10455808D01*
X15451579Y-10465323D01*
X15449998Y-10468431D01*
X15443196Y-10479311D01*
X15434278Y-10484983D01*
X15420988Y-10486800D01*
X15419280Y-10486822D01*
X15409666Y-10488905D01*
X15403953Y-10493981D01*
X15403527Y-10500467D01*
X15405083Y-10503024D01*
X15407593Y-10508695D01*
X15406271Y-10516901D01*
X15405135Y-10520260D01*
X15402651Y-10532496D01*
X15404587Y-10545983D01*
X15404792Y-10546743D01*
X15410131Y-10561522D01*
X15417109Y-10574459D01*
X15424545Y-10583654D01*
X15429742Y-10586959D01*
X15436908Y-10589807D01*
X15446881Y-10594569D01*
X15449685Y-10596020D01*
X15459146Y-10599787D01*
X15473463Y-10604041D01*
X15490326Y-10608139D01*
X15500485Y-10610212D01*
X15543414Y-10618313D01*
X15580078Y-10625284D01*
X15611348Y-10631310D01*
X15638099Y-10636576D01*
X15661200Y-10641265D01*
X15681526Y-10645563D01*
X15699947Y-10649655D01*
X15717336Y-10653724D01*
X15734564Y-10657956D01*
X15752505Y-10662534D01*
X15772031Y-10667645D01*
X15772867Y-10667865D01*
X15802804Y-10674797D01*
X15827086Y-10678200D01*
X15846380Y-10678114D01*
X15861351Y-10674578D01*
X15864403Y-10673206D01*
X15875430Y-10664208D01*
X15885066Y-10649845D01*
X15892321Y-10631998D01*
X15896196Y-10612683D01*
X15898288Y-10599628D01*
X15901489Y-10588524D01*
X15903899Y-10583655D01*
X15910710Y-10574189D01*
X15915351Y-10567771D01*
X15917574Y-10563914D01*
X15918953Y-10558837D01*
X15919521Y-10551293D01*
X15919315Y-10540035D01*
X15918369Y-10523813D01*
X15917078Y-10506086D01*
X15915306Y-10484295D01*
X15912963Y-10457743D01*
X15910277Y-10428881D01*
X15907474Y-10400161D01*
X15905395Y-10379829D01*
X15902712Y-10353250D01*
X15900897Y-10332181D01*
X15899899Y-10314932D01*
X15899668Y-10299815D01*
X15900151Y-10285141D01*
X15901298Y-10269219D01*
X15901856Y-10262935D01*
X15903549Y-10242032D01*
X15904170Y-10226284D01*
X15903684Y-10213660D01*
X15902057Y-10202133D01*
X15900728Y-10195806D01*
X15897664Y-10179821D01*
X15894886Y-10161020D01*
X15893218Y-10145786D01*
X15891127Y-10129637D01*
X15887903Y-10113842D01*
X15884392Y-10102243D01*
X15879267Y-10087381D01*
X15876167Y-10074207D01*
X15875309Y-10064224D01*
X15876910Y-10058934D01*
X15878078Y-10058470D01*
X15878591Y-10057238D01*
X15874169Y-10054939D01*
X15865532Y-10047662D01*
X15862715Y-10040557D01*
X15847914Y-10040557D01*
X15846587Y-10043544D01*
X15845495Y-10042976D01*
X15845061Y-10038670D01*
X15845495Y-10038138D01*
X15847652Y-10038636D01*
X15847914Y-10040557D01*
X15862715Y-10040557D01*
X15860322Y-10034523D01*
X15858800Y-10018550D01*
X15858800Y-10015171D01*
X15630200Y-10015171D01*
X15628005Y-10017112D01*
X15622632Y-10014991D01*
X15617564Y-10011209D01*
X15617033Y-10008972D01*
X15621856Y-10008290D01*
X15627584Y-10011048D01*
X15630200Y-10015171D01*
X15858800Y-10015171D01*
X15858800Y-10004271D01*
X15595729Y-10004271D01*
X15595563Y-10007620D01*
X15594343Y-10007900D01*
X15589213Y-10005252D01*
X15588471Y-10004271D01*
X15588637Y-10000922D01*
X15589857Y-10000643D01*
X15594987Y-10003291D01*
X15595729Y-10004271D01*
X15858800Y-10004271D01*
X15878937Y-10004271D01*
X15893798Y-10003016D01*
X15906821Y-9999685D01*
X15916274Y-9994927D01*
X15920426Y-9989395D01*
X15920486Y-9988657D01*
X15918538Y-9982481D01*
X15914719Y-9975882D01*
X15911076Y-9968118D01*
X15910871Y-9962650D01*
X15909837Y-9955372D01*
X15901904Y-9946443D01*
X15887216Y-9935951D01*
X15865921Y-9923985D01*
X15838163Y-9910633D01*
X15804089Y-9895984D01*
X15794331Y-9892022D01*
X15773792Y-9883571D01*
X15754903Y-9875432D01*
X15738989Y-9868204D01*
X15727373Y-9862486D01*
X15721822Y-9859226D01*
X15712113Y-9854379D01*
X15696396Y-9849314D01*
X15675906Y-9844283D01*
X15651879Y-9839537D01*
X15625547Y-9835328D01*
X15598146Y-9831909D01*
X15579400Y-9830154D01*
X15560823Y-9828584D01*
X15543838Y-9826997D01*
X15530331Y-9825577D01*
X15522224Y-9824516D01*
X15511176Y-9823938D01*
X15496169Y-9824815D01*
G37*
X15496169Y-9824815D02*
X15479464Y-9826818D01*
X15463320Y-9829621D01*
X15450000Y-9832893D01*
X15441961Y-9836176D01*
X15434266Y-9843772D01*
X15429372Y-9852257D01*
X15425240Y-9859633D01*
X15420815Y-9862757D01*
X15420762Y-9862757D01*
X15416707Y-9865275D01*
X15416898Y-9871048D01*
X15420469Y-9876546D01*
X15421710Y-9879315D01*
X15417518Y-9880629D01*
X15409583Y-9880900D01*
X15399766Y-9881469D01*
X15395305Y-9883744D01*
X15394343Y-9887925D01*
X15397715Y-9894750D01*
X15407163Y-9902123D01*
X15408892Y-9903127D01*
X15417759Y-9908609D01*
X15421570Y-9913332D01*
X15421783Y-9919740D01*
X15421125Y-9923658D01*
X15420372Y-9930138D01*
X15421567Y-9935637D01*
X15425662Y-9941792D01*
X15433607Y-9950240D01*
X15440465Y-9956942D01*
X15452568Y-9968040D01*
X15461996Y-9974868D01*
X15470794Y-9978669D01*
X15479032Y-9980409D01*
X15489939Y-9982775D01*
X15495043Y-9986102D01*
X15495943Y-9989420D01*
X15497465Y-9993175D01*
X15502869Y-9996376D01*
X15513416Y-9999599D01*
X15523260Y-10001897D01*
X15540463Y-10005503D01*
X15551745Y-10007353D01*
X15558205Y-10007528D01*
X15560941Y-10006111D01*
X15561257Y-10004736D01*
X15558080Y-10002056D01*
X15549896Y-9998495D01*
X15542207Y-9995957D01*
X15532988Y-9992834D01*
X15529613Y-9990739D01*
X15531670Y-9990050D01*
X15542720Y-9991194D01*
X15556733Y-9994627D01*
X15570978Y-9999459D01*
X15582721Y-10004799D01*
X15588059Y-10008427D01*
X15595156Y-10012876D01*
X15600546Y-10013389D01*
X15606656Y-10013921D01*
X15615531Y-10017664D01*
X15618004Y-10019098D01*
X15626337Y-10023795D01*
X15631834Y-10024672D01*
X15637685Y-10021950D01*
X15639747Y-10020622D01*
X15646996Y-10017279D01*
X15655946Y-10016338D01*
X15668023Y-10017918D01*
X15684656Y-10022138D01*
X15694995Y-10025235D01*
X15709666Y-10031512D01*
X15717567Y-10039494D01*
X15719102Y-10049772D01*
X15717026Y-10057568D01*
X15715367Y-10065060D01*
X15713707Y-10077900D01*
X15712257Y-10094184D01*
X15711348Y-10109275D01*
X15709907Y-10131330D01*
X15707899Y-10149885D01*
X15705484Y-10163952D01*
X15702825Y-10172545D01*
X15700614Y-10174814D01*
X15696654Y-10174082D01*
X15687046Y-10172089D01*
X15673227Y-10169138D01*
X15656634Y-10165533D01*
X15656445Y-10165491D01*
X15630074Y-10160235D01*
X15608740Y-10157358D01*
X15590638Y-10156827D01*
X15573961Y-10158608D01*
X15556904Y-10162665D01*
X15553951Y-10163544D01*
X15539400Y-10167717D01*
X15525463Y-10171290D01*
X15516807Y-10173167D01*
X15507047Y-10175560D01*
X15503860Y-10179040D01*
X15506645Y-10185232D01*
X15510457Y-10190319D01*
X15516198Y-10198363D01*
X15516850Y-10202411D01*
X15512282Y-10203764D01*
X15509096Y-10203843D01*
X15499101Y-10204576D01*
X15489139Y-10206111D01*
X15480683Y-10209793D01*
X15477891Y-10216682D01*
X15480715Y-10227322D01*
X15486319Y-10237811D01*
X15491902Y-10249364D01*
X15493573Y-10260958D01*
X15493108Y-10269434D01*
X15492606Y-10279622D01*
X15494382Y-10286243D01*
X15499773Y-10290680D01*
X15510116Y-10294317D01*
X15519529Y-10296758D01*
X15530414Y-10299461D01*
X15505014Y-10304090D01*
X15515210Y-10309076D01*
X15522662Y-10311743D01*
X15531180Y-10312144D01*
X15543402Y-10310326D01*
X15546870Y-10309629D01*
X15558848Y-10307410D01*
X15567328Y-10307151D01*
X15575356Y-10309315D01*
X15585976Y-10314366D01*
X15589289Y-10316080D01*
X15606940Y-10323592D01*
X15628288Y-10330239D01*
X15650327Y-10335258D01*
X15670051Y-10337886D01*
X15675975Y-10338100D01*
X15689154Y-10339868D01*
X15700495Y-10344474D01*
X15708039Y-10350870D01*
X15710029Y-10356336D01*
X15709732Y-10359583D01*
X15708249Y-10361759D01*
X15704688Y-10362796D01*
X15698160Y-10362631D01*
X15687774Y-10361197D01*
X15672638Y-10358429D01*
X15651864Y-10354262D01*
X15635225Y-10350836D01*
X15604310Y-10344793D01*
X15579458Y-10340682D01*
X15560881Y-10338526D01*
X15548790Y-10338348D01*
X15543396Y-10340169D01*
X15543114Y-10341057D01*
X15546570Y-10345161D01*
X15556442Y-10350160D01*
X15571983Y-10355770D01*
X15592447Y-10361709D01*
X15607736Y-10365540D01*
X15627892Y-10369974D01*
X15643593Y-10372430D01*
X15657287Y-10373172D01*
X15671424Y-10372458D01*
X15672129Y-10372394D01*
X15685863Y-10371351D01*
X15694725Y-10371640D01*
X15701047Y-10373706D01*
X15707162Y-10377991D01*
X15708851Y-10379395D01*
X15717241Y-10388194D01*
X15723296Y-10397557D01*
X15723827Y-10398805D01*
X15726550Y-10408106D01*
X15729447Y-10421481D01*
X15732223Y-10437014D01*
X15734589Y-10452790D01*
X15736252Y-10466893D01*
X15736919Y-10477406D01*
X15736509Y-10482033D01*
X15733209Y-10485231D01*
X15726180Y-10486141D01*
X15714775Y-10484652D01*
X15698347Y-10480652D01*
X15676246Y-10474030D01*
X15660557Y-10468938D01*
X15612895Y-10455235D01*
X15568681Y-10446953D01*
X15526760Y-10443904D01*
X15508643Y-10444176D01*
X15492301Y-10445243D01*
X15478017Y-10446861D01*
X15467800Y-10448770D01*
X15464512Y-10449917D01*
X15458052Y-10455808D01*
X15451579Y-10465323D01*
X15449998Y-10468431D01*
X15443196Y-10479311D01*
X15434278Y-10484983D01*
X15420988Y-10486800D01*
X15419280Y-10486822D01*
X15409666Y-10488905D01*
X15403953Y-10493981D01*
X15403527Y-10500467D01*
X15405083Y-10503024D01*
X15407593Y-10508695D01*
X15406271Y-10516901D01*
X15405135Y-10520260D01*
X15402651Y-10532496D01*
X15404587Y-10545983D01*
X15404792Y-10546743D01*
X15410131Y-10561522D01*
X15417109Y-10574459D01*
X15424545Y-10583654D01*
X15429742Y-10586959D01*
X15436908Y-10589807D01*
X15446881Y-10594569D01*
X15449685Y-10596020D01*
X15459146Y-10599787D01*
X15473463Y-10604041D01*
X15490326Y-10608139D01*
X15500485Y-10610212D01*
X15543414Y-10618313D01*
X15580078Y-10625284D01*
X15611348Y-10631310D01*
X15638099Y-10636576D01*
X15661200Y-10641265D01*
X15681526Y-10645563D01*
X15699947Y-10649655D01*
X15717336Y-10653724D01*
X15734564Y-10657956D01*
X15752505Y-10662534D01*
X15772031Y-10667645D01*
X15772867Y-10667865D01*
X15802804Y-10674797D01*
X15827086Y-10678200D01*
X15846380Y-10678114D01*
X15861351Y-10674578D01*
X15864403Y-10673206D01*
X15875430Y-10664208D01*
X15885066Y-10649845D01*
X15892321Y-10631998D01*
X15896196Y-10612683D01*
X15898288Y-10599628D01*
X15901489Y-10588524D01*
X15903899Y-10583655D01*
X15910710Y-10574189D01*
X15915351Y-10567771D01*
X15917574Y-10563914D01*
X15918953Y-10558837D01*
X15919521Y-10551293D01*
X15919315Y-10540035D01*
X15918369Y-10523813D01*
X15917078Y-10506086D01*
X15915306Y-10484295D01*
X15912963Y-10457743D01*
X15910277Y-10428881D01*
X15907474Y-10400161D01*
X15905395Y-10379829D01*
X15902712Y-10353250D01*
X15900897Y-10332181D01*
X15899899Y-10314932D01*
X15899668Y-10299815D01*
X15900151Y-10285141D01*
X15901298Y-10269219D01*
X15901856Y-10262935D01*
X15903549Y-10242032D01*
X15904170Y-10226284D01*
X15903684Y-10213660D01*
X15902057Y-10202133D01*
X15900728Y-10195806D01*
X15897664Y-10179821D01*
X15894886Y-10161020D01*
X15893218Y-10145786D01*
X15891127Y-10129637D01*
X15887903Y-10113842D01*
X15884392Y-10102243D01*
X15879267Y-10087381D01*
X15876167Y-10074207D01*
X15875309Y-10064224D01*
X15876910Y-10058934D01*
X15878078Y-10058470D01*
X15878591Y-10057238D01*
X15874169Y-10054939D01*
X15865532Y-10047662D01*
X15862715Y-10040557D01*
X15847914Y-10040557D01*
X15846587Y-10043544D01*
X15845495Y-10042976D01*
X15845061Y-10038670D01*
X15845495Y-10038138D01*
X15847652Y-10038636D01*
X15847914Y-10040557D01*
X15862715Y-10040557D01*
X15860322Y-10034523D01*
X15858800Y-10018550D01*
X15858800Y-10015171D01*
X15630200Y-10015171D01*
X15628005Y-10017112D01*
X15622632Y-10014991D01*
X15617564Y-10011209D01*
X15617033Y-10008972D01*
X15621856Y-10008290D01*
X15627584Y-10011048D01*
X15630200Y-10015171D01*
X15858800Y-10015171D01*
X15858800Y-10004271D01*
X15595729Y-10004271D01*
X15595563Y-10007620D01*
X15594343Y-10007900D01*
X15589213Y-10005252D01*
X15588471Y-10004271D01*
X15588637Y-10000922D01*
X15589857Y-10000643D01*
X15594987Y-10003291D01*
X15595729Y-10004271D01*
X15858800Y-10004271D01*
X15878937Y-10004271D01*
X15893798Y-10003016D01*
X15906821Y-9999685D01*
X15916274Y-9994927D01*
X15920426Y-9989395D01*
X15920486Y-9988657D01*
X15918538Y-9982481D01*
X15914719Y-9975882D01*
X15911076Y-9968118D01*
X15910871Y-9962650D01*
X15909837Y-9955372D01*
X15901904Y-9946443D01*
X15887216Y-9935951D01*
X15865921Y-9923985D01*
X15838163Y-9910633D01*
X15804089Y-9895984D01*
X15794331Y-9892022D01*
X15773792Y-9883571D01*
X15754903Y-9875432D01*
X15738989Y-9868204D01*
X15727373Y-9862486D01*
X15721822Y-9859226D01*
X15712113Y-9854379D01*
X15696396Y-9849314D01*
X15675906Y-9844283D01*
X15651879Y-9839537D01*
X15625547Y-9835328D01*
X15598146Y-9831909D01*
X15579400Y-9830154D01*
X15560823Y-9828584D01*
X15543838Y-9826997D01*
X15530331Y-9825577D01*
X15522224Y-9824516D01*
X15511176Y-9823938D01*
X15496169Y-9824815D01*
G36*
X16549106Y-10667770D02*
G01*
X16548229Y-10673529D01*
X16549566Y-10681212D01*
X16551857Y-10684629D01*
X16554427Y-10683211D01*
X16555484Y-10676151D01*
X16555486Y-10675771D01*
X16554453Y-10668036D01*
X16551959Y-10664676D01*
X16551857Y-10664671D01*
X16549106Y-10667770D01*
G37*
X16549106Y-10667770D02*
X16548229Y-10673529D01*
X16549566Y-10681212D01*
X16551857Y-10684629D01*
X16554427Y-10683211D01*
X16555484Y-10676151D01*
X16555486Y-10675771D01*
X16554453Y-10668036D01*
X16551959Y-10664676D01*
X16551857Y-10664671D01*
X16549106Y-10667770D01*
G36*
X15940155Y-9970570D02*
G01*
X15933929Y-9998554D01*
X15945840Y-10038605D01*
X15951275Y-10057832D01*
X15956386Y-10077584D01*
X15960472Y-10095066D01*
X15962276Y-10104057D01*
X15968069Y-10138071D01*
X15972105Y-10165208D01*
X15974375Y-10185413D01*
X15974914Y-10196313D01*
X15974391Y-10205381D01*
X15972225Y-10208884D01*
X15968226Y-10208672D01*
X15964612Y-10208237D01*
X15963116Y-10210425D01*
X15963527Y-10216752D01*
X15965505Y-10228061D01*
X15968121Y-10240246D01*
X15970764Y-10249778D01*
X15972360Y-10253660D01*
X15973962Y-10258686D01*
X15976405Y-10269476D01*
X15979401Y-10284626D01*
X15982664Y-10302731D01*
X15983954Y-10310332D01*
X15987800Y-10332235D01*
X15992068Y-10354655D01*
X15996273Y-10375139D01*
X15999927Y-10391237D01*
X16000356Y-10392958D01*
X16004055Y-10406690D01*
X16009391Y-10425287D01*
X16016021Y-10447663D01*
X16023607Y-10472730D01*
X16031806Y-10499401D01*
X16040278Y-10526587D01*
X16048682Y-10553203D01*
X16056678Y-10578159D01*
X16063924Y-10600370D01*
X16070080Y-10618747D01*
X16074804Y-10632204D01*
X16077489Y-10639070D01*
X16084858Y-10655600D01*
X16088219Y-10639866D01*
X16090519Y-10630399D01*
X16092703Y-10626891D01*
X16095926Y-10628153D01*
X16097930Y-10629878D01*
X16102016Y-10635861D01*
X16107319Y-10646740D01*
X16112883Y-10660489D01*
X16114549Y-10665122D01*
X16120848Y-10681034D01*
X16128172Y-10696295D01*
X16135111Y-10708019D01*
X16136249Y-10709581D01*
X16142564Y-10717488D01*
X16147878Y-10721962D01*
X16154547Y-10723981D01*
X16164929Y-10724521D01*
X16172312Y-10724543D01*
X16185848Y-10724830D01*
X16194332Y-10726123D01*
X16199964Y-10729068D01*
X16204765Y-10734097D01*
X16214401Y-10743133D01*
X16223301Y-10746539D01*
X16230310Y-10744015D01*
X16232344Y-10741242D01*
X16236021Y-10736530D01*
X16241402Y-10736107D01*
X16247354Y-10737890D01*
X16255480Y-10739919D01*
X16261273Y-10738374D01*
X16266490Y-10732139D01*
X16271750Y-10722386D01*
X16280537Y-10711251D01*
X16288786Y-10706857D01*
X16304159Y-10701826D01*
X16314555Y-10696882D01*
X16322098Y-10690624D01*
X16328913Y-10681647D01*
X16330384Y-10679389D01*
X16336498Y-10668915D01*
X16340498Y-10660249D01*
X16341400Y-10656634D01*
X16343982Y-10649601D01*
X16346390Y-10646904D01*
X16350247Y-10640746D01*
X16353250Y-10630987D01*
X16353571Y-10629224D01*
X16355203Y-10622576D01*
X16358822Y-10609959D01*
X16364145Y-10592296D01*
X16370887Y-10570510D01*
X16378763Y-10545524D01*
X16387488Y-10518262D01*
X16393541Y-10499571D01*
X16404013Y-10466994D01*
X16414962Y-10432237D01*
X16425855Y-10397044D01*
X16436157Y-10363156D01*
X16445334Y-10332319D01*
X16452853Y-10306275D01*
X16454105Y-10301814D01*
X16461437Y-10275371D01*
X16467019Y-10254555D01*
X16471104Y-10238017D01*
X16473943Y-10224408D01*
X16475789Y-10212379D01*
X16476894Y-10200582D01*
X16477510Y-10187668D01*
X16477836Y-10174814D01*
X16478626Y-10153298D01*
X16480022Y-10130551D01*
X16481810Y-10109643D01*
X16483308Y-10096800D01*
X16486294Y-10071662D01*
X16487293Y-10052522D01*
X16486210Y-10038373D01*
X16482950Y-10028207D01*
X16477416Y-10021016D01*
X16475979Y-10019807D01*
X16466971Y-10008822D01*
X16463339Y-9996768D01*
X16461499Y-9987620D01*
X16459337Y-9984450D01*
X16455861Y-9986008D01*
X16455221Y-9986526D01*
X16449324Y-9993746D01*
X16446340Y-9999587D01*
X16442477Y-10005928D01*
X16438651Y-10007794D01*
X16436815Y-10004950D01*
X16437557Y-10000643D01*
X16438880Y-9994593D01*
X16437008Y-9994593D01*
X16431795Y-10000742D01*
X16426671Y-10007900D01*
X16418198Y-10018442D01*
X16412092Y-10022138D01*
X16408297Y-10018985D01*
X16406757Y-10008977D01*
X16406714Y-10006200D01*
X16406317Y-9996285D01*
X16404660Y-9992062D01*
X16401040Y-9991988D01*
X16400364Y-9992211D01*
X16394592Y-9995336D01*
X16388660Y-10001195D01*
X16381909Y-10010738D01*
X16373680Y-10024914D01*
X16363312Y-10044671D01*
X16361714Y-10047814D01*
X16339585Y-10093136D01*
X16320468Y-10135727D01*
X16304759Y-10174649D01*
X16292852Y-10208963D01*
X16290049Y-10218328D01*
X16283627Y-10239292D01*
X16277862Y-10254550D01*
X16272138Y-10265541D01*
X16266706Y-10272756D01*
X16255753Y-10286627D01*
X16247766Y-10301251D01*
X16241544Y-10319138D01*
X16238200Y-10332301D01*
X16234743Y-10345851D01*
X16231248Y-10357375D01*
X16228620Y-10364050D01*
X16225300Y-10369010D01*
X16221745Y-10368431D01*
X16217717Y-10365033D01*
X16211756Y-10360592D01*
X16209171Y-10361594D01*
X16209706Y-10368525D01*
X16211643Y-10376584D01*
X16213536Y-10387550D01*
X16213306Y-10396471D01*
X16211262Y-10401731D01*
X16207712Y-10401718D01*
X16206968Y-10401063D01*
X16204855Y-10396607D01*
X16201094Y-10386325D01*
X16196069Y-10371358D01*
X16190162Y-10352848D01*
X16183754Y-10331935D01*
X16183356Y-10330606D01*
X16175049Y-10303261D01*
X16165445Y-10272242D01*
X16156301Y-10243148D01*
X15989005Y-10243148D01*
X15988473Y-10246321D01*
X15985800Y-10245571D01*
X15982643Y-10240393D01*
X15982227Y-10237193D01*
X15982814Y-10233132D01*
X15985323Y-10235770D01*
X15985800Y-10236500D01*
X15989005Y-10243148D01*
X16156301Y-10243148D01*
X16155494Y-10240584D01*
X16146148Y-10211321D01*
X16141954Y-10198400D01*
X16134726Y-10176114D01*
X16127851Y-10154586D01*
X16121826Y-10135402D01*
X16117150Y-10120146D01*
X16114571Y-10111314D01*
X16111004Y-10101019D01*
X16104789Y-10085757D01*
X16096577Y-10067021D01*
X16087024Y-10046307D01*
X16077691Y-10026950D01*
X16066947Y-10005266D01*
X16058794Y-9989258D01*
X16052668Y-9978070D01*
X16048003Y-9970845D01*
X16044235Y-9966723D01*
X16043224Y-9966171D01*
X16022086Y-9966171D01*
X16020271Y-9967986D01*
X16018457Y-9966171D01*
X16020271Y-9964357D01*
X16022086Y-9966171D01*
X16043224Y-9966171D01*
X16040799Y-9964849D01*
X16037130Y-9964363D01*
X16036457Y-9964357D01*
X16027074Y-9962146D01*
X16022376Y-9958007D01*
X16019455Y-9954245D01*
X16018567Y-9956872D01*
X16016493Y-9958574D01*
X16010418Y-9954320D01*
X16008280Y-9952336D01*
X16002058Y-9947133D01*
X15995511Y-9944190D01*
X15986329Y-9942882D01*
X15972242Y-9942586D01*
X15946381Y-9942586D01*
X15940155Y-9970570D01*
G37*
X15940155Y-9970570D02*
X15933929Y-9998554D01*
X15945840Y-10038605D01*
X15951275Y-10057832D01*
X15956386Y-10077584D01*
X15960472Y-10095066D01*
X15962276Y-10104057D01*
X15968069Y-10138071D01*
X15972105Y-10165208D01*
X15974375Y-10185413D01*
X15974914Y-10196313D01*
X15974391Y-10205381D01*
X15972225Y-10208884D01*
X15968226Y-10208672D01*
X15964612Y-10208237D01*
X15963116Y-10210425D01*
X15963527Y-10216752D01*
X15965505Y-10228061D01*
X15968121Y-10240246D01*
X15970764Y-10249778D01*
X15972360Y-10253660D01*
X15973962Y-10258686D01*
X15976405Y-10269476D01*
X15979401Y-10284626D01*
X15982664Y-10302731D01*
X15983954Y-10310332D01*
X15987800Y-10332235D01*
X15992068Y-10354655D01*
X15996273Y-10375139D01*
X15999927Y-10391237D01*
X16000356Y-10392958D01*
X16004055Y-10406690D01*
X16009391Y-10425287D01*
X16016021Y-10447663D01*
X16023607Y-10472730D01*
X16031806Y-10499401D01*
X16040278Y-10526587D01*
X16048682Y-10553203D01*
X16056678Y-10578159D01*
X16063924Y-10600370D01*
X16070080Y-10618747D01*
X16074804Y-10632204D01*
X16077489Y-10639070D01*
X16084858Y-10655600D01*
X16088219Y-10639866D01*
X16090519Y-10630399D01*
X16092703Y-10626891D01*
X16095926Y-10628153D01*
X16097930Y-10629878D01*
X16102016Y-10635861D01*
X16107319Y-10646740D01*
X16112883Y-10660489D01*
X16114549Y-10665122D01*
X16120848Y-10681034D01*
X16128172Y-10696295D01*
X16135111Y-10708019D01*
X16136249Y-10709581D01*
X16142564Y-10717488D01*
X16147878Y-10721962D01*
X16154547Y-10723981D01*
X16164929Y-10724521D01*
X16172312Y-10724543D01*
X16185848Y-10724830D01*
X16194332Y-10726123D01*
X16199964Y-10729068D01*
X16204765Y-10734097D01*
X16214401Y-10743133D01*
X16223301Y-10746539D01*
X16230310Y-10744015D01*
X16232344Y-10741242D01*
X16236021Y-10736530D01*
X16241402Y-10736107D01*
X16247354Y-10737890D01*
X16255480Y-10739919D01*
X16261273Y-10738374D01*
X16266490Y-10732139D01*
X16271750Y-10722386D01*
X16280537Y-10711251D01*
X16288786Y-10706857D01*
X16304159Y-10701826D01*
X16314555Y-10696882D01*
X16322098Y-10690624D01*
X16328913Y-10681647D01*
X16330384Y-10679389D01*
X16336498Y-10668915D01*
X16340498Y-10660249D01*
X16341400Y-10656634D01*
X16343982Y-10649601D01*
X16346390Y-10646904D01*
X16350247Y-10640746D01*
X16353250Y-10630987D01*
X16353571Y-10629224D01*
X16355203Y-10622576D01*
X16358822Y-10609959D01*
X16364145Y-10592296D01*
X16370887Y-10570510D01*
X16378763Y-10545524D01*
X16387488Y-10518262D01*
X16393541Y-10499571D01*
X16404013Y-10466994D01*
X16414962Y-10432237D01*
X16425855Y-10397044D01*
X16436157Y-10363156D01*
X16445334Y-10332319D01*
X16452853Y-10306275D01*
X16454105Y-10301814D01*
X16461437Y-10275371D01*
X16467019Y-10254555D01*
X16471104Y-10238017D01*
X16473943Y-10224408D01*
X16475789Y-10212379D01*
X16476894Y-10200582D01*
X16477510Y-10187668D01*
X16477836Y-10174814D01*
X16478626Y-10153298D01*
X16480022Y-10130551D01*
X16481810Y-10109643D01*
X16483308Y-10096800D01*
X16486294Y-10071662D01*
X16487293Y-10052522D01*
X16486210Y-10038373D01*
X16482950Y-10028207D01*
X16477416Y-10021016D01*
X16475979Y-10019807D01*
X16466971Y-10008822D01*
X16463339Y-9996768D01*
X16461499Y-9987620D01*
X16459337Y-9984450D01*
X16455861Y-9986008D01*
X16455221Y-9986526D01*
X16449324Y-9993746D01*
X16446340Y-9999587D01*
X16442477Y-10005928D01*
X16438651Y-10007794D01*
X16436815Y-10004950D01*
X16437557Y-10000643D01*
X16438880Y-9994593D01*
X16437008Y-9994593D01*
X16431795Y-10000742D01*
X16426671Y-10007900D01*
X16418198Y-10018442D01*
X16412092Y-10022138D01*
X16408297Y-10018985D01*
X16406757Y-10008977D01*
X16406714Y-10006200D01*
X16406317Y-9996285D01*
X16404660Y-9992062D01*
X16401040Y-9991988D01*
X16400364Y-9992211D01*
X16394592Y-9995336D01*
X16388660Y-10001195D01*
X16381909Y-10010738D01*
X16373680Y-10024914D01*
X16363312Y-10044671D01*
X16361714Y-10047814D01*
X16339585Y-10093136D01*
X16320468Y-10135727D01*
X16304759Y-10174649D01*
X16292852Y-10208963D01*
X16290049Y-10218328D01*
X16283627Y-10239292D01*
X16277862Y-10254550D01*
X16272138Y-10265541D01*
X16266706Y-10272756D01*
X16255753Y-10286627D01*
X16247766Y-10301251D01*
X16241544Y-10319138D01*
X16238200Y-10332301D01*
X16234743Y-10345851D01*
X16231248Y-10357375D01*
X16228620Y-10364050D01*
X16225300Y-10369010D01*
X16221745Y-10368431D01*
X16217717Y-10365033D01*
X16211756Y-10360592D01*
X16209171Y-10361594D01*
X16209706Y-10368525D01*
X16211643Y-10376584D01*
X16213536Y-10387550D01*
X16213306Y-10396471D01*
X16211262Y-10401731D01*
X16207712Y-10401718D01*
X16206968Y-10401063D01*
X16204855Y-10396607D01*
X16201094Y-10386325D01*
X16196069Y-10371358D01*
X16190162Y-10352848D01*
X16183754Y-10331935D01*
X16183356Y-10330606D01*
X16175049Y-10303261D01*
X16165445Y-10272242D01*
X16156301Y-10243148D01*
X15989005Y-10243148D01*
X15988473Y-10246321D01*
X15985800Y-10245571D01*
X15982643Y-10240393D01*
X15982227Y-10237193D01*
X15982814Y-10233132D01*
X15985323Y-10235770D01*
X15985800Y-10236500D01*
X15989005Y-10243148D01*
X16156301Y-10243148D01*
X16155494Y-10240584D01*
X16146148Y-10211321D01*
X16141954Y-10198400D01*
X16134726Y-10176114D01*
X16127851Y-10154586D01*
X16121826Y-10135402D01*
X16117150Y-10120146D01*
X16114571Y-10111314D01*
X16111004Y-10101019D01*
X16104789Y-10085757D01*
X16096577Y-10067021D01*
X16087024Y-10046307D01*
X16077691Y-10026950D01*
X16066947Y-10005266D01*
X16058794Y-9989258D01*
X16052668Y-9978070D01*
X16048003Y-9970845D01*
X16044235Y-9966723D01*
X16043224Y-9966171D01*
X16022086Y-9966171D01*
X16020271Y-9967986D01*
X16018457Y-9966171D01*
X16020271Y-9964357D01*
X16022086Y-9966171D01*
X16043224Y-9966171D01*
X16040799Y-9964849D01*
X16037130Y-9964363D01*
X16036457Y-9964357D01*
X16027074Y-9962146D01*
X16022376Y-9958007D01*
X16019455Y-9954245D01*
X16018567Y-9956872D01*
X16016493Y-9958574D01*
X16010418Y-9954320D01*
X16008280Y-9952336D01*
X16002058Y-9947133D01*
X15995511Y-9944190D01*
X15986329Y-9942882D01*
X15972242Y-9942586D01*
X15946381Y-9942586D01*
X15940155Y-9970570D01*
G36*
X16609614Y-10010213D02*
G01*
X16602187Y-10016311D01*
X16592606Y-10024928D01*
X16591524Y-10025940D01*
X16580840Y-10035440D01*
X16573780Y-10040188D01*
X16569159Y-10040870D01*
X16567372Y-10039882D01*
X16563454Y-10037717D01*
X16560171Y-10038995D01*
X16557168Y-10044535D01*
X16554091Y-10055157D01*
X16550586Y-10071681D01*
X16548252Y-10084100D01*
X16544567Y-10104152D01*
X16540735Y-10124873D01*
X16537297Y-10143342D01*
X16535476Y-10153043D01*
X16532783Y-10171402D01*
X16530876Y-10192162D01*
X16530212Y-10208718D01*
X16529971Y-10223116D01*
X16529135Y-10231850D01*
X16527298Y-10236511D01*
X16524052Y-10238690D01*
X16522431Y-10239181D01*
X16517824Y-10241255D01*
X16516031Y-10245634D01*
X16516417Y-10254439D01*
X16516818Y-10257891D01*
X16517992Y-10269194D01*
X16519369Y-10284972D01*
X16520713Y-10302456D01*
X16521173Y-10309071D01*
X16522607Y-10326107D01*
X16524461Y-10342142D01*
X16526418Y-10354585D01*
X16527179Y-10358057D01*
X16529913Y-10371132D01*
X16531722Y-10383932D01*
X16531836Y-10385271D01*
X16533424Y-10396061D01*
X16536444Y-10409914D01*
X16538713Y-10418449D01*
X16542040Y-10432364D01*
X16545295Y-10449937D01*
X16547824Y-10467592D01*
X16548015Y-10469249D01*
X16549265Y-10480235D01*
X16551238Y-10497311D01*
X16553803Y-10519358D01*
X16556830Y-10545260D01*
X16560187Y-10573899D01*
X16563744Y-10604158D01*
X16565958Y-10622943D01*
X16570580Y-10662025D01*
X16574563Y-10694545D01*
X16578154Y-10721145D01*
X16581599Y-10742467D01*
X16585145Y-10759150D01*
X16589036Y-10771838D01*
X16593521Y-10781171D01*
X16598843Y-10787791D01*
X16605251Y-10792339D01*
X16612989Y-10795456D01*
X16622304Y-10797784D01*
X16633442Y-10799965D01*
X16633922Y-10800057D01*
X16651609Y-10803347D01*
X16663721Y-10805224D01*
X16671787Y-10805761D01*
X16677336Y-10805033D01*
X16681895Y-10803112D01*
X16683109Y-10802425D01*
X16688596Y-10796427D01*
X16691246Y-10785999D01*
X16691137Y-10770355D01*
X16688401Y-10749036D01*
X16683491Y-10719100D01*
X16694848Y-10719100D01*
X16705173Y-10721352D01*
X16712696Y-10729079D01*
X16719187Y-10739057D01*
X16717049Y-10719100D01*
X16716150Y-10710403D01*
X16714655Y-10695592D01*
X16712676Y-10675777D01*
X16711732Y-10666272D01*
X16693371Y-10666272D01*
X16692176Y-10671514D01*
X16689034Y-10669943D01*
X16688083Y-10668551D01*
X16688539Y-10663890D01*
X16689684Y-10662894D01*
X16692839Y-10663682D01*
X16693371Y-10666272D01*
X16711732Y-10666272D01*
X16710321Y-10652067D01*
X16707702Y-10625571D01*
X16705837Y-10606614D01*
X16689170Y-10606614D01*
X16688600Y-10611766D01*
X16687340Y-10611150D01*
X16686860Y-10603721D01*
X16687340Y-10602079D01*
X16688664Y-10601623D01*
X16689170Y-10606614D01*
X16705837Y-10606614D01*
X16704929Y-10597398D01*
X16704231Y-10590286D01*
X16701225Y-10559812D01*
X16698144Y-10528892D01*
X16695142Y-10499045D01*
X16692374Y-10471796D01*
X16689993Y-10448665D01*
X16688154Y-10431177D01*
X16688095Y-10430629D01*
X16685219Y-10403749D01*
X16683072Y-10383204D01*
X16681595Y-10368112D01*
X16680734Y-10357595D01*
X16680431Y-10350771D01*
X16680629Y-10346761D01*
X16681272Y-10344684D01*
X16682302Y-10343659D01*
X16682485Y-10343543D01*
X16685187Y-10345255D01*
X16687535Y-10352092D01*
X16687785Y-10353421D01*
X16691912Y-10378547D01*
X16696011Y-10405337D01*
X16699737Y-10431399D01*
X16702744Y-10454338D01*
X16704198Y-10466914D01*
X16705775Y-10481206D01*
X16707541Y-10495901D01*
X16709687Y-10512442D01*
X16712403Y-10532268D01*
X16715882Y-10556821D01*
X16718872Y-10577586D01*
X16720862Y-10593323D01*
X16722964Y-10613161D01*
X16724858Y-10633956D01*
X16725700Y-10644715D01*
X16727589Y-10667346D01*
X16729578Y-10683456D01*
X16731834Y-10693777D01*
X16734520Y-10699045D01*
X16737803Y-10699995D01*
X16738129Y-10699895D01*
X16740012Y-10695644D01*
X16741185Y-10684999D01*
X16741696Y-10668782D01*
X16741597Y-10647816D01*
X16740936Y-10622925D01*
X16739764Y-10594930D01*
X16738132Y-10564655D01*
X16736088Y-10532923D01*
X16733682Y-10500557D01*
X16730965Y-10468378D01*
X16727987Y-10437211D01*
X16724797Y-10407877D01*
X16721445Y-10381200D01*
X16717981Y-10358003D01*
X16717064Y-10352614D01*
X16712405Y-10325812D01*
X16708987Y-10305271D01*
X16706721Y-10290119D01*
X16705519Y-10279482D01*
X16705292Y-10272486D01*
X16705954Y-10268260D01*
X16707415Y-10265929D01*
X16708265Y-10265294D01*
X16710581Y-10262217D01*
X16711017Y-10255947D01*
X16710381Y-10251014D01*
X16707886Y-10251014D01*
X16706558Y-10254001D01*
X16705467Y-10253433D01*
X16705032Y-10249127D01*
X16705467Y-10248595D01*
X16707624Y-10249093D01*
X16707886Y-10251014D01*
X16710381Y-10251014D01*
X16709590Y-10244876D01*
X16708563Y-10239077D01*
X16708141Y-10236500D01*
X16704257Y-10236500D01*
X16702929Y-10239487D01*
X16701838Y-10238919D01*
X16701404Y-10234613D01*
X16701838Y-10234081D01*
X16703995Y-10234579D01*
X16704257Y-10236500D01*
X16708141Y-10236500D01*
X16706283Y-10225177D01*
X16704722Y-10212742D01*
X16704257Y-10205718D01*
X16701606Y-10195818D01*
X16694712Y-10184899D01*
X16693654Y-10183653D01*
X16687780Y-10177488D01*
X16683312Y-10174431D01*
X16680148Y-10175059D01*
X16678189Y-10179946D01*
X16677337Y-10189670D01*
X16677491Y-10204805D01*
X16678552Y-10225928D01*
X16680419Y-10253614D01*
X16680756Y-10258265D01*
X16682788Y-10287872D01*
X16684062Y-10310490D01*
X16684580Y-10326350D01*
X16684343Y-10335682D01*
X16683352Y-10338713D01*
X16681607Y-10335675D01*
X16681081Y-10334084D01*
X16680143Y-10328968D01*
X16678520Y-10317920D01*
X16676387Y-10302214D01*
X16673916Y-10283124D01*
X16671950Y-10267343D01*
X16530086Y-10267343D01*
X16528271Y-10269157D01*
X16526457Y-10267343D01*
X16528271Y-10265529D01*
X16530086Y-10267343D01*
X16671950Y-10267343D01*
X16671723Y-10265529D01*
X16667273Y-10229679D01*
X16663457Y-10200214D01*
X16660127Y-10176303D01*
X16657132Y-10157116D01*
X16654323Y-10141822D01*
X16651550Y-10129592D01*
X16648663Y-10119595D01*
X16645512Y-10111001D01*
X16642674Y-10104519D01*
X16637284Y-10090933D01*
X16631508Y-10073137D01*
X16626259Y-10054061D01*
X16624146Y-10045093D01*
X16620552Y-10029798D01*
X16617232Y-10017556D01*
X16614612Y-10009836D01*
X16613355Y-10007900D01*
X16609614Y-10010213D01*
G37*
X16609614Y-10010213D02*
X16602187Y-10016311D01*
X16592606Y-10024928D01*
X16591524Y-10025940D01*
X16580840Y-10035440D01*
X16573780Y-10040188D01*
X16569159Y-10040870D01*
X16567372Y-10039882D01*
X16563454Y-10037717D01*
X16560171Y-10038995D01*
X16557168Y-10044535D01*
X16554091Y-10055157D01*
X16550586Y-10071681D01*
X16548252Y-10084100D01*
X16544567Y-10104152D01*
X16540735Y-10124873D01*
X16537297Y-10143342D01*
X16535476Y-10153043D01*
X16532783Y-10171402D01*
X16530876Y-10192162D01*
X16530212Y-10208718D01*
X16529971Y-10223116D01*
X16529135Y-10231850D01*
X16527298Y-10236511D01*
X16524052Y-10238690D01*
X16522431Y-10239181D01*
X16517824Y-10241255D01*
X16516031Y-10245634D01*
X16516417Y-10254439D01*
X16516818Y-10257891D01*
X16517992Y-10269194D01*
X16519369Y-10284972D01*
X16520713Y-10302456D01*
X16521173Y-10309071D01*
X16522607Y-10326107D01*
X16524461Y-10342142D01*
X16526418Y-10354585D01*
X16527179Y-10358057D01*
X16529913Y-10371132D01*
X16531722Y-10383932D01*
X16531836Y-10385271D01*
X16533424Y-10396061D01*
X16536444Y-10409914D01*
X16538713Y-10418449D01*
X16542040Y-10432364D01*
X16545295Y-10449937D01*
X16547824Y-10467592D01*
X16548015Y-10469249D01*
X16549265Y-10480235D01*
X16551238Y-10497311D01*
X16553803Y-10519358D01*
X16556830Y-10545260D01*
X16560187Y-10573899D01*
X16563744Y-10604158D01*
X16565958Y-10622943D01*
X16570580Y-10662025D01*
X16574563Y-10694545D01*
X16578154Y-10721145D01*
X16581599Y-10742467D01*
X16585145Y-10759150D01*
X16589036Y-10771838D01*
X16593521Y-10781171D01*
X16598843Y-10787791D01*
X16605251Y-10792339D01*
X16612989Y-10795456D01*
X16622304Y-10797784D01*
X16633442Y-10799965D01*
X16633922Y-10800057D01*
X16651609Y-10803347D01*
X16663721Y-10805224D01*
X16671787Y-10805761D01*
X16677336Y-10805033D01*
X16681895Y-10803112D01*
X16683109Y-10802425D01*
X16688596Y-10796427D01*
X16691246Y-10785999D01*
X16691137Y-10770355D01*
X16688401Y-10749036D01*
X16683491Y-10719100D01*
X16694848Y-10719100D01*
X16705173Y-10721352D01*
X16712696Y-10729079D01*
X16719187Y-10739057D01*
X16717049Y-10719100D01*
X16716150Y-10710403D01*
X16714655Y-10695592D01*
X16712676Y-10675777D01*
X16711732Y-10666272D01*
X16693371Y-10666272D01*
X16692176Y-10671514D01*
X16689034Y-10669943D01*
X16688083Y-10668551D01*
X16688539Y-10663890D01*
X16689684Y-10662894D01*
X16692839Y-10663682D01*
X16693371Y-10666272D01*
X16711732Y-10666272D01*
X16710321Y-10652067D01*
X16707702Y-10625571D01*
X16705837Y-10606614D01*
X16689170Y-10606614D01*
X16688600Y-10611766D01*
X16687340Y-10611150D01*
X16686860Y-10603721D01*
X16687340Y-10602079D01*
X16688664Y-10601623D01*
X16689170Y-10606614D01*
X16705837Y-10606614D01*
X16704929Y-10597398D01*
X16704231Y-10590286D01*
X16701225Y-10559812D01*
X16698144Y-10528892D01*
X16695142Y-10499045D01*
X16692374Y-10471796D01*
X16689993Y-10448665D01*
X16688154Y-10431177D01*
X16688095Y-10430629D01*
X16685219Y-10403749D01*
X16683072Y-10383204D01*
X16681595Y-10368112D01*
X16680734Y-10357595D01*
X16680431Y-10350771D01*
X16680629Y-10346761D01*
X16681272Y-10344684D01*
X16682302Y-10343659D01*
X16682485Y-10343543D01*
X16685187Y-10345255D01*
X16687535Y-10352092D01*
X16687785Y-10353421D01*
X16691912Y-10378547D01*
X16696011Y-10405337D01*
X16699737Y-10431399D01*
X16702744Y-10454338D01*
X16704198Y-10466914D01*
X16705775Y-10481206D01*
X16707541Y-10495901D01*
X16709687Y-10512442D01*
X16712403Y-10532268D01*
X16715882Y-10556821D01*
X16718872Y-10577586D01*
X16720862Y-10593323D01*
X16722964Y-10613161D01*
X16724858Y-10633956D01*
X16725700Y-10644715D01*
X16727589Y-10667346D01*
X16729578Y-10683456D01*
X16731834Y-10693777D01*
X16734520Y-10699045D01*
X16737803Y-10699995D01*
X16738129Y-10699895D01*
X16740012Y-10695644D01*
X16741185Y-10684999D01*
X16741696Y-10668782D01*
X16741597Y-10647816D01*
X16740936Y-10622925D01*
X16739764Y-10594930D01*
X16738132Y-10564655D01*
X16736088Y-10532923D01*
X16733682Y-10500557D01*
X16730965Y-10468378D01*
X16727987Y-10437211D01*
X16724797Y-10407877D01*
X16721445Y-10381200D01*
X16717981Y-10358003D01*
X16717064Y-10352614D01*
X16712405Y-10325812D01*
X16708987Y-10305271D01*
X16706721Y-10290119D01*
X16705519Y-10279482D01*
X16705292Y-10272486D01*
X16705954Y-10268260D01*
X16707415Y-10265929D01*
X16708265Y-10265294D01*
X16710581Y-10262217D01*
X16711017Y-10255947D01*
X16710381Y-10251014D01*
X16707886Y-10251014D01*
X16706558Y-10254001D01*
X16705467Y-10253433D01*
X16705032Y-10249127D01*
X16705467Y-10248595D01*
X16707624Y-10249093D01*
X16707886Y-10251014D01*
X16710381Y-10251014D01*
X16709590Y-10244876D01*
X16708563Y-10239077D01*
X16708141Y-10236500D01*
X16704257Y-10236500D01*
X16702929Y-10239487D01*
X16701838Y-10238919D01*
X16701404Y-10234613D01*
X16701838Y-10234081D01*
X16703995Y-10234579D01*
X16704257Y-10236500D01*
X16708141Y-10236500D01*
X16706283Y-10225177D01*
X16704722Y-10212742D01*
X16704257Y-10205718D01*
X16701606Y-10195818D01*
X16694712Y-10184899D01*
X16693654Y-10183653D01*
X16687780Y-10177488D01*
X16683312Y-10174431D01*
X16680148Y-10175059D01*
X16678189Y-10179946D01*
X16677337Y-10189670D01*
X16677491Y-10204805D01*
X16678552Y-10225928D01*
X16680419Y-10253614D01*
X16680756Y-10258265D01*
X16682788Y-10287872D01*
X16684062Y-10310490D01*
X16684580Y-10326350D01*
X16684343Y-10335682D01*
X16683352Y-10338713D01*
X16681607Y-10335675D01*
X16681081Y-10334084D01*
X16680143Y-10328968D01*
X16678520Y-10317920D01*
X16676387Y-10302214D01*
X16673916Y-10283124D01*
X16671950Y-10267343D01*
X16530086Y-10267343D01*
X16528271Y-10269157D01*
X16526457Y-10267343D01*
X16528271Y-10265529D01*
X16530086Y-10267343D01*
X16671950Y-10267343D01*
X16671723Y-10265529D01*
X16667273Y-10229679D01*
X16663457Y-10200214D01*
X16660127Y-10176303D01*
X16657132Y-10157116D01*
X16654323Y-10141822D01*
X16651550Y-10129592D01*
X16648663Y-10119595D01*
X16645512Y-10111001D01*
X16642674Y-10104519D01*
X16637284Y-10090933D01*
X16631508Y-10073137D01*
X16626259Y-10054061D01*
X16624146Y-10045093D01*
X16620552Y-10029798D01*
X16617232Y-10017556D01*
X16614612Y-10009836D01*
X16613355Y-10007900D01*
X16609614Y-10010213D01*
G36*
X16816644Y-9961100D02*
G01*
X16809995Y-9966300D01*
X16802222Y-9975019D01*
X16797070Y-9986877D01*
X16794758Y-9996236D01*
X16790844Y-10009699D01*
X16785469Y-10021753D01*
X16781972Y-10027057D01*
X16774024Y-10041803D01*
X16770127Y-10061836D01*
X16770271Y-10086427D01*
X16774446Y-10114849D01*
X16782642Y-10146372D01*
X16783601Y-10149414D01*
X16788905Y-10166614D01*
X16793776Y-10183506D01*
X16797456Y-10197412D01*
X16798530Y-10202029D01*
X16799705Y-10207150D01*
X16801333Y-10213546D01*
X16803577Y-10221763D01*
X16806602Y-10232346D01*
X16810572Y-10245839D01*
X16815649Y-10262787D01*
X16821998Y-10283737D01*
X16829782Y-10309232D01*
X16839165Y-10339819D01*
X16850311Y-10376041D01*
X16863383Y-10418444D01*
X16868822Y-10436071D01*
X16877231Y-10463530D01*
X16885750Y-10491720D01*
X16893875Y-10518950D01*
X16901104Y-10543530D01*
X16906935Y-10563768D01*
X16909282Y-10572143D01*
X16915080Y-10592742D01*
X16921180Y-10613745D01*
X16926847Y-10632662D01*
X16931266Y-10646755D01*
X16935112Y-10659227D01*
X16940290Y-10677009D01*
X16946318Y-10698386D01*
X16952710Y-10721645D01*
X16958363Y-10742725D01*
X16970737Y-10786119D01*
X16983019Y-10822475D01*
X16994172Y-10849541D01*
X17001487Y-10865662D01*
X17007838Y-10880159D01*
X17012483Y-10891305D01*
X17014547Y-10896900D01*
X17017185Y-10903398D01*
X17022506Y-10914819D01*
X17029795Y-10929674D01*
X17038331Y-10946476D01*
X17040369Y-10950408D01*
X17049942Y-10969163D01*
X17056489Y-10983115D01*
X17060557Y-10993779D01*
X17062694Y-11002667D01*
X17063447Y-11011293D01*
X17063486Y-11014312D01*
X17063689Y-11025498D01*
X17064851Y-11031065D01*
X17067803Y-11032649D01*
X17072490Y-11032058D01*
X17079761Y-11032317D01*
X17085414Y-11037498D01*
X17087778Y-11041283D01*
X17096369Y-11050085D01*
X17108078Y-11054678D01*
X17120125Y-11054268D01*
X17125291Y-11052012D01*
X17130959Y-11045653D01*
X17136683Y-11034991D01*
X17141214Y-11022861D01*
X17143303Y-11012098D01*
X17143330Y-11011079D01*
X17144510Y-11004248D01*
X17147602Y-10992971D01*
X17151956Y-10979594D01*
X17152325Y-10978543D01*
X17156784Y-10964797D01*
X17160023Y-10952662D01*
X17161374Y-10944651D01*
X17161381Y-10944374D01*
X17162159Y-10938541D01*
X17163595Y-10937742D01*
X17164097Y-10942112D01*
X17163454Y-10951678D01*
X17161807Y-10964497D01*
X17161500Y-10966468D01*
X17159286Y-10983133D01*
X17157250Y-11003226D01*
X17155769Y-11022923D01*
X17155565Y-11026621D01*
X17154864Y-11042354D01*
X17154853Y-11052211D01*
X17155759Y-11057558D01*
X17157808Y-11059761D01*
X17161147Y-11060186D01*
X17168900Y-11057649D01*
X17175614Y-11052476D01*
X17180207Y-11045193D01*
X17185459Y-11033372D01*
X17190265Y-11019515D01*
X17190445Y-11018912D01*
X17194384Y-11005679D01*
X17197636Y-10994904D01*
X17199554Y-10988729D01*
X17199650Y-10988439D01*
X17202315Y-10985668D01*
X17207986Y-10988055D01*
X17213646Y-10990060D01*
X17220028Y-10987977D01*
X17226443Y-10983655D01*
X17234330Y-10977029D01*
X17240930Y-10969267D01*
X17246804Y-10959206D01*
X17252514Y-10945682D01*
X17258618Y-10927534D01*
X17265678Y-10903600D01*
X17266575Y-10900430D01*
X17270626Y-10885252D01*
X17275987Y-10863909D01*
X17282446Y-10837336D01*
X17289790Y-10806462D01*
X17297806Y-10772220D01*
X17306281Y-10735541D01*
X17315003Y-10697359D01*
X17323207Y-10661043D01*
X17092514Y-10661043D01*
X17091187Y-10664030D01*
X17090095Y-10663462D01*
X17089661Y-10659156D01*
X17090095Y-10658624D01*
X17092252Y-10659122D01*
X17092514Y-10661043D01*
X17323207Y-10661043D01*
X17323758Y-10658603D01*
X17332334Y-10620207D01*
X17340519Y-10583102D01*
X17348098Y-10548219D01*
X17354859Y-10516492D01*
X17360590Y-10488850D01*
X17360624Y-10488686D01*
X17370139Y-10439776D01*
X17378224Y-10393802D01*
X17384804Y-10351378D01*
X17389805Y-10313119D01*
X17393150Y-10279643D01*
X17394764Y-10251564D01*
X17394572Y-10229497D01*
X17393564Y-10219428D01*
X17391533Y-10204632D01*
X17389260Y-10185728D01*
X17387111Y-10165838D01*
X17386236Y-10156912D01*
X17384657Y-10141189D01*
X17383185Y-10128409D01*
X17382011Y-10120131D01*
X17381443Y-10117819D01*
X17376844Y-10117217D01*
X17371324Y-10121939D01*
X17365812Y-10130290D01*
X17361238Y-10140577D01*
X17358532Y-10151106D01*
X17358503Y-10159608D01*
X17358833Y-10169002D01*
X17357300Y-10175002D01*
X17355153Y-10180532D01*
X17351502Y-10191502D01*
X17346840Y-10206374D01*
X17341661Y-10223610D01*
X17341150Y-10225347D01*
X17335700Y-10243422D01*
X17330450Y-10259948D01*
X17325986Y-10273136D01*
X17322894Y-10281196D01*
X17322817Y-10281364D01*
X17317579Y-10292743D01*
X17319675Y-10280043D01*
X17322631Y-10263979D01*
X17326814Y-10243714D01*
X17331839Y-10220883D01*
X17337322Y-10197121D01*
X17342877Y-10174063D01*
X17348121Y-10153345D01*
X17352667Y-10136599D01*
X17355906Y-10126103D01*
X17360279Y-10112276D01*
X17363416Y-10099928D01*
X17364656Y-10091675D01*
X17364657Y-10091532D01*
X17362437Y-10080791D01*
X17356883Y-10071611D01*
X17349660Y-10066399D01*
X17346997Y-10065957D01*
X17341698Y-10068671D01*
X17333457Y-10075851D01*
X17323548Y-10086061D01*
X17313246Y-10097862D01*
X17303825Y-10109815D01*
X17296559Y-10120481D01*
X17293443Y-10126401D01*
X17286980Y-10136950D01*
X17278570Y-10145726D01*
X17268782Y-10155460D01*
X17260097Y-10167648D01*
X17254067Y-10179786D01*
X17252190Y-10188235D01*
X17249789Y-10196245D01*
X17243966Y-10205044D01*
X17243306Y-10205778D01*
X17237636Y-10212626D01*
X17236518Y-10218067D01*
X17239409Y-10225755D01*
X17240113Y-10227241D01*
X17243607Y-10236248D01*
X17243285Y-10243221D01*
X17240572Y-10249611D01*
X17235799Y-10256569D01*
X17231304Y-10259212D01*
X17231065Y-10259179D01*
X17227987Y-10261725D01*
X17226776Y-10270228D01*
X17226771Y-10270901D01*
X17225857Y-10279651D01*
X17223285Y-10294326D01*
X17219315Y-10313852D01*
X17214205Y-10337154D01*
X17208212Y-10363158D01*
X17201596Y-10390789D01*
X17194614Y-10418974D01*
X17187525Y-10446636D01*
X17180588Y-10472703D01*
X17174059Y-10496099D01*
X17168199Y-10515750D01*
X17167004Y-10519529D01*
X17160580Y-10540567D01*
X17153681Y-10564742D01*
X17147419Y-10588105D01*
X17145046Y-10597543D01*
X17141005Y-10613732D01*
X17137460Y-10627294D01*
X17134824Y-10636688D01*
X17133586Y-10640278D01*
X17130738Y-10640031D01*
X17126351Y-10635094D01*
X17121619Y-10627499D01*
X17117736Y-10619280D01*
X17115893Y-10612471D01*
X17116051Y-10610399D01*
X17116633Y-10601645D01*
X17115794Y-10598054D01*
X17112680Y-10592400D01*
X17110498Y-10593533D01*
X17109407Y-10601020D01*
X17109566Y-10614434D01*
X17109585Y-10614779D01*
X17110789Y-10637457D01*
X17103519Y-10615686D01*
X17097953Y-10595592D01*
X17096467Y-10580236D01*
X17098976Y-10568414D01*
X17100056Y-10566168D01*
X17101497Y-10560869D01*
X17100955Y-10552852D01*
X17098215Y-10540705D01*
X17096290Y-10534043D01*
X17088313Y-10534043D01*
X17087743Y-10539194D01*
X17086483Y-10538579D01*
X17086003Y-10531150D01*
X17086483Y-10529507D01*
X17087807Y-10529051D01*
X17088313Y-10534043D01*
X17096290Y-10534043D01*
X17093847Y-10525586D01*
X17088919Y-10510719D01*
X17084073Y-10498356D01*
X17080039Y-10490268D01*
X17078467Y-10488310D01*
X17075173Y-10483145D01*
X17071318Y-10473246D01*
X17067375Y-10460476D01*
X17063816Y-10446698D01*
X17061112Y-10433778D01*
X17059736Y-10423577D01*
X17060159Y-10417961D01*
X17060540Y-10417526D01*
X17061139Y-10414667D01*
X17058919Y-10413324D01*
X17055256Y-10408993D01*
X17050991Y-10399758D01*
X17047729Y-10389902D01*
X17043740Y-10374793D01*
X17042061Y-10365641D01*
X17042644Y-10361540D01*
X17045441Y-10361585D01*
X17046250Y-10362005D01*
X17047302Y-10361757D01*
X17043728Y-10357690D01*
X17043261Y-10357231D01*
X17039704Y-10351391D01*
X17034251Y-10339202D01*
X17027131Y-10321255D01*
X17018574Y-10298138D01*
X17008810Y-10270442D01*
X17003867Y-10256005D01*
X16991326Y-10219622D01*
X16978579Y-10183684D01*
X16965938Y-10148998D01*
X16953712Y-10116367D01*
X16942215Y-10086598D01*
X16931755Y-10060494D01*
X16922644Y-10038861D01*
X16915193Y-10022504D01*
X16909713Y-10012228D01*
X16909697Y-10012203D01*
X16901061Y-10000298D01*
X16890629Y-9988212D01*
X16887468Y-9984999D01*
X16879219Y-9977524D01*
X16873136Y-9974393D01*
X16866434Y-9974646D01*
X16861198Y-9975955D01*
X16852256Y-9977818D01*
X16846378Y-9976262D01*
X16840246Y-9970157D01*
X16838718Y-9968318D01*
X16830886Y-9960102D01*
X16824286Y-9957749D01*
X16816644Y-9961100D01*
G37*
X16816644Y-9961100D02*
X16809995Y-9966300D01*
X16802222Y-9975019D01*
X16797070Y-9986877D01*
X16794758Y-9996236D01*
X16790844Y-10009699D01*
X16785469Y-10021753D01*
X16781972Y-10027057D01*
X16774024Y-10041803D01*
X16770127Y-10061836D01*
X16770271Y-10086427D01*
X16774446Y-10114849D01*
X16782642Y-10146372D01*
X16783601Y-10149414D01*
X16788905Y-10166614D01*
X16793776Y-10183506D01*
X16797456Y-10197412D01*
X16798530Y-10202029D01*
X16799705Y-10207150D01*
X16801333Y-10213546D01*
X16803577Y-10221763D01*
X16806602Y-10232346D01*
X16810572Y-10245839D01*
X16815649Y-10262787D01*
X16821998Y-10283737D01*
X16829782Y-10309232D01*
X16839165Y-10339819D01*
X16850311Y-10376041D01*
X16863383Y-10418444D01*
X16868822Y-10436071D01*
X16877231Y-10463530D01*
X16885750Y-10491720D01*
X16893875Y-10518950D01*
X16901104Y-10543530D01*
X16906935Y-10563768D01*
X16909282Y-10572143D01*
X16915080Y-10592742D01*
X16921180Y-10613745D01*
X16926847Y-10632662D01*
X16931266Y-10646755D01*
X16935112Y-10659227D01*
X16940290Y-10677009D01*
X16946318Y-10698386D01*
X16952710Y-10721645D01*
X16958363Y-10742725D01*
X16970737Y-10786119D01*
X16983019Y-10822475D01*
X16994172Y-10849541D01*
X17001487Y-10865662D01*
X17007838Y-10880159D01*
X17012483Y-10891305D01*
X17014547Y-10896900D01*
X17017185Y-10903398D01*
X17022506Y-10914819D01*
X17029795Y-10929674D01*
X17038331Y-10946476D01*
X17040369Y-10950408D01*
X17049942Y-10969163D01*
X17056489Y-10983115D01*
X17060557Y-10993779D01*
X17062694Y-11002667D01*
X17063447Y-11011293D01*
X17063486Y-11014312D01*
X17063689Y-11025498D01*
X17064851Y-11031065D01*
X17067803Y-11032649D01*
X17072490Y-11032058D01*
X17079761Y-11032317D01*
X17085414Y-11037498D01*
X17087778Y-11041283D01*
X17096369Y-11050085D01*
X17108078Y-11054678D01*
X17120125Y-11054268D01*
X17125291Y-11052012D01*
X17130959Y-11045653D01*
X17136683Y-11034991D01*
X17141214Y-11022861D01*
X17143303Y-11012098D01*
X17143330Y-11011079D01*
X17144510Y-11004248D01*
X17147602Y-10992971D01*
X17151956Y-10979594D01*
X17152325Y-10978543D01*
X17156784Y-10964797D01*
X17160023Y-10952662D01*
X17161374Y-10944651D01*
X17161381Y-10944374D01*
X17162159Y-10938541D01*
X17163595Y-10937742D01*
X17164097Y-10942112D01*
X17163454Y-10951678D01*
X17161807Y-10964497D01*
X17161500Y-10966468D01*
X17159286Y-10983133D01*
X17157250Y-11003226D01*
X17155769Y-11022923D01*
X17155565Y-11026621D01*
X17154864Y-11042354D01*
X17154853Y-11052211D01*
X17155759Y-11057558D01*
X17157808Y-11059761D01*
X17161147Y-11060186D01*
X17168900Y-11057649D01*
X17175614Y-11052476D01*
X17180207Y-11045193D01*
X17185459Y-11033372D01*
X17190265Y-11019515D01*
X17190445Y-11018912D01*
X17194384Y-11005679D01*
X17197636Y-10994904D01*
X17199554Y-10988729D01*
X17199650Y-10988439D01*
X17202315Y-10985668D01*
X17207986Y-10988055D01*
X17213646Y-10990060D01*
X17220028Y-10987977D01*
X17226443Y-10983655D01*
X17234330Y-10977029D01*
X17240930Y-10969267D01*
X17246804Y-10959206D01*
X17252514Y-10945682D01*
X17258618Y-10927534D01*
X17265678Y-10903600D01*
X17266575Y-10900430D01*
X17270626Y-10885252D01*
X17275987Y-10863909D01*
X17282446Y-10837336D01*
X17289790Y-10806462D01*
X17297806Y-10772220D01*
X17306281Y-10735541D01*
X17315003Y-10697359D01*
X17323207Y-10661043D01*
X17092514Y-10661043D01*
X17091187Y-10664030D01*
X17090095Y-10663462D01*
X17089661Y-10659156D01*
X17090095Y-10658624D01*
X17092252Y-10659122D01*
X17092514Y-10661043D01*
X17323207Y-10661043D01*
X17323758Y-10658603D01*
X17332334Y-10620207D01*
X17340519Y-10583102D01*
X17348098Y-10548219D01*
X17354859Y-10516492D01*
X17360590Y-10488850D01*
X17360624Y-10488686D01*
X17370139Y-10439776D01*
X17378224Y-10393802D01*
X17384804Y-10351378D01*
X17389805Y-10313119D01*
X17393150Y-10279643D01*
X17394764Y-10251564D01*
X17394572Y-10229497D01*
X17393564Y-10219428D01*
X17391533Y-10204632D01*
X17389260Y-10185728D01*
X17387111Y-10165838D01*
X17386236Y-10156912D01*
X17384657Y-10141189D01*
X17383185Y-10128409D01*
X17382011Y-10120131D01*
X17381443Y-10117819D01*
X17376844Y-10117217D01*
X17371324Y-10121939D01*
X17365812Y-10130290D01*
X17361238Y-10140577D01*
X17358532Y-10151106D01*
X17358503Y-10159608D01*
X17358833Y-10169002D01*
X17357300Y-10175002D01*
X17355153Y-10180532D01*
X17351502Y-10191502D01*
X17346840Y-10206374D01*
X17341661Y-10223610D01*
X17341150Y-10225347D01*
X17335700Y-10243422D01*
X17330450Y-10259948D01*
X17325986Y-10273136D01*
X17322894Y-10281196D01*
X17322817Y-10281364D01*
X17317579Y-10292743D01*
X17319675Y-10280043D01*
X17322631Y-10263979D01*
X17326814Y-10243714D01*
X17331839Y-10220883D01*
X17337322Y-10197121D01*
X17342877Y-10174063D01*
X17348121Y-10153345D01*
X17352667Y-10136599D01*
X17355906Y-10126103D01*
X17360279Y-10112276D01*
X17363416Y-10099928D01*
X17364656Y-10091675D01*
X17364657Y-10091532D01*
X17362437Y-10080791D01*
X17356883Y-10071611D01*
X17349660Y-10066399D01*
X17346997Y-10065957D01*
X17341698Y-10068671D01*
X17333457Y-10075851D01*
X17323548Y-10086061D01*
X17313246Y-10097862D01*
X17303825Y-10109815D01*
X17296559Y-10120481D01*
X17293443Y-10126401D01*
X17286980Y-10136950D01*
X17278570Y-10145726D01*
X17268782Y-10155460D01*
X17260097Y-10167648D01*
X17254067Y-10179786D01*
X17252190Y-10188235D01*
X17249789Y-10196245D01*
X17243966Y-10205044D01*
X17243306Y-10205778D01*
X17237636Y-10212626D01*
X17236518Y-10218067D01*
X17239409Y-10225755D01*
X17240113Y-10227241D01*
X17243607Y-10236248D01*
X17243285Y-10243221D01*
X17240572Y-10249611D01*
X17235799Y-10256569D01*
X17231304Y-10259212D01*
X17231065Y-10259179D01*
X17227987Y-10261725D01*
X17226776Y-10270228D01*
X17226771Y-10270901D01*
X17225857Y-10279651D01*
X17223285Y-10294326D01*
X17219315Y-10313852D01*
X17214205Y-10337154D01*
X17208212Y-10363158D01*
X17201596Y-10390789D01*
X17194614Y-10418974D01*
X17187525Y-10446636D01*
X17180588Y-10472703D01*
X17174059Y-10496099D01*
X17168199Y-10515750D01*
X17167004Y-10519529D01*
X17160580Y-10540567D01*
X17153681Y-10564742D01*
X17147419Y-10588105D01*
X17145046Y-10597543D01*
X17141005Y-10613732D01*
X17137460Y-10627294D01*
X17134824Y-10636688D01*
X17133586Y-10640278D01*
X17130738Y-10640031D01*
X17126351Y-10635094D01*
X17121619Y-10627499D01*
X17117736Y-10619280D01*
X17115893Y-10612471D01*
X17116051Y-10610399D01*
X17116633Y-10601645D01*
X17115794Y-10598054D01*
X17112680Y-10592400D01*
X17110498Y-10593533D01*
X17109407Y-10601020D01*
X17109566Y-10614434D01*
X17109585Y-10614779D01*
X17110789Y-10637457D01*
X17103519Y-10615686D01*
X17097953Y-10595592D01*
X17096467Y-10580236D01*
X17098976Y-10568414D01*
X17100056Y-10566168D01*
X17101497Y-10560869D01*
X17100955Y-10552852D01*
X17098215Y-10540705D01*
X17096290Y-10534043D01*
X17088313Y-10534043D01*
X17087743Y-10539194D01*
X17086483Y-10538579D01*
X17086003Y-10531150D01*
X17086483Y-10529507D01*
X17087807Y-10529051D01*
X17088313Y-10534043D01*
X17096290Y-10534043D01*
X17093847Y-10525586D01*
X17088919Y-10510719D01*
X17084073Y-10498356D01*
X17080039Y-10490268D01*
X17078467Y-10488310D01*
X17075173Y-10483145D01*
X17071318Y-10473246D01*
X17067375Y-10460476D01*
X17063816Y-10446698D01*
X17061112Y-10433778D01*
X17059736Y-10423577D01*
X17060159Y-10417961D01*
X17060540Y-10417526D01*
X17061139Y-10414667D01*
X17058919Y-10413324D01*
X17055256Y-10408993D01*
X17050991Y-10399758D01*
X17047729Y-10389902D01*
X17043740Y-10374793D01*
X17042061Y-10365641D01*
X17042644Y-10361540D01*
X17045441Y-10361585D01*
X17046250Y-10362005D01*
X17047302Y-10361757D01*
X17043728Y-10357690D01*
X17043261Y-10357231D01*
X17039704Y-10351391D01*
X17034251Y-10339202D01*
X17027131Y-10321255D01*
X17018574Y-10298138D01*
X17008810Y-10270442D01*
X17003867Y-10256005D01*
X16991326Y-10219622D01*
X16978579Y-10183684D01*
X16965938Y-10148998D01*
X16953712Y-10116367D01*
X16942215Y-10086598D01*
X16931755Y-10060494D01*
X16922644Y-10038861D01*
X16915193Y-10022504D01*
X16909713Y-10012228D01*
X16909697Y-10012203D01*
X16901061Y-10000298D01*
X16890629Y-9988212D01*
X16887468Y-9984999D01*
X16879219Y-9977524D01*
X16873136Y-9974393D01*
X16866434Y-9974646D01*
X16861198Y-9975955D01*
X16852256Y-9977818D01*
X16846378Y-9976262D01*
X16840246Y-9970157D01*
X16838718Y-9968318D01*
X16830886Y-9960102D01*
X16824286Y-9957749D01*
X16816644Y-9961100D01*
%TD*%
M02*
